<?xml version="1.0" encoding="UTF-8" standalone="no"?>
<!-- Generator: Adobe Illustrator 19.1.0, SVG Export Plug-In . SVG Version: 6.00 Build 0)  -->

<svg
   xmlns:dc="http://purl.org/dc/elements/1.1/"
   xmlns:cc="http://creativecommons.org/ns#"
   xmlns:rdf="http://www.w3.org/1999/02/22-rdf-syntax-ns#"
   xmlns:svg="http://www.w3.org/2000/svg"
   xmlns="http://www.w3.org/2000/svg"
   xmlns:sodipodi="http://sodipodi.sourceforge.net/DTD/sodipodi-0.dtd"
   xmlns:inkscape="http://www.inkscape.org/namespaces/inkscape"
   version="1.1"
   x="0px"
   y="0px"
   width="24px"
   height="24px"
   viewBox="0 0 24 24"
   enable-background="new 0 0 24 24"
   xml:space="preserve"
   id="svg18"
   sodipodi:docname="twotone-info-24px.svg"
   inkscape:version="0.92.3 (2405546, 2018-03-11)"><metadata
   id="metadata24"><rdf:RDF><cc:Work
       rdf:about=""><dc:format>image/svg+xml</dc:format><dc:type
         rdf:resource="http://purl.org/dc/dcmitype/StillImage" /><dc:title></dc:title></cc:Work></rdf:RDF></metadata><defs
   id="defs22" /><sodipodi:namedview
   pagecolor="#ffffff"
   bordercolor="#666666"
   borderopacity="1"
   objecttolerance="10"
   gridtolerance="10"
   guidetolerance="10"
   inkscape:pageopacity="0"
   inkscape:pageshadow="2"
   inkscape:window-width="3240"
   inkscape:window-height="2035"
   id="namedview20"
   showgrid="false"
   inkscape:zoom="73.25"
   inkscape:cx="6.1296928"
   inkscape:cy="12"
   inkscape:window-x="-13"
   inkscape:window-y="-13"
   inkscape:window-maximized="1"
   inkscape:current-layer="g15" />
<g
   id="Bounding_Boxes">
	<g
   id="ui_x5F_spec_x5F_header_copy_3"
   display="none">
	</g>
	<path
   fill="none"
   d="M0,0h24v24H0V0z"
   id="path3" />
</g>
<g
   id="Duotone"
   style="fill:#000000;fill-opacity:1">
	<g
   id="ui_x5F_spec_x5F_header_copy_2"
   display="none"
   style="fill:#000000;fill-opacity:1">
	</g>
	<g
   id="g15"
   style="fill:#000000;fill-opacity:1">
		<path
   opacity="0.3"
   d="M12,4c-4.41,0-8,3.59-8,8c0,4.41,3.59,8,8,8s8-3.59,8-8C20,7.59,16.41,4,12,4z M13,17h-2v-6h2V17z M13,9h-2    V7h2V9z"
   id="path7"
   style="fill:#ffffff;fill-opacity:1;opacity:1" />
		<rect
   x="11"
   y="7"
   width="2"
   height="2"
   id="rect9"
   style="fill:#494a4b;fill-opacity:1" />
		<rect
   x="11"
   y="11"
   width="2"
   height="6"
   id="rect11"
   style="fill:#494a4b;fill-opacity:1" />
		<path
   d="M12,2C6.48,2,2,6.48,2,12c0,5.52,4.48,10,10,10s10-4.48,10-10C22,6.48,17.52,2,12,2z M12,20c-4.41,0-8-3.59-8-8    c0-4.41,3.59-8,8-8s8,3.59,8,8C20,16.41,16.41,20,12,20z"
   id="path13"
   style="fill:#494a4b;fill-opacity:1" />
	</g>
</g>
</svg>