<?xml version="1.0" encoding="UTF-8" standalone="no"?>
<!DOCTYPE svg PUBLIC "-//W3C//DTD SVG 1.1//EN"
 "http://www.w3.org/Graphics/SVG/1.1/DTD/svg11.dtd">
<!-- Generated by graphviz version 2.40.1 (20161225.0304)
 -->
<!-- Title: dependencies Pages: 1 -->
<svg width="510pt" height="284pt"
 viewBox="0.00 0.00 510.00 284.00" xmlns="http://www.w3.org/2000/svg" xmlns:xlink="http://www.w3.org/1999/xlink">
<g id="graph0" class="graph" transform="scale(1 1) rotate(0) translate(4 280)">
<title>dependencies</title>
<polygon fill="#ffffff" stroke="transparent" points="-4,4 -4,-280 506,-280 506,4 -4,4"/>
<text text-anchor="start" x="230.0091" y="-42.4" font-family="sans-serif" font-weight="bold" font-size="14.00" fill="#000000">Legend</text>
<polygon fill="#ffffb3" stroke="transparent" points="17,-10 17,-30 37,-30 37,-10 17,-10"/>
<text text-anchor="start" x="40.629" y="-15.4" font-family="sans-serif" font-size="14.00" fill="#000000"> &#160;Declarations</text>
<polygon fill="#8dd3c7" stroke="transparent" points="130,-10 130,-30 150,-30 150,-10 130,-10"/>
<text text-anchor="start" x="153.7251" y="-15.4" font-family="sans-serif" font-size="14.00" fill="#000000"> &#160;Module</text>
<polygon fill="#80b1d3" stroke="transparent" points="216,-10 216,-30 236,-30 236,-10 216,-10"/>
<text text-anchor="start" x="239.7812" y="-15.4" font-family="sans-serif" font-size="14.00" fill="#000000"> &#160;Bootstrap</text>
<polygon fill="#fdb462" stroke="transparent" points="313,-10 313,-30 333,-30 333,-10 313,-10"/>
<text text-anchor="start" x="336.6732" y="-15.4" font-family="sans-serif" font-size="14.00" fill="#000000"> &#160;Providers</text>
<polygon fill="#fb8072" stroke="transparent" points="409,-10 409,-30 429,-30 429,-10 409,-10"/>
<text text-anchor="start" x="432.7258" y="-15.4" font-family="sans-serif" font-size="14.00" fill="#000000"> &#160;Exports</text>
<g id="clust1" class="cluster">
<title>cluster_SharedModule</title>
<polygon fill="none" stroke="#000000" stroke-dasharray="1,5" points="8,-70 8,-268 494,-268 494,-70 8,-70"/>
</g>
<g id="clust2" class="cluster">
<title>cluster_SharedModule_declarations</title>
<polygon fill="none" stroke="#000000" points="152,-78 152,-130 486,-130 486,-78 152,-78"/>
</g>
<g id="clust5" class="cluster">
<title>cluster_SharedModule_imports</title>
<polygon fill="none" stroke="#000000" points="22,-78 22,-130 144,-130 144,-78 22,-78"/>
</g>
<g id="clust6" class="cluster">
<title>cluster_SharedModule_exports</title>
<polygon fill="none" stroke="#000000" points="16,-208 16,-260 486,-260 486,-208 16,-208"/>
</g>
<!-- FooterComponent -->
<g id="node1" class="node">
<title>FooterComponent</title>
<polygon fill="#ffffb3" stroke="#000000" points="477.8809,-122 360.1191,-122 360.1191,-86 477.8809,-86 477.8809,-122"/>
<text text-anchor="middle" x="419" y="-99.8" font-family="Times,serif" font-size="14.00" fill="#000000">FooterComponent</text>
</g>
<!-- SharedModule -->
<g id="node3" class="node">
<title>SharedModule</title>
<polygon fill="#8dd3c7" stroke="#000000" points="316.4231,-187 313.4231,-191 292.4231,-191 289.4231,-187 217.5769,-187 217.5769,-151 316.4231,-151 316.4231,-187"/>
<text text-anchor="middle" x="267" y="-164.8" font-family="Times,serif" font-size="14.00" fill="#000000">SharedModule</text>
</g>
<!-- FooterComponent&#45;&gt;SharedModule -->
<g id="edge1" class="edge">
<title>FooterComponent&#45;&gt;SharedModule</title>
<path fill="none" stroke="#000000" d="M399.2699,-122.0225C399.2699,-139.3734 399.2699,-163 399.2699,-163 399.2699,-163 326.2524,-163 326.2524,-163"/>
<polygon fill="#000000" stroke="#000000" points="326.2525,-159.5001 316.2524,-163 326.2524,-166.5001 326.2525,-159.5001"/>
</g>
<!-- MessageArchivedComponent -->
<g id="node2" class="node">
<title>MessageArchivedComponent</title>
<polygon fill="#ffffb3" stroke="#000000" points="342.3974,-122 159.6026,-122 159.6026,-86 342.3974,-86 342.3974,-122"/>
<text text-anchor="middle" x="251" y="-99.8" font-family="Times,serif" font-size="14.00" fill="#000000">MessageArchivedComponent</text>
</g>
<!-- MessageArchivedComponent&#45;&gt;SharedModule -->
<g id="edge2" class="edge">
<title>MessageArchivedComponent&#45;&gt;SharedModule</title>
<path fill="none" stroke="#000000" d="M267,-122.1061C267,-122.1061 267,-140.991 267,-140.991"/>
<polygon fill="#000000" stroke="#000000" points="263.5001,-140.9909 267,-150.991 270.5001,-140.991 263.5001,-140.9909"/>
</g>
<!-- FooterComponent  -->
<g id="node5" class="node">
<title>FooterComponent </title>
<polygon fill="#fb8072" stroke="#000000" points="477.8814,-252 356.1186,-252 356.1186,-216 477.8814,-216 477.8814,-252"/>
<text text-anchor="middle" x="417" y="-229.8" font-family="Times,serif" font-size="14.00" fill="#000000">FooterComponent </text>
</g>
<!-- SharedModule&#45;&gt;FooterComponent  -->
<g id="edge4" class="edge">
<title>SharedModule&#45;&gt;FooterComponent </title>
<path fill="none" stroke="#000000" stroke-dasharray="5,2" d="M316.5992,-175C367.2438,-175 438.4801,-175 438.4801,-175 438.4801,-175 438.4801,-205.9775 438.4801,-205.9775"/>
<polygon fill="#000000" stroke="#000000" points="434.9802,-205.9774 438.4801,-215.9775 441.9802,-205.9775 434.9802,-205.9774"/>
</g>
<!-- MaterialModule  -->
<g id="node6" class="node">
<title>MaterialModule </title>
<polygon fill="#fb8072" stroke="#000000" points="338.4716,-252 227.5284,-252 227.5284,-216 338.4716,-216 338.4716,-252"/>
<text text-anchor="middle" x="283" y="-229.8" font-family="Times,serif" font-size="14.00" fill="#000000">MaterialModule </text>
</g>
<!-- SharedModule&#45;&gt;MaterialModule  -->
<g id="edge5" class="edge">
<title>SharedModule&#45;&gt;MaterialModule </title>
<path fill="none" stroke="#000000" stroke-dasharray="5,2" d="M271.9879,-187.1061C271.9879,-187.1061 271.9879,-205.991 271.9879,-205.991"/>
<polygon fill="#000000" stroke="#000000" points="268.488,-205.9909 271.9879,-215.991 275.488,-205.991 268.488,-205.9909"/>
</g>
<!-- MessageArchivedComponent  -->
<g id="node7" class="node">
<title>MessageArchivedComponent </title>
<polygon fill="#fb8072" stroke="#000000" points="209.897,-252 24.103,-252 24.103,-216 209.897,-216 209.897,-252"/>
<text text-anchor="middle" x="117" y="-229.8" font-family="Times,serif" font-size="14.00" fill="#000000">MessageArchivedComponent </text>
</g>
<!-- SharedModule&#45;&gt;MessageArchivedComponent  -->
<g id="edge6" class="edge">
<title>SharedModule&#45;&gt;MessageArchivedComponent </title>
<path fill="none" stroke="#000000" stroke-dasharray="5,2" d="M222.7768,-187.1061C222.7768,-206.3391 222.7768,-234 222.7768,-234 222.7768,-234 220.2274,-234 220.2274,-234"/>
<polygon fill="#000000" stroke="#000000" points="220.2275,-230.5001 210.2274,-234 220.2274,-237.5001 220.2275,-230.5001"/>
</g>
<!-- MaterialModule -->
<g id="node4" class="node">
<title>MaterialModule</title>
<polygon fill="#8dd3c7" stroke="#000000" points="136.4706,-122 133.4706,-126 112.4706,-126 109.4706,-122 29.5294,-122 29.5294,-86 136.4706,-86 136.4706,-122"/>
<text text-anchor="middle" x="83" y="-99.8" font-family="Times,serif" font-size="14.00" fill="#000000">MaterialModule</text>
</g>
<!-- MaterialModule&#45;&gt;SharedModule -->
<g id="edge3" class="edge">
<title>MaterialModule&#45;&gt;SharedModule</title>
<path fill="none" stroke="#000000" d="M83,-122.1061C83,-141.3391 83,-169 83,-169 83,-169 207.6914,-169 207.6914,-169"/>
<polygon fill="#000000" stroke="#000000" points="207.6914,-172.5001 217.6914,-169 207.6913,-165.5001 207.6914,-172.5001"/>
</g>
</g>
</svg>
