<?xml version="1.0" encoding="UTF-8" standalone="no"?>
<!DOCTYPE svg PUBLIC "-//W3C//DTD SVG 1.1//EN"
 "http://www.w3.org/Graphics/SVG/1.1/DTD/svg11.dtd">
<!-- Generated by graphviz version 2.40.1 (20161225.0304)
 -->
<!-- Title: dependencies Pages: 1 -->
<svg width="4417pt" height="442pt"
 viewBox="0.00 0.00 4417.00 442.00" xmlns="http://www.w3.org/2000/svg" xmlns:xlink="http://www.w3.org/1999/xlink">
<g id="graph0" class="graph" transform="scale(1 1) rotate(0) translate(4 438)">
<title>dependencies</title>
<polygon fill="#ffffff" stroke="transparent" points="-4,4 -4,-438 4413,-438 4413,4 -4,4"/>
<text text-anchor="start" x="2183.5091" y="-42.4" font-family="sans-serif" font-weight="bold" font-size="14.00" fill="#000000">Legend</text>
<polygon fill="#ffffb3" stroke="transparent" points="1970.5,-10 1970.5,-30 1990.5,-30 1990.5,-10 1970.5,-10"/>
<text text-anchor="start" x="1994.129" y="-15.4" font-family="sans-serif" font-size="14.00" fill="#000000"> &#160;Declarations</text>
<polygon fill="#8dd3c7" stroke="transparent" points="2083.5,-10 2083.5,-30 2103.5,-30 2103.5,-10 2083.5,-10"/>
<text text-anchor="start" x="2107.2251" y="-15.4" font-family="sans-serif" font-size="14.00" fill="#000000"> &#160;Module</text>
<polygon fill="#80b1d3" stroke="transparent" points="2169.5,-10 2169.5,-30 2189.5,-30 2189.5,-10 2169.5,-10"/>
<text text-anchor="start" x="2193.2812" y="-15.4" font-family="sans-serif" font-size="14.00" fill="#000000"> &#160;Bootstrap</text>
<polygon fill="#fdb462" stroke="transparent" points="2266.5,-10 2266.5,-30 2286.5,-30 2286.5,-10 2266.5,-10"/>
<text text-anchor="start" x="2290.1732" y="-15.4" font-family="sans-serif" font-size="14.00" fill="#000000"> &#160;Providers</text>
<polygon fill="#fb8072" stroke="transparent" points="2362.5,-10 2362.5,-30 2382.5,-30 2382.5,-10 2362.5,-10"/>
<text text-anchor="start" x="2386.2258" y="-15.4" font-family="sans-serif" font-size="14.00" fill="#000000"> &#160;Exports</text>
<g id="clust1" class="cluster">
<title>cluster_AppModule</title>
<polygon fill="none" stroke="#000000" stroke-dasharray="1,5" points="2377,-222 2377,-426 3435,-426 3435,-222 2377,-222"/>
</g>
<g id="clust2" class="cluster">
<title>cluster_AppModule_declarations</title>
<polygon fill="none" stroke="#000000" points="2385,-230 2385,-282 2640,-282 2640,-230 2385,-230"/>
</g>
<g id="clust5" class="cluster">
<title>cluster_AppModule_imports</title>
<polygon fill="none" stroke="#000000" points="2648,-230 2648,-282 3427,-282 3427,-230 2648,-230"/>
</g>
<g id="clust7" class="cluster">
<title>cluster_AppModule_bootstrap</title>
<polygon fill="none" stroke="#000000" points="2857,-366 2857,-418 2981,-418 2981,-366 2857,-366"/>
</g>
<g id="clust15" class="cluster">
<title>cluster_DemandModule</title>
<polygon fill="none" stroke="#000000" stroke-dasharray="1,5" points="2645,-146 2645,-214 2823,-214 2823,-146 2645,-146"/>
</g>
<g id="clust20" class="cluster">
<title>cluster_DemandModule_providers</title>
<polygon fill="none" stroke="#000000" points="2653,-154 2653,-206 2815,-206 2815,-154 2653,-154"/>
</g>
<g id="clust21" class="cluster">
<title>cluster_LocationModule</title>
<polygon fill="none" stroke="#000000" stroke-dasharray="1,5" points="2831,-146 2831,-214 3011,-214 3011,-146 2831,-146"/>
</g>
<g id="clust26" class="cluster">
<title>cluster_LocationModule_providers</title>
<polygon fill="none" stroke="#000000" points="2839,-154 2839,-206 3003,-206 3003,-154 2839,-154"/>
</g>
<g id="clust33" class="cluster">
<title>cluster_NetworkModule</title>
<polygon fill="none" stroke="#000000" stroke-dasharray="1,5" points="3019,-146 3019,-214 3329,-214 3329,-146 3019,-146"/>
</g>
<g id="clust35" class="cluster">
<title>cluster_NetworkModule_imports</title>
<polygon fill="none" stroke="#000000" points="3199,-154 3199,-206 3321,-206 3321,-154 3199,-154"/>
</g>
<g id="clust38" class="cluster">
<title>cluster_NetworkModule_providers</title>
<polygon fill="none" stroke="#000000" points="3027,-154 3027,-206 3191,-206 3191,-154 3027,-154"/>
</g>
<g id="clust39" class="cluster">
<title>cluster_SharedModule</title>
<polygon fill="none" stroke="#000000" stroke-dasharray="1,5" points="3443,-290 3443,-358 4401,-358 4401,-290 3443,-290"/>
</g>
<g id="clust40" class="cluster">
<title>cluster_SharedModule_declarations</title>
<polygon fill="none" stroke="#000000" points="4059,-298 4059,-350 4393,-350 4393,-298 4059,-298"/>
</g>
<g id="clust43" class="cluster">
<title>cluster_SharedModule_imports</title>
<polygon fill="none" stroke="#000000" points="3929,-298 3929,-350 4051,-350 4051,-298 3929,-298"/>
</g>
<g id="clust44" class="cluster">
<title>cluster_SharedModule_exports</title>
<polygon fill="none" stroke="#000000" points="3451,-298 3451,-350 3921,-350 3921,-298 3451,-298"/>
</g>
<g id="clust47" class="cluster">
<title>cluster_SimulationModule</title>
<polygon fill="none" stroke="#000000" stroke-dasharray="1,5" points="3337,-146 3337,-214 3533,-214 3533,-146 3337,-146"/>
</g>
<g id="clust52" class="cluster">
<title>cluster_SimulationModule_providers</title>
<polygon fill="none" stroke="#000000" points="3345,-154 3345,-206 3525,-206 3525,-154 3345,-154"/>
</g>
<g id="clust53" class="cluster">
<title>cluster_UiModule</title>
<polygon fill="none" stroke="#000000" stroke-dasharray="1,5" points="8,-222 8,-350 2369,-350 2369,-222 8,-222"/>
</g>
<g id="clust54" class="cluster">
<title>cluster_UiModule_declarations</title>
<polygon fill="none" stroke="#000000" points="452,-230 452,-282 2361,-282 2361,-230 452,-230"/>
</g>
<g id="clust66" class="cluster">
<title>cluster_UiModule_imports</title>
<polygon fill="none" stroke="#000000" points="310,-230 310,-282 444,-282 444,-230 310,-230"/>
</g>
<g id="clust69" class="cluster">
<title>cluster_UiModule_providers</title>
<polygon fill="none" stroke="#000000" points="16,-230 16,-282 302,-282 302,-230 16,-230"/>
</g>
<g id="clust76" class="cluster">
<title>cluster_WeatherModule</title>
<polygon fill="none" stroke="#000000" stroke-dasharray="1,5" points="3171,-70 3171,-138 3349,-138 3349,-70 3171,-70"/>
</g>
<g id="clust81" class="cluster">
<title>cluster_WeatherModule_providers</title>
<polygon fill="none" stroke="#000000" points="3179,-78 3179,-130 3341,-130 3341,-78 3179,-78"/>
</g>
<!-- AppComponent -->
<g id="node1" class="node">
<title>AppComponent</title>
<polygon fill="#ffffb3" stroke="#000000" points="2631.9399,-274 2526.0601,-274 2526.0601,-238 2631.9399,-238 2631.9399,-274"/>
<text text-anchor="middle" x="2579" y="-251.8" font-family="Times,serif" font-size="14.00" fill="#000000">AppComponent</text>
</g>
<!-- AppModule -->
<g id="node3" class="node">
<title>AppModule</title>
<polygon fill="#8dd3c7" stroke="#000000" points="2960.6571,-342 2957.6571,-346 2936.6571,-346 2933.6571,-342 2877.3429,-342 2877.3429,-306 2960.6571,-306 2960.6571,-342"/>
<text text-anchor="middle" x="2919" y="-319.8" font-family="Times,serif" font-size="14.00" fill="#000000">AppModule</text>
</g>
<!-- AppComponent&#45;&gt;AppModule -->
<g id="edge1" class="edge">
<title>AppComponent&#45;&gt;AppModule</title>
<path fill="none" stroke="#000000" d="M2579,-274.0336C2579,-291.0597 2579,-314 2579,-314 2579,-314 2867.3093,-314 2867.3093,-314"/>
<polygon fill="#000000" stroke="#000000" points="2867.3094,-317.5001 2877.3093,-314 2867.3093,-310.5001 2867.3094,-317.5001"/>
</g>
<!-- HomeComponent -->
<g id="node2" class="node">
<title>HomeComponent</title>
<polygon fill="#ffffb3" stroke="#000000" points="2508.5451,-274 2393.4549,-274 2393.4549,-238 2508.5451,-238 2508.5451,-274"/>
<text text-anchor="middle" x="2451" y="-251.8" font-family="Times,serif" font-size="14.00" fill="#000000">HomeComponent</text>
</g>
<!-- HomeComponent&#45;&gt;AppModule -->
<g id="edge2" class="edge">
<title>HomeComponent&#45;&gt;AppModule</title>
<path fill="none" stroke="#000000" d="M2451,-274.302C2451,-292.2699 2451,-317 2451,-317 2451,-317 2867.0563,-317 2867.0563,-317"/>
<polygon fill="#000000" stroke="#000000" points="2867.0563,-320.5001 2877.0563,-317 2867.0562,-313.5001 2867.0563,-320.5001"/>
</g>
<!-- AppComponent  -->
<g id="node10" class="node">
<title>AppComponent </title>
<polygon fill="#80b1d3" stroke="#000000" points="2973.439,-410 2864.561,-410 2864.561,-374 2973.439,-374 2973.439,-410"/>
<text text-anchor="middle" x="2919" y="-387.8" font-family="Times,serif" font-size="14.00" fill="#000000">AppComponent </text>
</g>
<!-- AppModule&#45;&gt;AppComponent  -->
<g id="edge9" class="edge">
<title>AppModule&#45;&gt;AppComponent </title>
<path fill="none" stroke="#000000" stroke-dasharray="1,5" d="M2919,-342.2228C2919,-342.2228 2919,-363.7269 2919,-363.7269"/>
<polygon fill="#000000" stroke="#000000" points="2915.5001,-363.7269 2919,-373.7269 2922.5001,-363.727 2915.5001,-363.7269"/>
</g>
<!-- AppRoutingModule -->
<g id="node4" class="node">
<title>AppRoutingModule</title>
<polygon fill="#8dd3c7" stroke="#000000" points="2784.2744,-274 2781.2744,-278 2760.2744,-278 2757.2744,-274 2655.7256,-274 2655.7256,-238 2784.2744,-238 2784.2744,-274"/>
<text text-anchor="middle" x="2720" y="-251.8" font-family="Times,serif" font-size="14.00" fill="#000000">AppRoutingModule</text>
</g>
<!-- AppRoutingModule&#45;&gt;AppModule -->
<g id="edge3" class="edge">
<title>AppRoutingModule&#45;&gt;AppModule</title>
<path fill="none" stroke="#000000" d="M2720,-274.2819C2720,-289.9478 2720,-310 2720,-310 2720,-310 2867.2831,-310 2867.2831,-310"/>
<polygon fill="#000000" stroke="#000000" points="2867.2831,-313.5001 2877.2831,-310 2867.283,-306.5001 2867.2831,-313.5001"/>
</g>
<!-- DemandModule -->
<g id="node5" class="node">
<title>DemandModule</title>
<polygon fill="#8dd3c7" stroke="#000000" points="2909.4762,-274 2906.4762,-278 2885.4762,-278 2882.4762,-274 2802.5238,-274 2802.5238,-238 2909.4762,-238 2909.4762,-274"/>
<text text-anchor="middle" x="2856" y="-251.8" font-family="Times,serif" font-size="14.00" fill="#000000">DemandModule</text>
</g>
<!-- DemandModule&#45;&gt;AppModule -->
<g id="edge4" class="edge">
<title>DemandModule&#45;&gt;AppModule</title>
<path fill="none" stroke="#000000" d="M2893.33,-274.2228C2893.33,-274.2228 2893.33,-295.7269 2893.33,-295.7269"/>
<polygon fill="#000000" stroke="#000000" points="2889.83,-295.7269 2893.33,-305.7269 2896.83,-295.727 2889.83,-295.7269"/>
</g>
<!-- LocationModule -->
<g id="node6" class="node">
<title>LocationModule</title>
<polygon fill="#8dd3c7" stroke="#000000" points="3036.8132,-274 3033.8132,-278 3012.8132,-278 3009.8132,-274 2927.1868,-274 2927.1868,-238 3036.8132,-238 3036.8132,-274"/>
<text text-anchor="middle" x="2982" y="-251.8" font-family="Times,serif" font-size="14.00" fill="#000000">LocationModule</text>
</g>
<!-- LocationModule&#45;&gt;AppModule -->
<g id="edge5" class="edge">
<title>LocationModule&#45;&gt;AppModule</title>
<path fill="none" stroke="#000000" d="M2944.0859,-274.2228C2944.0859,-274.2228 2944.0859,-295.7269 2944.0859,-295.7269"/>
<polygon fill="#000000" stroke="#000000" points="2940.586,-295.7269 2944.0859,-305.7269 2947.586,-295.727 2940.586,-295.7269"/>
</g>
<!-- NetworkModule -->
<g id="node7" class="node">
<title>NetworkModule</title>
<polygon fill="#8dd3c7" stroke="#000000" points="3163.0298,-274 3160.0298,-278 3139.0298,-278 3136.0298,-274 3054.9702,-274 3054.9702,-238 3163.0298,-238 3163.0298,-274"/>
<text text-anchor="middle" x="3109" y="-251.8" font-family="Times,serif" font-size="14.00" fill="#000000">NetworkModule</text>
</g>
<!-- NetworkModule&#45;&gt;AppModule -->
<g id="edge6" class="edge">
<title>NetworkModule&#45;&gt;AppModule</title>
<path fill="none" stroke="#000000" d="M3109,-274.0225C3109,-291.3734 3109,-315 3109,-315 3109,-315 2970.6963,-315 2970.6963,-315"/>
<polygon fill="#000000" stroke="#000000" points="2970.6963,-311.5001 2960.6963,-315 2970.6963,-318.5001 2970.6963,-311.5001"/>
</g>
<!-- SharedModule -->
<g id="node8" class="node">
<title>SharedModule</title>
<polygon fill="#8dd3c7" stroke="#000000" points="3419.4231,-274 3416.4231,-278 3395.4231,-278 3392.4231,-274 3320.5769,-274 3320.5769,-238 3419.4231,-238 3419.4231,-274"/>
<text text-anchor="middle" x="3370" y="-251.8" font-family="Times,serif" font-size="14.00" fill="#000000">SharedModule</text>
</g>
<!-- SharedModule&#45;&gt;AppModule -->
<g id="edge7" class="edge">
<title>SharedModule&#45;&gt;AppModule</title>
<path fill="none" stroke="#000000" d="M3386.4037,-274.2479C3386.4037,-297.0179 3386.4037,-333 3386.4037,-333 3386.4037,-333 2970.8903,-333 2970.8903,-333"/>
<polygon fill="#000000" stroke="#000000" points="2970.8903,-329.5001 2960.8903,-333 2970.8903,-336.5001 2970.8903,-329.5001"/>
</g>
<!-- FooterComponent  -->
<g id="node18" class="node">
<title>FooterComponent </title>
<polygon fill="#fb8072" stroke="#000000" points="3912.8814,-342 3791.1186,-342 3791.1186,-306 3912.8814,-306 3912.8814,-342"/>
<text text-anchor="middle" x="3852" y="-319.8" font-family="Times,serif" font-size="14.00" fill="#000000">FooterComponent </text>
</g>
<!-- SharedModule&#45;&gt;FooterComponent  -->
<g id="edge17" class="edge">
<title>SharedModule&#45;&gt;FooterComponent </title>
<path fill="none" stroke="#000000" stroke-dasharray="5,2" d="M3419.3173,-259C3542.1629,-259 3852,-259 3852,-259 3852,-259 3852,-295.8939 3852,-295.8939"/>
<polygon fill="#000000" stroke="#000000" points="3848.5001,-295.8938 3852,-305.8939 3855.5001,-295.8939 3848.5001,-295.8938"/>
</g>
<!-- MaterialModule  -->
<g id="node19" class="node">
<title>MaterialModule </title>
<polygon fill="#fb8072" stroke="#000000" points="3773.4716,-342 3662.5284,-342 3662.5284,-306 3773.4716,-306 3773.4716,-342"/>
<text text-anchor="middle" x="3718" y="-319.8" font-family="Times,serif" font-size="14.00" fill="#000000">MaterialModule </text>
</g>
<!-- SharedModule&#45;&gt;MaterialModule  -->
<g id="edge18" class="edge">
<title>SharedModule&#45;&gt;MaterialModule </title>
<path fill="none" stroke="#000000" stroke-dasharray="5,2" d="M3419.4903,-264C3515.567,-264 3718,-264 3718,-264 3718,-264 3718,-295.998 3718,-295.998"/>
<polygon fill="#000000" stroke="#000000" points="3714.5001,-295.998 3718,-305.998 3721.5001,-295.9981 3714.5001,-295.998"/>
</g>
<!-- MessageArchivedComponent  -->
<g id="node20" class="node">
<title>MessageArchivedComponent </title>
<polygon fill="#fb8072" stroke="#000000" points="3644.897,-342 3459.103,-342 3459.103,-306 3644.897,-306 3644.897,-342"/>
<text text-anchor="middle" x="3552" y="-319.8" font-family="Times,serif" font-size="14.00" fill="#000000">MessageArchivedComponent </text>
</g>
<!-- SharedModule&#45;&gt;MessageArchivedComponent  -->
<g id="edge19" class="edge">
<title>SharedModule&#45;&gt;MessageArchivedComponent </title>
<path fill="none" stroke="#000000" stroke-dasharray="5,2" d="M3419.449,-269C3451.843,-269 3488.2153,-269 3488.2153,-269 3488.2153,-269 3488.2153,-295.9909 3488.2153,-295.9909"/>
<polygon fill="#000000" stroke="#000000" points="3484.7154,-295.9909 3488.2153,-305.9909 3491.7154,-295.991 3484.7154,-295.9909"/>
</g>
<!-- UiModule -->
<g id="node33" class="node">
<title>UiModule</title>
<polygon fill="#8dd3c7" stroke="#000000" points="1118.5484,-342 1115.5484,-346 1094.5484,-346 1091.5484,-342 1045.4516,-342 1045.4516,-306 1118.5484,-306 1118.5484,-342"/>
<text text-anchor="middle" x="1082" y="-319.8" font-family="Times,serif" font-size="14.00" fill="#000000">UiModule</text>
</g>
<!-- SharedModule&#45;&gt;UiModule -->
<g id="edge32" class="edge">
<title>SharedModule&#45;&gt;UiModule</title>
<path fill="none" stroke="#000000" d="M3353.5963,-274.1944C3353.5963,-282.2782 3353.5963,-290 3353.5963,-290 3353.5963,-290 1094.2578,-290 1094.2578,-290 1094.2578,-290 1094.2578,-295.8056 1094.2578,-295.8056"/>
<polygon fill="#000000" stroke="#000000" points="1090.7579,-295.8055 1094.2578,-305.8056 1097.7579,-295.8056 1090.7579,-295.8055"/>
</g>
<!-- SimulationModule -->
<g id="node9" class="node">
<title>SimulationModule</title>
<polygon fill="#8dd3c7" stroke="#000000" points="3302.5,-274 3299.5,-278 3278.5,-278 3275.5,-274 3181.5,-274 3181.5,-238 3302.5,-238 3302.5,-274"/>
<text text-anchor="middle" x="3242" y="-251.8" font-family="Times,serif" font-size="14.00" fill="#000000">SimulationModule</text>
</g>
<!-- SimulationModule&#45;&gt;AppModule -->
<g id="edge8" class="edge">
<title>SimulationModule&#45;&gt;AppModule</title>
<path fill="none" stroke="#000000" d="M3242,-274.2228C3242,-294.3652 3242,-324 3242,-324 3242,-324 2970.8955,-324 2970.8955,-324"/>
<polygon fill="#000000" stroke="#000000" points="2970.8955,-320.5001 2960.8955,-324 2970.8954,-327.5001 2970.8955,-320.5001"/>
</g>
<!-- DemandService -->
<g id="node11" class="node">
<title>DemandService</title>
<ellipse fill="#fdb462" stroke="#000000" cx="2734" cy="-180" rx="72.9121" ry="18"/>
<text text-anchor="middle" x="2734" y="-175.8" font-family="Times,serif" font-size="14.00" fill="#000000">DemandService</text>
</g>
<!-- DemandService&#45;&gt;DemandModule -->
<g id="edge10" class="edge">
<title>DemandService&#45;&gt;DemandModule</title>
<path fill="none" stroke="#000000" d="M2793.4495,-190.5675C2793.4495,-211.4502 2793.4495,-256 2793.4495,-256 2793.4495,-256 2794.3457,-256 2794.3457,-256"/>
<polygon fill="#000000" stroke="#000000" points="2792.4115,-259.5001 2802.4115,-256 2792.4114,-252.5001 2792.4115,-259.5001"/>
</g>
<!-- LocationService -->
<g id="node12" class="node">
<title>LocationService</title>
<ellipse fill="#fdb462" stroke="#000000" cx="2921" cy="-180" rx="74.1354" ry="18"/>
<text text-anchor="middle" x="2921" y="-175.8" font-family="Times,serif" font-size="14.00" fill="#000000">LocationService</text>
</g>
<!-- LocationService&#45;&gt;LocationModule -->
<g id="edge11" class="edge">
<title>LocationService&#45;&gt;LocationModule</title>
<path fill="none" stroke="#000000" d="M2961.3306,-195.3797C2961.3306,-195.3797 2961.3306,-227.971 2961.3306,-227.971"/>
<polygon fill="#000000" stroke="#000000" points="2957.8307,-227.971 2961.3306,-237.971 2964.8307,-227.971 2957.8307,-227.971"/>
</g>
<!-- WeatherModule -->
<g id="node13" class="node">
<title>WeatherModule</title>
<polygon fill="#8dd3c7" stroke="#000000" points="3313.4594,-198 3310.4594,-202 3289.4594,-202 3286.4594,-198 3206.5406,-198 3206.5406,-162 3313.4594,-162 3313.4594,-198"/>
<text text-anchor="middle" x="3260" y="-175.8" font-family="Times,serif" font-size="14.00" fill="#000000">WeatherModule</text>
</g>
<!-- WeatherModule&#45;&gt;NetworkModule -->
<g id="edge12" class="edge">
<title>WeatherModule&#45;&gt;NetworkModule</title>
<path fill="none" stroke="#000000" d="M3254.5102,-198.1097C3254.5102,-207.897 3254.5102,-218 3254.5102,-218 3254.5102,-218 3127.0881,-218 3127.0881,-218 3127.0881,-218 3127.0881,-227.8903 3127.0881,-227.8903"/>
<polygon fill="#000000" stroke="#000000" points="3123.5882,-227.8903 3127.0881,-237.8903 3130.5882,-227.8904 3123.5882,-227.8903"/>
</g>
<!-- NetworkService -->
<g id="node14" class="node">
<title>NetworkService</title>
<ellipse fill="#fdb462" stroke="#000000" cx="3109" cy="-180" rx="73.5541" ry="18"/>
<text text-anchor="middle" x="3109" y="-175.8" font-family="Times,serif" font-size="14.00" fill="#000000">NetworkService</text>
</g>
<!-- NetworkService&#45;&gt;NetworkModule -->
<g id="edge13" class="edge">
<title>NetworkService&#45;&gt;NetworkModule</title>
<path fill="none" stroke="#000000" d="M3090.9119,-197.627C3090.9119,-197.627 3090.9119,-227.9409 3090.9119,-227.9409"/>
<polygon fill="#000000" stroke="#000000" points="3087.412,-227.9408 3090.9119,-237.9409 3094.412,-227.9409 3087.412,-227.9408"/>
</g>
<!-- FooterComponent -->
<g id="node15" class="node">
<title>FooterComponent</title>
<polygon fill="#ffffb3" stroke="#000000" points="4384.8809,-342 4267.1191,-342 4267.1191,-306 4384.8809,-306 4384.8809,-342"/>
<text text-anchor="middle" x="4326" y="-319.8" font-family="Times,serif" font-size="14.00" fill="#000000">FooterComponent</text>
</g>
<!-- FooterComponent&#45;&gt;SharedModule -->
<g id="edge14" class="edge">
<title>FooterComponent&#45;&gt;SharedModule</title>
<path fill="none" stroke="#000000" d="M4326,-305.8468C4326,-282.2434 4326,-244 4326,-244 4326,-244 3429.3856,-244 3429.3856,-244"/>
<polygon fill="#000000" stroke="#000000" points="3429.3856,-240.5001 3419.3856,-244 3429.3856,-247.5001 3429.3856,-240.5001"/>
</g>
<!-- MessageArchivedComponent -->
<g id="node16" class="node">
<title>MessageArchivedComponent</title>
<polygon fill="#ffffb3" stroke="#000000" points="4249.3974,-342 4066.6026,-342 4066.6026,-306 4249.3974,-306 4249.3974,-342"/>
<text text-anchor="middle" x="4158" y="-319.8" font-family="Times,serif" font-size="14.00" fill="#000000">MessageArchivedComponent</text>
</g>
<!-- MessageArchivedComponent&#45;&gt;SharedModule -->
<g id="edge15" class="edge">
<title>MessageArchivedComponent&#45;&gt;SharedModule</title>
<path fill="none" stroke="#000000" d="M4158,-305.8446C4158,-283.6481 4158,-249 4158,-249 4158,-249 3429.2929,-249 3429.2929,-249"/>
<polygon fill="#000000" stroke="#000000" points="3429.293,-245.5001 3419.2929,-249 3429.2929,-252.5001 3429.293,-245.5001"/>
</g>
<!-- MaterialModule -->
<g id="node17" class="node">
<title>MaterialModule</title>
<polygon fill="#8dd3c7" stroke="#000000" points="4043.4706,-342 4040.4706,-346 4019.4706,-346 4016.4706,-342 3936.5294,-342 3936.5294,-306 4043.4706,-306 4043.4706,-342"/>
<text text-anchor="middle" x="3990" y="-319.8" font-family="Times,serif" font-size="14.00" fill="#000000">MaterialModule</text>
</g>
<!-- MaterialModule&#45;&gt;SharedModule -->
<g id="edge16" class="edge">
<title>MaterialModule&#45;&gt;SharedModule</title>
<path fill="none" stroke="#000000" d="M3990,-305.9733C3990,-285.2328 3990,-254 3990,-254 3990,-254 3429.4286,-254 3429.4286,-254"/>
<polygon fill="#000000" stroke="#000000" points="3429.4286,-250.5001 3419.4286,-254 3429.4285,-257.5001 3429.4286,-250.5001"/>
</g>
<!-- SimulationService -->
<g id="node21" class="node">
<title>SimulationService</title>
<ellipse fill="#fdb462" stroke="#000000" cx="3435" cy="-180" rx="82.2584" ry="18"/>
<text text-anchor="middle" x="3435" y="-175.8" font-family="Times,serif" font-size="14.00" fill="#000000">SimulationService</text>
</g>
<!-- SimulationService&#45;&gt;SimulationModule -->
<g id="edge20" class="edge">
<title>SimulationService&#45;&gt;SimulationModule</title>
<path fill="none" stroke="#000000" d="M3352.4979,-180C3332.6894,-180 3317.1343,-180 3317.1343,-180 3317.1343,-180 3317.1343,-256 3317.1343,-256 3317.1343,-256 3312.6477,-256 3312.6477,-256"/>
<polygon fill="#000000" stroke="#000000" points="3312.6477,-252.5001 3302.6477,-256 3312.6476,-259.5001 3312.6477,-252.5001"/>
</g>
<!-- ChangeOfDemandAndWeatherComponent -->
<g id="node22" class="node">
<title>ChangeOfDemandAndWeatherComponent</title>
<polygon fill="#ffffb3" stroke="#000000" points="2352.8081,-274 2095.1919,-274 2095.1919,-238 2352.8081,-238 2352.8081,-274"/>
<text text-anchor="middle" x="2224" y="-251.8" font-family="Times,serif" font-size="14.00" fill="#000000">ChangeOfDemandAndWeatherComponent</text>
</g>
<!-- ChangeOfDemandAndWeatherComponent&#45;&gt;UiModule -->
<g id="edge21" class="edge">
<title>ChangeOfDemandAndWeatherComponent&#45;&gt;UiModule</title>
<path fill="none" stroke="#000000" d="M2224,-274.0098C2224,-298.4207 2224,-339 2224,-339 2224,-339 1128.703,-339 1128.703,-339"/>
<polygon fill="#000000" stroke="#000000" points="1128.703,-335.5001 1118.703,-339 1128.7029,-342.5001 1128.703,-335.5001"/>
</g>
<!-- GoogleMapComponent -->
<g id="node23" class="node">
<title>GoogleMapComponent</title>
<polygon fill="#ffffb3" stroke="#000000" points="2077.2035,-274 1928.7965,-274 1928.7965,-238 2077.2035,-238 2077.2035,-274"/>
<text text-anchor="middle" x="2003" y="-251.8" font-family="Times,serif" font-size="14.00" fill="#000000">GoogleMapComponent</text>
</g>
<!-- GoogleMapComponent&#45;&gt;UiModule -->
<g id="edge22" class="edge">
<title>GoogleMapComponent&#45;&gt;UiModule</title>
<path fill="none" stroke="#000000" d="M2003,-274.3228C2003,-297.6602 2003,-335 2003,-335 2003,-335 1128.6726,-335 1128.6726,-335"/>
<polygon fill="#000000" stroke="#000000" points="1128.6727,-331.5001 1118.6726,-335 1128.6726,-338.5001 1128.6727,-331.5001"/>
</g>
<!-- MapComponent -->
<g id="node24" class="node">
<title>MapComponent</title>
<polygon fill="#ffffb3" stroke="#000000" points="1910.4916,-274 1803.5084,-274 1803.5084,-238 1910.4916,-238 1910.4916,-274"/>
<text text-anchor="middle" x="1857" y="-251.8" font-family="Times,serif" font-size="14.00" fill="#000000">MapComponent</text>
</g>
<!-- MapComponent&#45;&gt;UiModule -->
<g id="edge23" class="edge">
<title>MapComponent&#45;&gt;UiModule</title>
<path fill="none" stroke="#000000" d="M1857,-274.0109C1857,-296.4852 1857,-332 1857,-332 1857,-332 1128.599,-332 1128.599,-332"/>
<polygon fill="#000000" stroke="#000000" points="1128.5991,-328.5001 1118.599,-332 1128.599,-335.5001 1128.5991,-328.5001"/>
</g>
<!-- SearchForTheAreaComponent -->
<g id="node25" class="node">
<title>SearchForTheAreaComponent</title>
<polygon fill="#ffffb3" stroke="#000000" points="1785.8263,-274 1598.1737,-274 1598.1737,-238 1785.8263,-238 1785.8263,-274"/>
<text text-anchor="middle" x="1692" y="-251.8" font-family="Times,serif" font-size="14.00" fill="#000000">SearchForTheAreaComponent</text>
</g>
<!-- SearchForTheAreaComponent&#45;&gt;UiModule -->
<g id="edge24" class="edge">
<title>SearchForTheAreaComponent&#45;&gt;UiModule</title>
<path fill="none" stroke="#000000" d="M1692,-274.1686C1692,-295.498 1692,-328 1692,-328 1692,-328 1128.7845,-328 1128.7845,-328"/>
<polygon fill="#000000" stroke="#000000" points="1128.7845,-324.5001 1118.7845,-328 1128.7845,-331.5001 1128.7845,-324.5001"/>
</g>
<!-- SelectionOfOdPairsComponent -->
<g id="node26" class="node">
<title>SelectionOfOdPairsComponent</title>
<polygon fill="#ffffb3" stroke="#000000" points="1579.7976,-274 1386.2024,-274 1386.2024,-238 1579.7976,-238 1579.7976,-274"/>
<text text-anchor="middle" x="1483" y="-251.8" font-family="Times,serif" font-size="14.00" fill="#000000">SelectionOfOdPairsComponent</text>
</g>
<!-- SelectionOfOdPairsComponent&#45;&gt;UiModule -->
<g id="edge25" class="edge">
<title>SelectionOfOdPairsComponent&#45;&gt;UiModule</title>
<path fill="none" stroke="#000000" d="M1483,-274.2228C1483,-294.3652 1483,-324 1483,-324 1483,-324 1128.6491,-324 1128.6491,-324"/>
<polygon fill="#000000" stroke="#000000" points="1128.6492,-320.5001 1118.6491,-324 1128.6491,-327.5001 1128.6492,-320.5001"/>
</g>
<!-- SelectionOfTheAreaComponent -->
<g id="node27" class="node">
<title>SelectionOfTheAreaComponent</title>
<polygon fill="#ffffb3" stroke="#000000" points="1368.6615,-274 1171.3385,-274 1171.3385,-238 1368.6615,-238 1368.6615,-274"/>
<text text-anchor="middle" x="1270" y="-251.8" font-family="Times,serif" font-size="14.00" fill="#000000">SelectionOfTheAreaComponent</text>
</g>
<!-- SelectionOfTheAreaComponent&#45;&gt;UiModule -->
<g id="edge26" class="edge">
<title>SelectionOfTheAreaComponent&#45;&gt;UiModule</title>
<path fill="none" stroke="#000000" d="M1270,-274.1061C1270,-293.3391 1270,-321 1270,-321 1270,-321 1128.6946,-321 1128.6946,-321"/>
<polygon fill="#000000" stroke="#000000" points="1128.6946,-317.5001 1118.6946,-321 1128.6946,-324.5001 1128.6946,-317.5001"/>
</g>
<!-- SimulationComponent -->
<g id="node28" class="node">
<title>SimulationComponent</title>
<polygon fill="#ffffb3" stroke="#000000" points="1153.2828,-274 1010.7172,-274 1010.7172,-238 1153.2828,-238 1153.2828,-274"/>
<text text-anchor="middle" x="1082" y="-251.8" font-family="Times,serif" font-size="14.00" fill="#000000">SimulationComponent</text>
</g>
<!-- SimulationComponent&#45;&gt;UiModule -->
<g id="edge27" class="edge">
<title>SimulationComponent&#45;&gt;UiModule</title>
<path fill="none" stroke="#000000" d="M1069.7422,-274.2228C1069.7422,-274.2228 1069.7422,-295.7269 1069.7422,-295.7269"/>
<polygon fill="#000000" stroke="#000000" points="1066.2423,-295.7269 1069.7422,-305.7269 1073.2423,-295.727 1066.2423,-295.7269"/>
</g>
<!-- StatisticsComponent -->
<g id="node29" class="node">
<title>StatisticsComponent</title>
<polygon fill="#ffffb3" stroke="#000000" points="992.8864,-274 861.1136,-274 861.1136,-238 992.8864,-238 992.8864,-274"/>
<text text-anchor="middle" x="927" y="-251.8" font-family="Times,serif" font-size="14.00" fill="#000000">StatisticsComponent</text>
</g>
<!-- StatisticsComponent&#45;&gt;UiModule -->
<g id="edge28" class="edge">
<title>StatisticsComponent&#45;&gt;UiModule</title>
<path fill="none" stroke="#000000" d="M927,-274.0091C927,-290.0494 927,-311 927,-311 927,-311 1035.2672,-311 1035.2672,-311"/>
<polygon fill="#000000" stroke="#000000" points="1035.2672,-314.5001 1045.2672,-311 1035.2671,-307.5001 1035.2672,-314.5001"/>
</g>
<!-- UiComponent -->
<g id="node30" class="node">
<title>UiComponent</title>
<polygon fill="#ffffb3" stroke="#000000" points="842.8302,-274 747.1698,-274 747.1698,-238 842.8302,-238 842.8302,-274"/>
<text text-anchor="middle" x="795" y="-251.8" font-family="Times,serif" font-size="14.00" fill="#000000">UiComponent</text>
</g>
<!-- UiComponent&#45;&gt;UiModule -->
<g id="edge29" class="edge">
<title>UiComponent&#45;&gt;UiModule</title>
<path fill="none" stroke="#000000" d="M795,-274.0225C795,-291.3734 795,-315 795,-315 795,-315 1035.3597,-315 1035.3597,-315"/>
<polygon fill="#000000" stroke="#000000" points="1035.3598,-318.5001 1045.3597,-315 1035.3597,-311.5001 1035.3598,-318.5001"/>
</g>
<!-- WeatherComponent -->
<g id="node31" class="node">
<title>WeatherComponent</title>
<polygon fill="#ffffb3" stroke="#000000" points="729.2423,-274 600.7577,-274 600.7577,-238 729.2423,-238 729.2423,-274"/>
<text text-anchor="middle" x="665" y="-251.8" font-family="Times,serif" font-size="14.00" fill="#000000">WeatherComponent</text>
</g>
<!-- WeatherComponent&#45;&gt;UiModule -->
<g id="edge30" class="edge">
<title>WeatherComponent&#45;&gt;UiModule</title>
<path fill="none" stroke="#000000" d="M665,-274.1686C665,-293.0898 665,-320 665,-320 665,-320 1035.3595,-320 1035.3595,-320"/>
<polygon fill="#000000" stroke="#000000" points="1035.3595,-323.5001 1045.3595,-320 1035.3595,-316.5001 1035.3595,-323.5001"/>
</g>
<!-- WizardComponent -->
<g id="node32" class="node">
<title>WizardComponent</title>
<polygon fill="#ffffb3" stroke="#000000" points="582.0283,-274 459.9717,-274 459.9717,-238 582.0283,-238 582.0283,-274"/>
<text text-anchor="middle" x="521" y="-251.8" font-family="Times,serif" font-size="14.00" fill="#000000">WizardComponent</text>
</g>
<!-- WizardComponent&#45;&gt;UiModule -->
<g id="edge31" class="edge">
<title>WizardComponent&#45;&gt;UiModule</title>
<path fill="none" stroke="#000000" d="M521,-274.2228C521,-294.3652 521,-324 521,-324 521,-324 1035.1912,-324 1035.1912,-324"/>
<polygon fill="#000000" stroke="#000000" points="1035.1913,-327.5001 1045.1912,-324 1035.1912,-320.5001 1035.1913,-327.5001"/>
</g>
<!-- UiRoutingModule -->
<g id="node34" class="node">
<title>UiRoutingModule</title>
<polygon fill="#8dd3c7" stroke="#000000" points="436.1653,-274 433.1653,-278 412.1653,-278 409.1653,-274 317.8347,-274 317.8347,-238 436.1653,-238 436.1653,-274"/>
<text text-anchor="middle" x="377" y="-251.8" font-family="Times,serif" font-size="14.00" fill="#000000">UiRoutingModule</text>
</g>
<!-- UiRoutingModule&#45;&gt;UiModule -->
<g id="edge33" class="edge">
<title>UiRoutingModule&#45;&gt;UiModule</title>
<path fill="none" stroke="#000000" d="M377,-274.0449C377,-295.6623 377,-329 377,-329 377,-329 1035.0888,-329 1035.0888,-329"/>
<polygon fill="#000000" stroke="#000000" points="1035.0888,-332.5001 1045.0888,-329 1035.0887,-325.5001 1035.0888,-332.5001"/>
</g>
<!-- MapService -->
<g id="node35" class="node">
<title>MapService</title>
<ellipse fill="#fdb462" stroke="#000000" cx="236" cy="-256" rx="57.8829" ry="18"/>
<text text-anchor="middle" x="236" y="-251.8" font-family="Times,serif" font-size="14.00" fill="#000000">MapService</text>
</g>
<!-- MapService&#45;&gt;UiModule -->
<g id="edge34" class="edge">
<title>MapService&#45;&gt;UiModule</title>
<path fill="none" stroke="#000000" d="M236,-274.2479C236,-297.0179 236,-333 236,-333 236,-333 1035.3769,-333 1035.3769,-333"/>
<polygon fill="#000000" stroke="#000000" points="1035.3769,-336.5001 1045.3769,-333 1035.3769,-329.5001 1035.3769,-336.5001"/>
</g>
<!-- WizardService -->
<g id="node36" class="node">
<title>WizardService</title>
<ellipse fill="#fdb462" stroke="#000000" cx="92" cy="-256" rx="68.315" ry="18"/>
<text text-anchor="middle" x="92" y="-251.8" font-family="Times,serif" font-size="14.00" fill="#000000">WizardService</text>
</g>
<!-- WizardService&#45;&gt;UiModule -->
<g id="edge35" class="edge">
<title>WizardService&#45;&gt;UiModule</title>
<path fill="none" stroke="#000000" d="M92,-274.1985C92,-298.3563 92,-338 92,-338 92,-338 1035.295,-338 1035.295,-338"/>
<polygon fill="#000000" stroke="#000000" points="1035.295,-341.5001 1045.295,-338 1035.295,-334.5001 1035.295,-341.5001"/>
</g>
<!-- WeatherService -->
<g id="node37" class="node">
<title>WeatherService</title>
<ellipse fill="#fdb462" stroke="#000000" cx="3260" cy="-104" rx="72.8889" ry="18"/>
<text text-anchor="middle" x="3260" y="-99.8" font-family="Times,serif" font-size="14.00" fill="#000000">WeatherService</text>
</g>
<!-- WeatherService&#45;&gt;WeatherModule -->
<g id="edge36" class="edge">
<title>WeatherService&#45;&gt;WeatherModule</title>
<path fill="none" stroke="#000000" d="M3260,-122.0109C3260,-122.0109 3260,-151.855 3260,-151.855"/>
<polygon fill="#000000" stroke="#000000" points="3256.5001,-151.8549 3260,-161.855 3263.5001,-151.855 3256.5001,-151.8549"/>
</g>
</g>
</svg>
