<?xml version="1.0" encoding="UTF-8" standalone="no"?>
<!DOCTYPE svg PUBLIC "-//W3C//DTD SVG 1.1//EN"
 "http://www.w3.org/Graphics/SVG/1.1/DTD/svg11.dtd">
<!-- Generated by graphviz version 2.40.1 (20161225.0304)
 -->
<!-- Title: dependencies Pages: 1 -->
<svg width="4682pt" height="442pt"
 viewBox="0.00 0.00 4682.00 442.00" xmlns="http://www.w3.org/2000/svg" xmlns:xlink="http://www.w3.org/1999/xlink">
<g id="graph0" class="graph" transform="scale(1 1) rotate(0) translate(4 438)">
<title>dependencies</title>
<polygon fill="#ffffff" stroke="transparent" points="-4,4 -4,-438 4678,-438 4678,4 -4,4"/>
<text text-anchor="start" x="2316.0091" y="-42.4" font-family="sans-serif" font-weight="bold" font-size="14.00" fill="#000000">Legend</text>
<polygon fill="#ffffb3" stroke="transparent" points="2103,-10 2103,-30 2123,-30 2123,-10 2103,-10"/>
<text text-anchor="start" x="2126.629" y="-15.4" font-family="sans-serif" font-size="14.00" fill="#000000"> &#160;Declarations</text>
<polygon fill="#8dd3c7" stroke="transparent" points="2216,-10 2216,-30 2236,-30 2236,-10 2216,-10"/>
<text text-anchor="start" x="2239.7251" y="-15.4" font-family="sans-serif" font-size="14.00" fill="#000000"> &#160;Module</text>
<polygon fill="#80b1d3" stroke="transparent" points="2302,-10 2302,-30 2322,-30 2322,-10 2302,-10"/>
<text text-anchor="start" x="2325.7812" y="-15.4" font-family="sans-serif" font-size="14.00" fill="#000000"> &#160;Bootstrap</text>
<polygon fill="#fdb462" stroke="transparent" points="2399,-10 2399,-30 2419,-30 2419,-10 2399,-10"/>
<text text-anchor="start" x="2422.6732" y="-15.4" font-family="sans-serif" font-size="14.00" fill="#000000"> &#160;Providers</text>
<polygon fill="#fb8072" stroke="transparent" points="2495,-10 2495,-30 2515,-30 2515,-10 2495,-10"/>
<text text-anchor="start" x="2518.7258" y="-15.4" font-family="sans-serif" font-size="14.00" fill="#000000"> &#160;Exports</text>
<g id="clust1" class="cluster">
<title>cluster_AppModule</title>
<polygon fill="none" stroke="#000000" stroke-dasharray="1,5" points="2317,-222 2317,-426 3375,-426 3375,-222 2317,-222"/>
</g>
<g id="clust2" class="cluster">
<title>cluster_AppModule_declarations</title>
<polygon fill="none" stroke="#000000" points="2325,-230 2325,-282 2580,-282 2580,-230 2325,-230"/>
</g>
<g id="clust5" class="cluster">
<title>cluster_AppModule_imports</title>
<polygon fill="none" stroke="#000000" points="2588,-230 2588,-282 3367,-282 3367,-230 2588,-230"/>
</g>
<g id="clust7" class="cluster">
<title>cluster_AppModule_bootstrap</title>
<polygon fill="none" stroke="#000000" points="2797,-366 2797,-418 2921,-418 2921,-366 2797,-366"/>
</g>
<g id="clust15" class="cluster">
<title>cluster_DemandModule</title>
<polygon fill="none" stroke="#000000" stroke-dasharray="1,5" points="2585,-146 2585,-214 2763,-214 2763,-146 2585,-146"/>
</g>
<g id="clust20" class="cluster">
<title>cluster_DemandModule_providers</title>
<polygon fill="none" stroke="#000000" points="2593,-154 2593,-206 2755,-206 2755,-154 2593,-154"/>
</g>
<g id="clust21" class="cluster">
<title>cluster_LocationModule</title>
<polygon fill="none" stroke="#000000" stroke-dasharray="1,5" points="2771,-146 2771,-214 2951,-214 2951,-146 2771,-146"/>
</g>
<g id="clust26" class="cluster">
<title>cluster_LocationModule_providers</title>
<polygon fill="none" stroke="#000000" points="2779,-154 2779,-206 2943,-206 2943,-154 2779,-154"/>
</g>
<g id="clust33" class="cluster">
<title>cluster_NetworkModule</title>
<polygon fill="none" stroke="#000000" stroke-dasharray="1,5" points="2959,-146 2959,-214 3269,-214 3269,-146 2959,-146"/>
</g>
<g id="clust35" class="cluster">
<title>cluster_NetworkModule_imports</title>
<polygon fill="none" stroke="#000000" points="3139,-154 3139,-206 3261,-206 3261,-154 3139,-154"/>
</g>
<g id="clust38" class="cluster">
<title>cluster_NetworkModule_providers</title>
<polygon fill="none" stroke="#000000" points="2967,-154 2967,-206 3131,-206 3131,-154 2967,-154"/>
</g>
<g id="clust39" class="cluster">
<title>cluster_SharedModule</title>
<polygon fill="none" stroke="#000000" stroke-dasharray="1,5" points="3383,-290 3383,-358 4666,-358 4666,-290 3383,-290"/>
</g>
<g id="clust40" class="cluster">
<title>cluster_SharedModule_declarations</title>
<polygon fill="none" stroke="#000000" points="4163,-298 4163,-350 4658,-350 4658,-298 4163,-298"/>
</g>
<g id="clust44" class="cluster">
<title>cluster_SharedModule_imports</title>
<polygon fill="none" stroke="#000000" points="4033,-298 4033,-350 4155,-350 4155,-298 4033,-298"/>
</g>
<g id="clust45" class="cluster">
<title>cluster_SharedModule_exports</title>
<polygon fill="none" stroke="#000000" points="3391,-298 3391,-350 4025,-350 4025,-298 3391,-298"/>
</g>
<g id="clust48" class="cluster">
<title>cluster_SimulationModule</title>
<polygon fill="none" stroke="#000000" stroke-dasharray="1,5" points="3277,-146 3277,-214 3473,-214 3473,-146 3277,-146"/>
</g>
<g id="clust53" class="cluster">
<title>cluster_SimulationModule_providers</title>
<polygon fill="none" stroke="#000000" points="3285,-154 3285,-206 3465,-206 3465,-154 3285,-154"/>
</g>
<g id="clust54" class="cluster">
<title>cluster_UiModule</title>
<polygon fill="none" stroke="#000000" stroke-dasharray="1,5" points="8,-222 8,-350 2309,-350 2309,-222 8,-222"/>
</g>
<g id="clust55" class="cluster">
<title>cluster_UiModule_declarations</title>
<polygon fill="none" stroke="#000000" points="452,-230 452,-282 2301,-282 2301,-230 452,-230"/>
</g>
<g id="clust67" class="cluster">
<title>cluster_UiModule_imports</title>
<polygon fill="none" stroke="#000000" points="310,-230 310,-282 444,-282 444,-230 310,-230"/>
</g>
<g id="clust70" class="cluster">
<title>cluster_UiModule_providers</title>
<polygon fill="none" stroke="#000000" points="16,-230 16,-282 302,-282 302,-230 16,-230"/>
</g>
<g id="clust77" class="cluster">
<title>cluster_WeatherModule</title>
<polygon fill="none" stroke="#000000" stroke-dasharray="1,5" points="3111,-70 3111,-138 3289,-138 3289,-70 3111,-70"/>
</g>
<g id="clust82" class="cluster">
<title>cluster_WeatherModule_providers</title>
<polygon fill="none" stroke="#000000" points="3119,-78 3119,-130 3281,-130 3281,-78 3119,-78"/>
</g>
<!-- AppComponent -->
<g id="node1" class="node">
<title>AppComponent</title>
<polygon fill="#ffffb3" stroke="#000000" points="2571.9399,-274 2466.0601,-274 2466.0601,-238 2571.9399,-238 2571.9399,-274"/>
<text text-anchor="middle" x="2519" y="-251.8" font-family="Times,serif" font-size="14.00" fill="#000000">AppComponent</text>
</g>
<!-- AppModule -->
<g id="node3" class="node">
<title>AppModule</title>
<polygon fill="#8dd3c7" stroke="#000000" points="2900.6571,-342 2897.6571,-346 2876.6571,-346 2873.6571,-342 2817.3429,-342 2817.3429,-306 2900.6571,-306 2900.6571,-342"/>
<text text-anchor="middle" x="2859" y="-319.8" font-family="Times,serif" font-size="14.00" fill="#000000">AppModule</text>
</g>
<!-- AppComponent&#45;&gt;AppModule -->
<g id="edge1" class="edge">
<title>AppComponent&#45;&gt;AppModule</title>
<path fill="none" stroke="#000000" d="M2519,-274.0336C2519,-291.0597 2519,-314 2519,-314 2519,-314 2807.3093,-314 2807.3093,-314"/>
<polygon fill="#000000" stroke="#000000" points="2807.3094,-317.5001 2817.3093,-314 2807.3093,-310.5001 2807.3094,-317.5001"/>
</g>
<!-- HomeComponent -->
<g id="node2" class="node">
<title>HomeComponent</title>
<polygon fill="#ffffb3" stroke="#000000" points="2448.5451,-274 2333.4549,-274 2333.4549,-238 2448.5451,-238 2448.5451,-274"/>
<text text-anchor="middle" x="2391" y="-251.8" font-family="Times,serif" font-size="14.00" fill="#000000">HomeComponent</text>
</g>
<!-- HomeComponent&#45;&gt;AppModule -->
<g id="edge2" class="edge">
<title>HomeComponent&#45;&gt;AppModule</title>
<path fill="none" stroke="#000000" d="M2391,-274.302C2391,-292.2699 2391,-317 2391,-317 2391,-317 2807.0563,-317 2807.0563,-317"/>
<polygon fill="#000000" stroke="#000000" points="2807.0563,-320.5001 2817.0563,-317 2807.0562,-313.5001 2807.0563,-320.5001"/>
</g>
<!-- AppComponent  -->
<g id="node10" class="node">
<title>AppComponent </title>
<polygon fill="#80b1d3" stroke="#000000" points="2913.439,-410 2804.561,-410 2804.561,-374 2913.439,-374 2913.439,-410"/>
<text text-anchor="middle" x="2859" y="-387.8" font-family="Times,serif" font-size="14.00" fill="#000000">AppComponent </text>
</g>
<!-- AppModule&#45;&gt;AppComponent  -->
<g id="edge9" class="edge">
<title>AppModule&#45;&gt;AppComponent </title>
<path fill="none" stroke="#000000" stroke-dasharray="1,5" d="M2859,-342.2228C2859,-342.2228 2859,-363.7269 2859,-363.7269"/>
<polygon fill="#000000" stroke="#000000" points="2855.5001,-363.7269 2859,-373.7269 2862.5001,-363.727 2855.5001,-363.7269"/>
</g>
<!-- AppRoutingModule -->
<g id="node4" class="node">
<title>AppRoutingModule</title>
<polygon fill="#8dd3c7" stroke="#000000" points="2724.2744,-274 2721.2744,-278 2700.2744,-278 2697.2744,-274 2595.7256,-274 2595.7256,-238 2724.2744,-238 2724.2744,-274"/>
<text text-anchor="middle" x="2660" y="-251.8" font-family="Times,serif" font-size="14.00" fill="#000000">AppRoutingModule</text>
</g>
<!-- AppRoutingModule&#45;&gt;AppModule -->
<g id="edge3" class="edge">
<title>AppRoutingModule&#45;&gt;AppModule</title>
<path fill="none" stroke="#000000" d="M2660,-274.2819C2660,-289.9478 2660,-310 2660,-310 2660,-310 2807.2831,-310 2807.2831,-310"/>
<polygon fill="#000000" stroke="#000000" points="2807.2831,-313.5001 2817.2831,-310 2807.283,-306.5001 2807.2831,-313.5001"/>
</g>
<!-- DemandModule -->
<g id="node5" class="node">
<title>DemandModule</title>
<polygon fill="#8dd3c7" stroke="#000000" points="2849.4762,-274 2846.4762,-278 2825.4762,-278 2822.4762,-274 2742.5238,-274 2742.5238,-238 2849.4762,-238 2849.4762,-274"/>
<text text-anchor="middle" x="2796" y="-251.8" font-family="Times,serif" font-size="14.00" fill="#000000">DemandModule</text>
</g>
<!-- DemandModule&#45;&gt;AppModule -->
<g id="edge4" class="edge">
<title>DemandModule&#45;&gt;AppModule</title>
<path fill="none" stroke="#000000" d="M2833.33,-274.2228C2833.33,-274.2228 2833.33,-295.7269 2833.33,-295.7269"/>
<polygon fill="#000000" stroke="#000000" points="2829.83,-295.7269 2833.33,-305.7269 2836.83,-295.727 2829.83,-295.7269"/>
</g>
<!-- LocationModule -->
<g id="node6" class="node">
<title>LocationModule</title>
<polygon fill="#8dd3c7" stroke="#000000" points="2976.8132,-274 2973.8132,-278 2952.8132,-278 2949.8132,-274 2867.1868,-274 2867.1868,-238 2976.8132,-238 2976.8132,-274"/>
<text text-anchor="middle" x="2922" y="-251.8" font-family="Times,serif" font-size="14.00" fill="#000000">LocationModule</text>
</g>
<!-- LocationModule&#45;&gt;AppModule -->
<g id="edge5" class="edge">
<title>LocationModule&#45;&gt;AppModule</title>
<path fill="none" stroke="#000000" d="M2884.0859,-274.2228C2884.0859,-274.2228 2884.0859,-295.7269 2884.0859,-295.7269"/>
<polygon fill="#000000" stroke="#000000" points="2880.586,-295.7269 2884.0859,-305.7269 2887.586,-295.727 2880.586,-295.7269"/>
</g>
<!-- NetworkModule -->
<g id="node7" class="node">
<title>NetworkModule</title>
<polygon fill="#8dd3c7" stroke="#000000" points="3103.0298,-274 3100.0298,-278 3079.0298,-278 3076.0298,-274 2994.9702,-274 2994.9702,-238 3103.0298,-238 3103.0298,-274"/>
<text text-anchor="middle" x="3049" y="-251.8" font-family="Times,serif" font-size="14.00" fill="#000000">NetworkModule</text>
</g>
<!-- NetworkModule&#45;&gt;AppModule -->
<g id="edge6" class="edge">
<title>NetworkModule&#45;&gt;AppModule</title>
<path fill="none" stroke="#000000" d="M3049,-274.0225C3049,-291.3734 3049,-315 3049,-315 3049,-315 2910.6963,-315 2910.6963,-315"/>
<polygon fill="#000000" stroke="#000000" points="2910.6963,-311.5001 2900.6963,-315 2910.6963,-318.5001 2910.6963,-311.5001"/>
</g>
<!-- SharedModule -->
<g id="node8" class="node">
<title>SharedModule</title>
<polygon fill="#8dd3c7" stroke="#000000" points="3359.4231,-274 3356.4231,-278 3335.4231,-278 3332.4231,-274 3260.5769,-274 3260.5769,-238 3359.4231,-238 3359.4231,-274"/>
<text text-anchor="middle" x="3310" y="-251.8" font-family="Times,serif" font-size="14.00" fill="#000000">SharedModule</text>
</g>
<!-- SharedModule&#45;&gt;AppModule -->
<g id="edge7" class="edge">
<title>SharedModule&#45;&gt;AppModule</title>
<path fill="none" stroke="#000000" d="M3326.4037,-274.2479C3326.4037,-297.0179 3326.4037,-333 3326.4037,-333 3326.4037,-333 2910.8903,-333 2910.8903,-333"/>
<polygon fill="#000000" stroke="#000000" points="2910.8903,-329.5001 2900.8903,-333 2910.8903,-336.5001 2910.8903,-329.5001"/>
</g>
<!-- FooterComponent  -->
<g id="node19" class="node">
<title>FooterComponent </title>
<polygon fill="#fb8072" stroke="#000000" points="3684.8814,-342 3563.1186,-342 3563.1186,-306 3684.8814,-306 3684.8814,-342"/>
<text text-anchor="middle" x="3624" y="-319.8" font-family="Times,serif" font-size="14.00" fill="#000000">FooterComponent </text>
</g>
<!-- SharedModule&#45;&gt;FooterComponent  -->
<g id="edge18" class="edge">
<title>SharedModule&#45;&gt;FooterComponent </title>
<path fill="none" stroke="#000000" stroke-dasharray="5,2" d="M3359.4079,-266C3447.8347,-266 3624,-266 3624,-266 3624,-266 3624,-295.9664 3624,-295.9664"/>
<polygon fill="#000000" stroke="#000000" points="3620.5001,-295.9663 3624,-305.9664 3627.5001,-295.9664 3620.5001,-295.9663"/>
</g>
<!-- InfoDialogComponent  -->
<g id="node20" class="node">
<title>InfoDialogComponent </title>
<polygon fill="#fb8072" stroke="#000000" points="3545.2562,-342 3398.7438,-342 3398.7438,-306 3545.2562,-306 3545.2562,-342"/>
<text text-anchor="middle" x="3472" y="-319.8" font-family="Times,serif" font-size="14.00" fill="#000000">InfoDialogComponent </text>
</g>
<!-- SharedModule&#45;&gt;InfoDialogComponent  -->
<g id="edge19" class="edge">
<title>SharedModule&#45;&gt;InfoDialogComponent </title>
<path fill="none" stroke="#000000" stroke-dasharray="5,2" d="M3359.4114,-270C3391.7809,-270 3428.1256,-270 3428.1256,-270 3428.1256,-270 3428.1256,-295.7181 3428.1256,-295.7181"/>
<polygon fill="#000000" stroke="#000000" points="3424.6257,-295.718 3428.1256,-305.7181 3431.6257,-295.7181 3424.6257,-295.718"/>
</g>
<!-- MaterialModule  -->
<g id="node21" class="node">
<title>MaterialModule </title>
<polygon fill="#fb8072" stroke="#000000" points="4017.4716,-342 3906.5284,-342 3906.5284,-306 4017.4716,-306 4017.4716,-342"/>
<text text-anchor="middle" x="3962" y="-319.8" font-family="Times,serif" font-size="14.00" fill="#000000">MaterialModule </text>
</g>
<!-- SharedModule&#45;&gt;MaterialModule  -->
<g id="edge20" class="edge">
<title>SharedModule&#45;&gt;MaterialModule </title>
<path fill="none" stroke="#000000" stroke-dasharray="5,2" d="M3359.2732,-258C3511.1657,-258 3962,-258 3962,-258 3962,-258 3962,-295.9652 3962,-295.9652"/>
<polygon fill="#000000" stroke="#000000" points="3958.5001,-295.9652 3962,-305.9652 3965.5001,-295.9652 3958.5001,-295.9652"/>
</g>
<!-- MessageArchivedComponent  -->
<g id="node22" class="node">
<title>MessageArchivedComponent </title>
<polygon fill="#fb8072" stroke="#000000" points="3888.897,-342 3703.103,-342 3703.103,-306 3888.897,-306 3888.897,-342"/>
<text text-anchor="middle" x="3796" y="-319.8" font-family="Times,serif" font-size="14.00" fill="#000000">MessageArchivedComponent </text>
</g>
<!-- SharedModule&#45;&gt;MessageArchivedComponent  -->
<g id="edge21" class="edge">
<title>SharedModule&#45;&gt;MessageArchivedComponent </title>
<path fill="none" stroke="#000000" stroke-dasharray="5,2" d="M3359.2748,-262C3482.8301,-262 3796,-262 3796,-262 3796,-262 3796,-295.7333 3796,-295.7333"/>
<polygon fill="#000000" stroke="#000000" points="3792.5001,-295.7333 3796,-305.7333 3799.5001,-295.7333 3792.5001,-295.7333"/>
</g>
<!-- UiModule -->
<g id="node35" class="node">
<title>UiModule</title>
<polygon fill="#8dd3c7" stroke="#000000" points="1118.5484,-342 1115.5484,-346 1094.5484,-346 1091.5484,-342 1045.4516,-342 1045.4516,-306 1118.5484,-306 1118.5484,-342"/>
<text text-anchor="middle" x="1082" y="-319.8" font-family="Times,serif" font-size="14.00" fill="#000000">UiModule</text>
</g>
<!-- SharedModule&#45;&gt;UiModule -->
<g id="edge34" class="edge">
<title>SharedModule&#45;&gt;UiModule</title>
<path fill="none" stroke="#000000" d="M3293.5963,-274.1944C3293.5963,-282.2782 3293.5963,-290 3293.5963,-290 3293.5963,-290 1094.2578,-290 1094.2578,-290 1094.2578,-290 1094.2578,-295.8056 1094.2578,-295.8056"/>
<polygon fill="#000000" stroke="#000000" points="1090.7579,-295.8055 1094.2578,-305.8056 1097.7579,-295.8056 1090.7579,-295.8055"/>
</g>
<!-- SimulationModule -->
<g id="node9" class="node">
<title>SimulationModule</title>
<polygon fill="#8dd3c7" stroke="#000000" points="3242.5,-274 3239.5,-278 3218.5,-278 3215.5,-274 3121.5,-274 3121.5,-238 3242.5,-238 3242.5,-274"/>
<text text-anchor="middle" x="3182" y="-251.8" font-family="Times,serif" font-size="14.00" fill="#000000">SimulationModule</text>
</g>
<!-- SimulationModule&#45;&gt;AppModule -->
<g id="edge8" class="edge">
<title>SimulationModule&#45;&gt;AppModule</title>
<path fill="none" stroke="#000000" d="M3182,-274.2228C3182,-294.3652 3182,-324 3182,-324 3182,-324 2910.8955,-324 2910.8955,-324"/>
<polygon fill="#000000" stroke="#000000" points="2910.8955,-320.5001 2900.8955,-324 2910.8954,-327.5001 2910.8955,-320.5001"/>
</g>
<!-- DemandService -->
<g id="node11" class="node">
<title>DemandService</title>
<ellipse fill="#fdb462" stroke="#000000" cx="2674" cy="-180" rx="72.9121" ry="18"/>
<text text-anchor="middle" x="2674" y="-175.8" font-family="Times,serif" font-size="14.00" fill="#000000">DemandService</text>
</g>
<!-- DemandService&#45;&gt;DemandModule -->
<g id="edge10" class="edge">
<title>DemandService&#45;&gt;DemandModule</title>
<path fill="none" stroke="#000000" d="M2733.4495,-190.5675C2733.4495,-211.4502 2733.4495,-256 2733.4495,-256 2733.4495,-256 2734.3457,-256 2734.3457,-256"/>
<polygon fill="#000000" stroke="#000000" points="2732.4115,-259.5001 2742.4115,-256 2732.4114,-252.5001 2732.4115,-259.5001"/>
</g>
<!-- LocationService -->
<g id="node12" class="node">
<title>LocationService</title>
<ellipse fill="#fdb462" stroke="#000000" cx="2861" cy="-180" rx="74.1354" ry="18"/>
<text text-anchor="middle" x="2861" y="-175.8" font-family="Times,serif" font-size="14.00" fill="#000000">LocationService</text>
</g>
<!-- LocationService&#45;&gt;LocationModule -->
<g id="edge11" class="edge">
<title>LocationService&#45;&gt;LocationModule</title>
<path fill="none" stroke="#000000" d="M2901.3306,-195.3797C2901.3306,-195.3797 2901.3306,-227.971 2901.3306,-227.971"/>
<polygon fill="#000000" stroke="#000000" points="2897.8307,-227.971 2901.3306,-237.971 2904.8307,-227.971 2897.8307,-227.971"/>
</g>
<!-- WeatherModule -->
<g id="node13" class="node">
<title>WeatherModule</title>
<polygon fill="#8dd3c7" stroke="#000000" points="3253.4594,-198 3250.4594,-202 3229.4594,-202 3226.4594,-198 3146.5406,-198 3146.5406,-162 3253.4594,-162 3253.4594,-198"/>
<text text-anchor="middle" x="3200" y="-175.8" font-family="Times,serif" font-size="14.00" fill="#000000">WeatherModule</text>
</g>
<!-- WeatherModule&#45;&gt;NetworkModule -->
<g id="edge12" class="edge">
<title>WeatherModule&#45;&gt;NetworkModule</title>
<path fill="none" stroke="#000000" d="M3194.5102,-198.1097C3194.5102,-207.897 3194.5102,-218 3194.5102,-218 3194.5102,-218 3067.0881,-218 3067.0881,-218 3067.0881,-218 3067.0881,-227.8903 3067.0881,-227.8903"/>
<polygon fill="#000000" stroke="#000000" points="3063.5882,-227.8903 3067.0881,-237.8903 3070.5882,-227.8904 3063.5882,-227.8903"/>
</g>
<!-- NetworkService -->
<g id="node14" class="node">
<title>NetworkService</title>
<ellipse fill="#fdb462" stroke="#000000" cx="3049" cy="-180" rx="73.5541" ry="18"/>
<text text-anchor="middle" x="3049" y="-175.8" font-family="Times,serif" font-size="14.00" fill="#000000">NetworkService</text>
</g>
<!-- NetworkService&#45;&gt;NetworkModule -->
<g id="edge13" class="edge">
<title>NetworkService&#45;&gt;NetworkModule</title>
<path fill="none" stroke="#000000" d="M3030.9119,-197.627C3030.9119,-197.627 3030.9119,-227.9409 3030.9119,-227.9409"/>
<polygon fill="#000000" stroke="#000000" points="3027.412,-227.9408 3030.9119,-237.9409 3034.412,-227.9409 3027.412,-227.9408"/>
</g>
<!-- FooterComponent -->
<g id="node15" class="node">
<title>FooterComponent</title>
<polygon fill="#ffffb3" stroke="#000000" points="4649.8809,-342 4532.1191,-342 4532.1191,-306 4649.8809,-306 4649.8809,-342"/>
<text text-anchor="middle" x="4591" y="-319.8" font-family="Times,serif" font-size="14.00" fill="#000000">FooterComponent</text>
</g>
<!-- FooterComponent&#45;&gt;SharedModule -->
<g id="edge14" class="edge">
<title>FooterComponent&#45;&gt;SharedModule</title>
<path fill="none" stroke="#000000" d="M4591,-305.8015C4591,-281.6437 4591,-242 4591,-242 4591,-242 3369.4318,-242 3369.4318,-242"/>
<polygon fill="#000000" stroke="#000000" points="3369.4318,-238.5001 3359.4318,-242 3369.4318,-245.5001 3369.4318,-238.5001"/>
</g>
<!-- InfoDialogComponent -->
<g id="node16" class="node">
<title>InfoDialogComponent</title>
<polygon fill="#ffffb3" stroke="#000000" points="4514.2562,-342 4371.7438,-342 4371.7438,-306 4514.2562,-306 4514.2562,-342"/>
<text text-anchor="middle" x="4443" y="-319.8" font-family="Times,serif" font-size="14.00" fill="#000000">InfoDialogComponent</text>
</g>
<!-- InfoDialogComponent&#45;&gt;SharedModule -->
<g id="edge15" class="edge">
<title>InfoDialogComponent&#45;&gt;SharedModule</title>
<path fill="none" stroke="#000000" d="M4443,-305.9092C4443,-282.8672 4443,-246 4443,-246 4443,-246 3369.4121,-246 3369.4121,-246"/>
<polygon fill="#000000" stroke="#000000" points="3369.4122,-242.5001 3359.4121,-246 3369.4121,-249.5001 3369.4122,-242.5001"/>
</g>
<!-- MessageArchivedComponent -->
<g id="node17" class="node">
<title>MessageArchivedComponent</title>
<polygon fill="#ffffb3" stroke="#000000" points="4353.3974,-342 4170.6026,-342 4170.6026,-306 4353.3974,-306 4353.3974,-342"/>
<text text-anchor="middle" x="4262" y="-319.8" font-family="Times,serif" font-size="14.00" fill="#000000">MessageArchivedComponent</text>
</g>
<!-- MessageArchivedComponent&#45;&gt;SharedModule -->
<g id="edge16" class="edge">
<title>MessageArchivedComponent&#45;&gt;SharedModule</title>
<path fill="none" stroke="#000000" d="M4262,-305.7079C4262,-283.7943 4262,-250 4262,-250 4262,-250 3369.5106,-250 3369.5106,-250"/>
<polygon fill="#000000" stroke="#000000" points="3369.5107,-246.5001 3359.5106,-250 3369.5106,-253.5001 3369.5107,-246.5001"/>
</g>
<!-- MaterialModule -->
<g id="node18" class="node">
<title>MaterialModule</title>
<polygon fill="#8dd3c7" stroke="#000000" points="4147.4706,-342 4144.4706,-346 4123.4706,-346 4120.4706,-342 4040.5294,-342 4040.5294,-306 4147.4706,-306 4147.4706,-342"/>
<text text-anchor="middle" x="4094" y="-319.8" font-family="Times,serif" font-size="14.00" fill="#000000">MaterialModule</text>
</g>
<!-- MaterialModule&#45;&gt;SharedModule -->
<g id="edge17" class="edge">
<title>MaterialModule&#45;&gt;SharedModule</title>
<path fill="none" stroke="#000000" d="M4094,-305.9733C4094,-285.2328 4094,-254 4094,-254 4094,-254 3369.3397,-254 3369.3397,-254"/>
<polygon fill="#000000" stroke="#000000" points="3369.3397,-250.5001 3359.3397,-254 3369.3397,-257.5001 3369.3397,-250.5001"/>
</g>
<!-- SimulationService -->
<g id="node23" class="node">
<title>SimulationService</title>
<ellipse fill="#fdb462" stroke="#000000" cx="3375" cy="-180" rx="82.2584" ry="18"/>
<text text-anchor="middle" x="3375" y="-175.8" font-family="Times,serif" font-size="14.00" fill="#000000">SimulationService</text>
</g>
<!-- SimulationService&#45;&gt;SimulationModule -->
<g id="edge22" class="edge">
<title>SimulationService&#45;&gt;SimulationModule</title>
<path fill="none" stroke="#000000" d="M3292.4979,-180C3272.6894,-180 3257.1343,-180 3257.1343,-180 3257.1343,-180 3257.1343,-256 3257.1343,-256 3257.1343,-256 3252.6477,-256 3252.6477,-256"/>
<polygon fill="#000000" stroke="#000000" points="3252.6477,-252.5001 3242.6477,-256 3252.6476,-259.5001 3252.6477,-252.5001"/>
</g>
<!-- ChangeOfConditionsComponent -->
<g id="node24" class="node">
<title>ChangeOfConditionsComponent</title>
<polygon fill="#ffffb3" stroke="#000000" points="2293.3187,-274 2092.6813,-274 2092.6813,-238 2293.3187,-238 2293.3187,-274"/>
<text text-anchor="middle" x="2193" y="-251.8" font-family="Times,serif" font-size="14.00" fill="#000000">ChangeOfConditionsComponent</text>
</g>
<!-- ChangeOfConditionsComponent&#45;&gt;UiModule -->
<g id="edge23" class="edge">
<title>ChangeOfConditionsComponent&#45;&gt;UiModule</title>
<path fill="none" stroke="#000000" d="M2193,-274.0098C2193,-298.4207 2193,-339 2193,-339 2193,-339 1128.6485,-339 1128.6485,-339"/>
<polygon fill="#000000" stroke="#000000" points="1128.6485,-335.5001 1118.6485,-339 1128.6485,-342.5001 1128.6485,-335.5001"/>
</g>
<!-- EstimateOfDemandComponent -->
<g id="node25" class="node">
<title>EstimateOfDemandComponent</title>
<polygon fill="#ffffb3" stroke="#000000" points="2075.0154,-274 1882.9846,-274 1882.9846,-238 2075.0154,-238 2075.0154,-274"/>
<text text-anchor="middle" x="1979" y="-251.8" font-family="Times,serif" font-size="14.00" fill="#000000">EstimateOfDemandComponent</text>
</g>
<!-- EstimateOfDemandComponent&#45;&gt;UiModule -->
<g id="edge24" class="edge">
<title>EstimateOfDemandComponent&#45;&gt;UiModule</title>
<path fill="none" stroke="#000000" d="M1979,-274.3228C1979,-297.6602 1979,-335 1979,-335 1979,-335 1128.5546,-335 1128.5546,-335"/>
<polygon fill="#000000" stroke="#000000" points="1128.5546,-331.5001 1118.5546,-335 1128.5546,-338.5001 1128.5546,-331.5001"/>
</g>
<!-- GoogleMapComponent -->
<g id="node26" class="node">
<title>GoogleMapComponent</title>
<polygon fill="#ffffb3" stroke="#000000" points="1865.2035,-274 1716.7965,-274 1716.7965,-238 1865.2035,-238 1865.2035,-274"/>
<text text-anchor="middle" x="1791" y="-251.8" font-family="Times,serif" font-size="14.00" fill="#000000">GoogleMapComponent</text>
</g>
<!-- GoogleMapComponent&#45;&gt;UiModule -->
<g id="edge25" class="edge">
<title>GoogleMapComponent&#45;&gt;UiModule</title>
<path fill="none" stroke="#000000" d="M1791,-274.0109C1791,-296.4852 1791,-332 1791,-332 1791,-332 1128.6259,-332 1128.6259,-332"/>
<polygon fill="#000000" stroke="#000000" points="1128.626,-328.5001 1118.6259,-332 1128.6259,-335.5001 1128.626,-328.5001"/>
</g>
<!-- MapComponent -->
<g id="node27" class="node">
<title>MapComponent</title>
<polygon fill="#ffffb3" stroke="#000000" points="1698.4916,-274 1591.5084,-274 1591.5084,-238 1698.4916,-238 1698.4916,-274"/>
<text text-anchor="middle" x="1645" y="-251.8" font-family="Times,serif" font-size="14.00" fill="#000000">MapComponent</text>
</g>
<!-- MapComponent&#45;&gt;UiModule -->
<g id="edge26" class="edge">
<title>MapComponent&#45;&gt;UiModule</title>
<path fill="none" stroke="#000000" d="M1645,-274.1686C1645,-295.498 1645,-328 1645,-328 1645,-328 1128.94,-328 1128.94,-328"/>
<polygon fill="#000000" stroke="#000000" points="1128.94,-324.5001 1118.94,-328 1128.94,-331.5001 1128.94,-324.5001"/>
</g>
<!-- SearchForTheAreaComponent -->
<g id="node28" class="node">
<title>SearchForTheAreaComponent</title>
<polygon fill="#ffffb3" stroke="#000000" points="1573.8263,-274 1386.1737,-274 1386.1737,-238 1573.8263,-238 1573.8263,-274"/>
<text text-anchor="middle" x="1480" y="-251.8" font-family="Times,serif" font-size="14.00" fill="#000000">SearchForTheAreaComponent</text>
</g>
<!-- SearchForTheAreaComponent&#45;&gt;UiModule -->
<g id="edge27" class="edge">
<title>SearchForTheAreaComponent&#45;&gt;UiModule</title>
<path fill="none" stroke="#000000" d="M1480,-274.2228C1480,-294.3652 1480,-324 1480,-324 1480,-324 1128.7295,-324 1128.7295,-324"/>
<polygon fill="#000000" stroke="#000000" points="1128.7295,-320.5001 1118.7295,-324 1128.7295,-327.5001 1128.7295,-320.5001"/>
</g>
<!-- SelectionOfTheAreaComponent -->
<g id="node29" class="node">
<title>SelectionOfTheAreaComponent</title>
<polygon fill="#ffffb3" stroke="#000000" points="1368.6615,-274 1171.3385,-274 1171.3385,-238 1368.6615,-238 1368.6615,-274"/>
<text text-anchor="middle" x="1270" y="-251.8" font-family="Times,serif" font-size="14.00" fill="#000000">SelectionOfTheAreaComponent</text>
</g>
<!-- SelectionOfTheAreaComponent&#45;&gt;UiModule -->
<g id="edge28" class="edge">
<title>SelectionOfTheAreaComponent&#45;&gt;UiModule</title>
<path fill="none" stroke="#000000" d="M1270,-274.1061C1270,-293.3391 1270,-321 1270,-321 1270,-321 1128.6946,-321 1128.6946,-321"/>
<polygon fill="#000000" stroke="#000000" points="1128.6946,-317.5001 1118.6946,-321 1128.6946,-324.5001 1128.6946,-317.5001"/>
</g>
<!-- SimulationComponent -->
<g id="node30" class="node">
<title>SimulationComponent</title>
<polygon fill="#ffffb3" stroke="#000000" points="1153.2828,-274 1010.7172,-274 1010.7172,-238 1153.2828,-238 1153.2828,-274"/>
<text text-anchor="middle" x="1082" y="-251.8" font-family="Times,serif" font-size="14.00" fill="#000000">SimulationComponent</text>
</g>
<!-- SimulationComponent&#45;&gt;UiModule -->
<g id="edge29" class="edge">
<title>SimulationComponent&#45;&gt;UiModule</title>
<path fill="none" stroke="#000000" d="M1069.7422,-274.2228C1069.7422,-274.2228 1069.7422,-295.7269 1069.7422,-295.7269"/>
<polygon fill="#000000" stroke="#000000" points="1066.2423,-295.7269 1069.7422,-305.7269 1073.2423,-295.727 1066.2423,-295.7269"/>
</g>
<!-- StatisticsComponent -->
<g id="node31" class="node">
<title>StatisticsComponent</title>
<polygon fill="#ffffb3" stroke="#000000" points="992.8864,-274 861.1136,-274 861.1136,-238 992.8864,-238 992.8864,-274"/>
<text text-anchor="middle" x="927" y="-251.8" font-family="Times,serif" font-size="14.00" fill="#000000">StatisticsComponent</text>
</g>
<!-- StatisticsComponent&#45;&gt;UiModule -->
<g id="edge30" class="edge">
<title>StatisticsComponent&#45;&gt;UiModule</title>
<path fill="none" stroke="#000000" d="M927,-274.0091C927,-290.0494 927,-311 927,-311 927,-311 1035.2672,-311 1035.2672,-311"/>
<polygon fill="#000000" stroke="#000000" points="1035.2672,-314.5001 1045.2672,-311 1035.2671,-307.5001 1035.2672,-314.5001"/>
</g>
<!-- UiComponent -->
<g id="node32" class="node">
<title>UiComponent</title>
<polygon fill="#ffffb3" stroke="#000000" points="842.8302,-274 747.1698,-274 747.1698,-238 842.8302,-238 842.8302,-274"/>
<text text-anchor="middle" x="795" y="-251.8" font-family="Times,serif" font-size="14.00" fill="#000000">UiComponent</text>
</g>
<!-- UiComponent&#45;&gt;UiModule -->
<g id="edge31" class="edge">
<title>UiComponent&#45;&gt;UiModule</title>
<path fill="none" stroke="#000000" d="M795,-274.0225C795,-291.3734 795,-315 795,-315 795,-315 1035.3597,-315 1035.3597,-315"/>
<polygon fill="#000000" stroke="#000000" points="1035.3598,-318.5001 1045.3597,-315 1035.3597,-311.5001 1035.3598,-318.5001"/>
</g>
<!-- WeatherComponent -->
<g id="node33" class="node">
<title>WeatherComponent</title>
<polygon fill="#ffffb3" stroke="#000000" points="729.2423,-274 600.7577,-274 600.7577,-238 729.2423,-238 729.2423,-274"/>
<text text-anchor="middle" x="665" y="-251.8" font-family="Times,serif" font-size="14.00" fill="#000000">WeatherComponent</text>
</g>
<!-- WeatherComponent&#45;&gt;UiModule -->
<g id="edge32" class="edge">
<title>WeatherComponent&#45;&gt;UiModule</title>
<path fill="none" stroke="#000000" d="M665,-274.1686C665,-293.0898 665,-320 665,-320 665,-320 1035.3595,-320 1035.3595,-320"/>
<polygon fill="#000000" stroke="#000000" points="1035.3595,-323.5001 1045.3595,-320 1035.3595,-316.5001 1035.3595,-323.5001"/>
</g>
<!-- WizardComponent -->
<g id="node34" class="node">
<title>WizardComponent</title>
<polygon fill="#ffffb3" stroke="#000000" points="582.0283,-274 459.9717,-274 459.9717,-238 582.0283,-238 582.0283,-274"/>
<text text-anchor="middle" x="521" y="-251.8" font-family="Times,serif" font-size="14.00" fill="#000000">WizardComponent</text>
</g>
<!-- WizardComponent&#45;&gt;UiModule -->
<g id="edge33" class="edge">
<title>WizardComponent&#45;&gt;UiModule</title>
<path fill="none" stroke="#000000" d="M521,-274.2228C521,-294.3652 521,-324 521,-324 521,-324 1035.1912,-324 1035.1912,-324"/>
<polygon fill="#000000" stroke="#000000" points="1035.1913,-327.5001 1045.1912,-324 1035.1912,-320.5001 1035.1913,-327.5001"/>
</g>
<!-- UiRoutingModule -->
<g id="node36" class="node">
<title>UiRoutingModule</title>
<polygon fill="#8dd3c7" stroke="#000000" points="436.1653,-274 433.1653,-278 412.1653,-278 409.1653,-274 317.8347,-274 317.8347,-238 436.1653,-238 436.1653,-274"/>
<text text-anchor="middle" x="377" y="-251.8" font-family="Times,serif" font-size="14.00" fill="#000000">UiRoutingModule</text>
</g>
<!-- UiRoutingModule&#45;&gt;UiModule -->
<g id="edge35" class="edge">
<title>UiRoutingModule&#45;&gt;UiModule</title>
<path fill="none" stroke="#000000" d="M377,-274.0449C377,-295.6623 377,-329 377,-329 377,-329 1035.0888,-329 1035.0888,-329"/>
<polygon fill="#000000" stroke="#000000" points="1035.0888,-332.5001 1045.0888,-329 1035.0887,-325.5001 1035.0888,-332.5001"/>
</g>
<!-- MapService -->
<g id="node37" class="node">
<title>MapService</title>
<ellipse fill="#fdb462" stroke="#000000" cx="236" cy="-256" rx="57.8829" ry="18"/>
<text text-anchor="middle" x="236" y="-251.8" font-family="Times,serif" font-size="14.00" fill="#000000">MapService</text>
</g>
<!-- MapService&#45;&gt;UiModule -->
<g id="edge36" class="edge">
<title>MapService&#45;&gt;UiModule</title>
<path fill="none" stroke="#000000" d="M236,-274.2479C236,-297.0179 236,-333 236,-333 236,-333 1035.3769,-333 1035.3769,-333"/>
<polygon fill="#000000" stroke="#000000" points="1035.3769,-336.5001 1045.3769,-333 1035.3769,-329.5001 1035.3769,-336.5001"/>
</g>
<!-- WizardService -->
<g id="node38" class="node">
<title>WizardService</title>
<ellipse fill="#fdb462" stroke="#000000" cx="92" cy="-256" rx="68.315" ry="18"/>
<text text-anchor="middle" x="92" y="-251.8" font-family="Times,serif" font-size="14.00" fill="#000000">WizardService</text>
</g>
<!-- WizardService&#45;&gt;UiModule -->
<g id="edge37" class="edge">
<title>WizardService&#45;&gt;UiModule</title>
<path fill="none" stroke="#000000" d="M92,-274.1985C92,-298.3563 92,-338 92,-338 92,-338 1035.295,-338 1035.295,-338"/>
<polygon fill="#000000" stroke="#000000" points="1035.295,-341.5001 1045.295,-338 1035.295,-334.5001 1035.295,-341.5001"/>
</g>
<!-- WeatherService -->
<g id="node39" class="node">
<title>WeatherService</title>
<ellipse fill="#fdb462" stroke="#000000" cx="3200" cy="-104" rx="72.8889" ry="18"/>
<text text-anchor="middle" x="3200" y="-99.8" font-family="Times,serif" font-size="14.00" fill="#000000">WeatherService</text>
</g>
<!-- WeatherService&#45;&gt;WeatherModule -->
<g id="edge38" class="edge">
<title>WeatherService&#45;&gt;WeatherModule</title>
<path fill="none" stroke="#000000" d="M3200,-122.0109C3200,-122.0109 3200,-151.855 3200,-151.855"/>
<polygon fill="#000000" stroke="#000000" points="3196.5001,-151.8549 3200,-161.855 3203.5001,-151.855 3196.5001,-151.8549"/>
</g>
</g>
</svg>
