<?xml version="1.0" encoding="UTF-8" standalone="no"?>
<!DOCTYPE svg PUBLIC "-//W3C//DTD SVG 1.1//EN"
 "http://www.w3.org/Graphics/SVG/1.1/DTD/svg11.dtd">
<!-- Generated by graphviz version 2.40.1 (20161225.0304)
 -->
<!-- Title: dependencies Pages: 1 -->
<svg width="4991pt" height="442pt"
 viewBox="0.00 0.00 4991.00 442.00" xmlns="http://www.w3.org/2000/svg" xmlns:xlink="http://www.w3.org/1999/xlink">
<g id="graph0" class="graph" transform="scale(1 1) rotate(0) translate(4 438)">
<title>dependencies</title>
<polygon fill="#ffffff" stroke="transparent" points="-4,4 -4,-438 4987,-438 4987,4 -4,4"/>
<text text-anchor="start" x="2470.5091" y="-42.4" font-family="sans-serif" font-weight="bold" font-size="14.00" fill="#000000">Legend</text>
<polygon fill="#ffffb3" stroke="transparent" points="2257.5,-10 2257.5,-30 2277.5,-30 2277.5,-10 2257.5,-10"/>
<text text-anchor="start" x="2281.129" y="-15.4" font-family="sans-serif" font-size="14.00" fill="#000000"> &#160;Declarations</text>
<polygon fill="#8dd3c7" stroke="transparent" points="2370.5,-10 2370.5,-30 2390.5,-30 2390.5,-10 2370.5,-10"/>
<text text-anchor="start" x="2394.2251" y="-15.4" font-family="sans-serif" font-size="14.00" fill="#000000"> &#160;Module</text>
<polygon fill="#80b1d3" stroke="transparent" points="2456.5,-10 2456.5,-30 2476.5,-30 2476.5,-10 2456.5,-10"/>
<text text-anchor="start" x="2480.2812" y="-15.4" font-family="sans-serif" font-size="14.00" fill="#000000"> &#160;Bootstrap</text>
<polygon fill="#fdb462" stroke="transparent" points="2553.5,-10 2553.5,-30 2573.5,-30 2573.5,-10 2553.5,-10"/>
<text text-anchor="start" x="2577.1732" y="-15.4" font-family="sans-serif" font-size="14.00" fill="#000000"> &#160;Providers</text>
<polygon fill="#fb8072" stroke="transparent" points="2649.5,-10 2649.5,-30 2669.5,-30 2669.5,-10 2649.5,-10"/>
<text text-anchor="start" x="2673.2258" y="-15.4" font-family="sans-serif" font-size="14.00" fill="#000000"> &#160;Exports</text>
<g id="clust1" class="cluster">
<title>cluster_AppModule</title>
<polygon fill="none" stroke="#000000" stroke-dasharray="1,5" points="2492,-222 2492,-426 3684,-426 3684,-222 2492,-222"/>
</g>
<g id="clust2" class="cluster">
<title>cluster_AppModule_declarations</title>
<polygon fill="none" stroke="#000000" points="2500,-230 2500,-282 2889,-282 2889,-230 2500,-230"/>
</g>
<g id="clust6" class="cluster">
<title>cluster_AppModule_imports</title>
<polygon fill="none" stroke="#000000" points="2897,-230 2897,-282 3676,-282 3676,-230 2897,-230"/>
</g>
<g id="clust8" class="cluster">
<title>cluster_AppModule_bootstrap</title>
<polygon fill="none" stroke="#000000" points="3043,-366 3043,-418 3167,-418 3167,-366 3043,-366"/>
</g>
<g id="clust16" class="cluster">
<title>cluster_DemandModule</title>
<polygon fill="none" stroke="#000000" stroke-dasharray="1,5" points="2894,-146 2894,-214 3072,-214 3072,-146 2894,-146"/>
</g>
<g id="clust21" class="cluster">
<title>cluster_DemandModule_providers</title>
<polygon fill="none" stroke="#000000" points="2902,-154 2902,-206 3064,-206 3064,-154 2902,-154"/>
</g>
<g id="clust22" class="cluster">
<title>cluster_LocationModule</title>
<polygon fill="none" stroke="#000000" stroke-dasharray="1,5" points="3080,-146 3080,-214 3260,-214 3260,-146 3080,-146"/>
</g>
<g id="clust27" class="cluster">
<title>cluster_LocationModule_providers</title>
<polygon fill="none" stroke="#000000" points="3088,-154 3088,-206 3252,-206 3252,-154 3088,-154"/>
</g>
<g id="clust34" class="cluster">
<title>cluster_NetworkModule</title>
<polygon fill="none" stroke="#000000" stroke-dasharray="1,5" points="3268,-146 3268,-214 3578,-214 3578,-146 3268,-146"/>
</g>
<g id="clust36" class="cluster">
<title>cluster_NetworkModule_imports</title>
<polygon fill="none" stroke="#000000" points="3448,-154 3448,-206 3570,-206 3570,-154 3448,-154"/>
</g>
<g id="clust39" class="cluster">
<title>cluster_NetworkModule_providers</title>
<polygon fill="none" stroke="#000000" points="3276,-154 3276,-206 3440,-206 3440,-154 3276,-154"/>
</g>
<g id="clust40" class="cluster">
<title>cluster_SharedModule</title>
<polygon fill="none" stroke="#000000" stroke-dasharray="1,5" points="3692,-290 3692,-358 4975,-358 4975,-290 3692,-290"/>
</g>
<g id="clust41" class="cluster">
<title>cluster_SharedModule_declarations</title>
<polygon fill="none" stroke="#000000" points="4472,-298 4472,-350 4967,-350 4967,-298 4472,-298"/>
</g>
<g id="clust45" class="cluster">
<title>cluster_SharedModule_imports</title>
<polygon fill="none" stroke="#000000" points="4342,-298 4342,-350 4464,-350 4464,-298 4342,-298"/>
</g>
<g id="clust46" class="cluster">
<title>cluster_SharedModule_exports</title>
<polygon fill="none" stroke="#000000" points="3700,-298 3700,-350 4334,-350 4334,-298 3700,-298"/>
</g>
<g id="clust49" class="cluster">
<title>cluster_SimulationModule</title>
<polygon fill="none" stroke="#000000" stroke-dasharray="1,5" points="3586,-146 3586,-214 3782,-214 3782,-146 3586,-146"/>
</g>
<g id="clust54" class="cluster">
<title>cluster_SimulationModule_providers</title>
<polygon fill="none" stroke="#000000" points="3594,-154 3594,-206 3774,-206 3774,-154 3594,-154"/>
</g>
<g id="clust55" class="cluster">
<title>cluster_UiModule</title>
<polygon fill="none" stroke="#000000" stroke-dasharray="1,5" points="8,-222 8,-350 2484,-350 2484,-222 8,-222"/>
</g>
<g id="clust56" class="cluster">
<title>cluster_UiModule_declarations</title>
<polygon fill="none" stroke="#000000" points="627,-230 627,-282 2476,-282 2476,-230 627,-230"/>
</g>
<g id="clust68" class="cluster">
<title>cluster_UiModule_imports</title>
<polygon fill="none" stroke="#000000" points="485,-230 485,-282 619,-282 619,-230 485,-230"/>
</g>
<g id="clust71" class="cluster">
<title>cluster_UiModule_providers</title>
<polygon fill="none" stroke="#000000" points="16,-230 16,-282 477,-282 477,-230 16,-230"/>
</g>
<g id="clust78" class="cluster">
<title>cluster_WeatherModule</title>
<polygon fill="none" stroke="#000000" stroke-dasharray="1,5" points="3420,-70 3420,-138 3598,-138 3598,-70 3420,-70"/>
</g>
<g id="clust83" class="cluster">
<title>cluster_WeatherModule_providers</title>
<polygon fill="none" stroke="#000000" points="3428,-78 3428,-130 3590,-130 3590,-78 3428,-78"/>
</g>
<!-- AboutComponent -->
<g id="node1" class="node">
<title>AboutComponent</title>
<polygon fill="#ffffb3" stroke="#000000" points="2881.3301,-274 2764.6699,-274 2764.6699,-238 2881.3301,-238 2881.3301,-274"/>
<text text-anchor="middle" x="2823" y="-251.8" font-family="Times,serif" font-size="14.00" fill="#000000">AboutComponent</text>
</g>
<!-- AppModule -->
<g id="node4" class="node">
<title>AppModule</title>
<polygon fill="#8dd3c7" stroke="#000000" points="3146.6571,-342 3143.6571,-346 3122.6571,-346 3119.6571,-342 3063.3429,-342 3063.3429,-306 3146.6571,-306 3146.6571,-342"/>
<text text-anchor="middle" x="3105" y="-319.8" font-family="Times,serif" font-size="14.00" fill="#000000">AppModule</text>
</g>
<!-- AboutComponent&#45;&gt;AppModule -->
<g id="edge1" class="edge">
<title>AboutComponent&#45;&gt;AppModule</title>
<path fill="none" stroke="#000000" d="M2823,-274.2479C2823,-297.0179 2823,-333 2823,-333 2823,-333 3053.0863,-333 3053.0863,-333"/>
<polygon fill="#000000" stroke="#000000" points="3053.0863,-336.5001 3063.0863,-333 3053.0862,-329.5001 3053.0863,-336.5001"/>
</g>
<!-- AppComponent -->
<g id="node2" class="node">
<title>AppComponent</title>
<polygon fill="#ffffb3" stroke="#000000" points="2746.9399,-274 2641.0601,-274 2641.0601,-238 2746.9399,-238 2746.9399,-274"/>
<text text-anchor="middle" x="2694" y="-251.8" font-family="Times,serif" font-size="14.00" fill="#000000">AppComponent</text>
</g>
<!-- AppComponent&#45;&gt;AppModule -->
<g id="edge2" class="edge">
<title>AppComponent&#45;&gt;AppModule</title>
<path fill="none" stroke="#000000" d="M2694,-274.1532C2694,-297.7566 2694,-336 2694,-336 2694,-336 3053.3293,-336 3053.3293,-336"/>
<polygon fill="#000000" stroke="#000000" points="3053.3294,-339.5001 3063.3293,-336 3053.3293,-332.5001 3053.3294,-339.5001"/>
</g>
<!-- HomeComponent -->
<g id="node3" class="node">
<title>HomeComponent</title>
<polygon fill="#ffffb3" stroke="#000000" points="2623.5451,-274 2508.4549,-274 2508.4549,-238 2623.5451,-238 2623.5451,-274"/>
<text text-anchor="middle" x="2566" y="-251.8" font-family="Times,serif" font-size="14.00" fill="#000000">HomeComponent</text>
</g>
<!-- HomeComponent&#45;&gt;AppModule -->
<g id="edge3" class="edge">
<title>HomeComponent&#45;&gt;AppModule</title>
<path fill="none" stroke="#000000" d="M2566,-274.0098C2566,-298.4207 2566,-339 2566,-339 2566,-339 3053.1541,-339 3053.1541,-339"/>
<polygon fill="#000000" stroke="#000000" points="3053.1541,-342.5001 3063.1541,-339 3053.154,-335.5001 3053.1541,-342.5001"/>
</g>
<!-- AppComponent  -->
<g id="node11" class="node">
<title>AppComponent </title>
<polygon fill="#80b1d3" stroke="#000000" points="3159.439,-410 3050.561,-410 3050.561,-374 3159.439,-374 3159.439,-410"/>
<text text-anchor="middle" x="3105" y="-387.8" font-family="Times,serif" font-size="14.00" fill="#000000">AppComponent </text>
</g>
<!-- AppModule&#45;&gt;AppComponent  -->
<g id="edge10" class="edge">
<title>AppModule&#45;&gt;AppComponent </title>
<path fill="none" stroke="#000000" stroke-dasharray="1,5" d="M3105,-342.2228C3105,-342.2228 3105,-363.7269 3105,-363.7269"/>
<polygon fill="#000000" stroke="#000000" points="3101.5001,-363.7269 3105,-373.7269 3108.5001,-363.727 3101.5001,-363.7269"/>
</g>
<!-- AppRoutingModule -->
<g id="node5" class="node">
<title>AppRoutingModule</title>
<polygon fill="#8dd3c7" stroke="#000000" points="3033.2744,-274 3030.2744,-278 3009.2744,-278 3006.2744,-274 2904.7256,-274 2904.7256,-238 3033.2744,-238 3033.2744,-274"/>
<text text-anchor="middle" x="2969" y="-251.8" font-family="Times,serif" font-size="14.00" fill="#000000">AppRoutingModule</text>
</g>
<!-- AppRoutingModule&#45;&gt;AppModule -->
<g id="edge4" class="edge">
<title>AppRoutingModule&#45;&gt;AppModule</title>
<path fill="none" stroke="#000000" d="M2969,-274.0449C2969,-295.6623 2969,-329 2969,-329 2969,-329 3053.0858,-329 3053.0858,-329"/>
<polygon fill="#000000" stroke="#000000" points="3053.0858,-332.5001 3063.0858,-329 3053.0858,-325.5001 3053.0858,-332.5001"/>
</g>
<!-- DemandModule -->
<g id="node6" class="node">
<title>DemandModule</title>
<polygon fill="#8dd3c7" stroke="#000000" points="3158.4762,-274 3155.4762,-278 3134.4762,-278 3131.4762,-274 3051.5238,-274 3051.5238,-238 3158.4762,-238 3158.4762,-274"/>
<text text-anchor="middle" x="3105" y="-251.8" font-family="Times,serif" font-size="14.00" fill="#000000">DemandModule</text>
</g>
<!-- DemandModule&#45;&gt;AppModule -->
<g id="edge5" class="edge">
<title>DemandModule&#45;&gt;AppModule</title>
<path fill="none" stroke="#000000" d="M3105,-274.2228C3105,-274.2228 3105,-295.7269 3105,-295.7269"/>
<polygon fill="#000000" stroke="#000000" points="3101.5001,-295.7269 3105,-305.7269 3108.5001,-295.727 3101.5001,-295.7269"/>
</g>
<!-- LocationModule -->
<g id="node7" class="node">
<title>LocationModule</title>
<polygon fill="#8dd3c7" stroke="#000000" points="3285.8132,-274 3282.8132,-278 3261.8132,-278 3258.8132,-274 3176.1868,-274 3176.1868,-238 3285.8132,-238 3285.8132,-274"/>
<text text-anchor="middle" x="3231" y="-251.8" font-family="Times,serif" font-size="14.00" fill="#000000">LocationModule</text>
</g>
<!-- LocationModule&#45;&gt;AppModule -->
<g id="edge6" class="edge">
<title>LocationModule&#45;&gt;AppModule</title>
<path fill="none" stroke="#000000" d="M3231,-274.0336C3231,-291.0597 3231,-314 3231,-314 3231,-314 3156.9562,-314 3156.9562,-314"/>
<polygon fill="#000000" stroke="#000000" points="3156.9562,-310.5001 3146.9562,-314 3156.9561,-317.5001 3156.9562,-310.5001"/>
</g>
<!-- NetworkModule -->
<g id="node8" class="node">
<title>NetworkModule</title>
<polygon fill="#8dd3c7" stroke="#000000" points="3412.0298,-274 3409.0298,-278 3388.0298,-278 3385.0298,-274 3303.9702,-274 3303.9702,-238 3412.0298,-238 3412.0298,-274"/>
<text text-anchor="middle" x="3358" y="-251.8" font-family="Times,serif" font-size="14.00" fill="#000000">NetworkModule</text>
</g>
<!-- NetworkModule&#45;&gt;AppModule -->
<g id="edge7" class="edge">
<title>NetworkModule&#45;&gt;AppModule</title>
<path fill="none" stroke="#000000" d="M3358,-274.1061C3358,-293.3391 3358,-321 3358,-321 3358,-321 3156.7778,-321 3156.7778,-321"/>
<polygon fill="#000000" stroke="#000000" points="3156.7778,-317.5001 3146.7778,-321 3156.7778,-324.5001 3156.7778,-317.5001"/>
</g>
<!-- SharedModule -->
<g id="node9" class="node">
<title>SharedModule</title>
<polygon fill="#8dd3c7" stroke="#000000" points="3668.4231,-274 3665.4231,-278 3644.4231,-278 3641.4231,-274 3569.5769,-274 3569.5769,-238 3668.4231,-238 3668.4231,-274"/>
<text text-anchor="middle" x="3619" y="-251.8" font-family="Times,serif" font-size="14.00" fill="#000000">SharedModule</text>
</g>
<!-- SharedModule&#45;&gt;AppModule -->
<g id="edge8" class="edge">
<title>SharedModule&#45;&gt;AppModule</title>
<path fill="none" stroke="#000000" d="M3635.4037,-274.3228C3635.4037,-297.6602 3635.4037,-335 3635.4037,-335 3635.4037,-335 3157.0632,-335 3157.0632,-335"/>
<polygon fill="#000000" stroke="#000000" points="3157.0633,-331.5001 3147.0632,-335 3157.0632,-338.5001 3157.0633,-331.5001"/>
</g>
<!-- FooterComponent  -->
<g id="node20" class="node">
<title>FooterComponent </title>
<polygon fill="#fb8072" stroke="#000000" points="4325.8814,-342 4204.1186,-342 4204.1186,-306 4325.8814,-306 4325.8814,-342"/>
<text text-anchor="middle" x="4265" y="-319.8" font-family="Times,serif" font-size="14.00" fill="#000000">FooterComponent </text>
</g>
<!-- SharedModule&#45;&gt;FooterComponent  -->
<g id="edge19" class="edge">
<title>SharedModule&#45;&gt;FooterComponent </title>
<path fill="none" stroke="#000000" stroke-dasharray="5,2" d="M3668.3512,-258C3819.363,-258 4265,-258 4265,-258 4265,-258 4265,-295.9652 4265,-295.9652"/>
<polygon fill="#000000" stroke="#000000" points="4261.5001,-295.9652 4265,-305.9652 4268.5001,-295.9652 4261.5001,-295.9652"/>
</g>
<!-- InfoDialogComponent  -->
<g id="node21" class="node">
<title>InfoDialogComponent </title>
<polygon fill="#fb8072" stroke="#000000" points="4186.2562,-342 4039.7438,-342 4039.7438,-306 4186.2562,-306 4186.2562,-342"/>
<text text-anchor="middle" x="4113" y="-319.8" font-family="Times,serif" font-size="14.00" fill="#000000">InfoDialogComponent </text>
</g>
<!-- SharedModule&#45;&gt;InfoDialogComponent  -->
<g id="edge20" class="edge">
<title>SharedModule&#45;&gt;InfoDialogComponent </title>
<path fill="none" stroke="#000000" stroke-dasharray="5,2" d="M3668.6284,-262C3793.9001,-262 4113,-262 4113,-262 4113,-262 4113,-295.7333 4113,-295.7333"/>
<polygon fill="#000000" stroke="#000000" points="4109.5001,-295.7333 4113,-305.7333 4116.5001,-295.7333 4109.5001,-295.7333"/>
</g>
<!-- MaterialModule  -->
<g id="node22" class="node">
<title>MaterialModule </title>
<polygon fill="#fb8072" stroke="#000000" points="4022.4716,-342 3911.5284,-342 3911.5284,-306 4022.4716,-306 4022.4716,-342"/>
<text text-anchor="middle" x="3967" y="-319.8" font-family="Times,serif" font-size="14.00" fill="#000000">MaterialModule </text>
</g>
<!-- SharedModule&#45;&gt;MaterialModule  -->
<g id="edge21" class="edge">
<title>SharedModule&#45;&gt;MaterialModule </title>
<path fill="none" stroke="#000000" stroke-dasharray="5,2" d="M3668.4903,-266C3764.567,-266 3967,-266 3967,-266 3967,-266 3967,-295.9664 3967,-295.9664"/>
<polygon fill="#000000" stroke="#000000" points="3963.5001,-295.9663 3967,-305.9664 3970.5001,-295.9664 3963.5001,-295.9663"/>
</g>
<!-- MessageArchivedComponent  -->
<g id="node23" class="node">
<title>MessageArchivedComponent </title>
<polygon fill="#fb8072" stroke="#000000" points="3893.897,-342 3708.103,-342 3708.103,-306 3893.897,-306 3893.897,-342"/>
<text text-anchor="middle" x="3801" y="-319.8" font-family="Times,serif" font-size="14.00" fill="#000000">MessageArchivedComponent </text>
</g>
<!-- SharedModule&#45;&gt;MessageArchivedComponent  -->
<g id="edge22" class="edge">
<title>SharedModule&#45;&gt;MessageArchivedComponent </title>
<path fill="none" stroke="#000000" stroke-dasharray="5,2" d="M3668.449,-270C3700.843,-270 3737.2153,-270 3737.2153,-270 3737.2153,-270 3737.2153,-295.7181 3737.2153,-295.7181"/>
<polygon fill="#000000" stroke="#000000" points="3733.7154,-295.718 3737.2153,-305.7181 3740.7154,-295.7181 3733.7154,-295.718"/>
</g>
<!-- UiModule -->
<g id="node36" class="node">
<title>UiModule</title>
<polygon fill="#8dd3c7" stroke="#000000" points="1299.5484,-342 1296.5484,-346 1275.5484,-346 1272.5484,-342 1226.4516,-342 1226.4516,-306 1299.5484,-306 1299.5484,-342"/>
<text text-anchor="middle" x="1263" y="-319.8" font-family="Times,serif" font-size="14.00" fill="#000000">UiModule</text>
</g>
<!-- SharedModule&#45;&gt;UiModule -->
<g id="edge35" class="edge">
<title>SharedModule&#45;&gt;UiModule</title>
<path fill="none" stroke="#000000" d="M3602.5963,-274.1944C3602.5963,-282.2782 3602.5963,-290 3602.5963,-290 3602.5963,-290 1291.2113,-290 1291.2113,-290 1291.2113,-290 1291.2113,-295.8056 1291.2113,-295.8056"/>
<polygon fill="#000000" stroke="#000000" points="1287.7114,-295.8055 1291.2113,-305.8056 1294.7114,-295.8056 1287.7114,-295.8055"/>
</g>
<!-- SimulationModule -->
<g id="node10" class="node">
<title>SimulationModule</title>
<polygon fill="#8dd3c7" stroke="#000000" points="3551.5,-274 3548.5,-278 3527.5,-278 3524.5,-274 3430.5,-274 3430.5,-238 3551.5,-238 3551.5,-274"/>
<text text-anchor="middle" x="3491" y="-251.8" font-family="Times,serif" font-size="14.00" fill="#000000">SimulationModule</text>
</g>
<!-- SimulationModule&#45;&gt;AppModule -->
<g id="edge9" class="edge">
<title>SimulationModule&#45;&gt;AppModule</title>
<path fill="none" stroke="#000000" d="M3491,-274.1686C3491,-295.498 3491,-328 3491,-328 3491,-328 3156.6755,-328 3156.6755,-328"/>
<polygon fill="#000000" stroke="#000000" points="3156.6755,-324.5001 3146.6755,-328 3156.6755,-331.5001 3156.6755,-324.5001"/>
</g>
<!-- DemandService -->
<g id="node12" class="node">
<title>DemandService</title>
<ellipse fill="#fdb462" stroke="#000000" cx="2983" cy="-180" rx="72.9121" ry="18"/>
<text text-anchor="middle" x="2983" y="-175.8" font-family="Times,serif" font-size="14.00" fill="#000000">DemandService</text>
</g>
<!-- DemandService&#45;&gt;DemandModule -->
<g id="edge11" class="edge">
<title>DemandService&#45;&gt;DemandModule</title>
<path fill="none" stroke="#000000" d="M3041.9588,-190.5675C3041.9588,-211.4502 3041.9588,-256 3041.9588,-256 3041.9588,-256 3042.889,-256 3042.889,-256"/>
<polygon fill="#000000" stroke="#000000" points="3041.2608,-259.5001 3051.2607,-256 3041.2607,-252.5001 3041.2608,-259.5001"/>
</g>
<!-- LocationService -->
<g id="node13" class="node">
<title>LocationService</title>
<ellipse fill="#fdb462" stroke="#000000" cx="3170" cy="-180" rx="74.1354" ry="18"/>
<text text-anchor="middle" x="3170" y="-175.8" font-family="Times,serif" font-size="14.00" fill="#000000">LocationService</text>
</g>
<!-- LocationService&#45;&gt;LocationModule -->
<g id="edge12" class="edge">
<title>LocationService&#45;&gt;LocationModule</title>
<path fill="none" stroke="#000000" d="M3210.3306,-195.3797C3210.3306,-195.3797 3210.3306,-227.971 3210.3306,-227.971"/>
<polygon fill="#000000" stroke="#000000" points="3206.8307,-227.971 3210.3306,-237.971 3213.8307,-227.971 3206.8307,-227.971"/>
</g>
<!-- WeatherModule -->
<g id="node14" class="node">
<title>WeatherModule</title>
<polygon fill="#8dd3c7" stroke="#000000" points="3562.4594,-198 3559.4594,-202 3538.4594,-202 3535.4594,-198 3455.5406,-198 3455.5406,-162 3562.4594,-162 3562.4594,-198"/>
<text text-anchor="middle" x="3509" y="-175.8" font-family="Times,serif" font-size="14.00" fill="#000000">WeatherModule</text>
</g>
<!-- WeatherModule&#45;&gt;NetworkModule -->
<g id="edge13" class="edge">
<title>WeatherModule&#45;&gt;NetworkModule</title>
<path fill="none" stroke="#000000" d="M3503.5102,-198.1097C3503.5102,-207.897 3503.5102,-218 3503.5102,-218 3503.5102,-218 3376.0881,-218 3376.0881,-218 3376.0881,-218 3376.0881,-227.8903 3376.0881,-227.8903"/>
<polygon fill="#000000" stroke="#000000" points="3372.5882,-227.8903 3376.0881,-237.8903 3379.5882,-227.8904 3372.5882,-227.8903"/>
</g>
<!-- NetworkService -->
<g id="node15" class="node">
<title>NetworkService</title>
<ellipse fill="#fdb462" stroke="#000000" cx="3358" cy="-180" rx="73.5541" ry="18"/>
<text text-anchor="middle" x="3358" y="-175.8" font-family="Times,serif" font-size="14.00" fill="#000000">NetworkService</text>
</g>
<!-- NetworkService&#45;&gt;NetworkModule -->
<g id="edge14" class="edge">
<title>NetworkService&#45;&gt;NetworkModule</title>
<path fill="none" stroke="#000000" d="M3339.9119,-197.627C3339.9119,-197.627 3339.9119,-227.9409 3339.9119,-227.9409"/>
<polygon fill="#000000" stroke="#000000" points="3336.412,-227.9408 3339.9119,-237.9409 3343.412,-227.9409 3336.412,-227.9408"/>
</g>
<!-- FooterComponent -->
<g id="node16" class="node">
<title>FooterComponent</title>
<polygon fill="#ffffb3" stroke="#000000" points="4597.8809,-342 4480.1191,-342 4480.1191,-306 4597.8809,-306 4597.8809,-342"/>
<text text-anchor="middle" x="4539" y="-319.8" font-family="Times,serif" font-size="14.00" fill="#000000">FooterComponent</text>
</g>
<!-- FooterComponent&#45;&gt;SharedModule -->
<g id="edge15" class="edge">
<title>FooterComponent&#45;&gt;SharedModule</title>
<path fill="none" stroke="#000000" d="M4539,-305.7079C4539,-283.7943 4539,-250 4539,-250 4539,-250 3678.4632,-250 3678.4632,-250"/>
<polygon fill="#000000" stroke="#000000" points="3678.4632,-246.5001 3668.4632,-250 3678.4632,-253.5001 3678.4632,-246.5001"/>
</g>
<!-- InfoDialogComponent -->
<g id="node17" class="node">
<title>InfoDialogComponent</title>
<polygon fill="#ffffb3" stroke="#000000" points="4959.2562,-342 4816.7438,-342 4816.7438,-306 4959.2562,-306 4959.2562,-342"/>
<text text-anchor="middle" x="4888" y="-319.8" font-family="Times,serif" font-size="14.00" fill="#000000">InfoDialogComponent</text>
</g>
<!-- InfoDialogComponent&#45;&gt;SharedModule -->
<g id="edge16" class="edge">
<title>InfoDialogComponent&#45;&gt;SharedModule</title>
<path fill="none" stroke="#000000" d="M4888,-305.8015C4888,-281.6437 4888,-242 4888,-242 4888,-242 3678.3568,-242 3678.3568,-242"/>
<polygon fill="#000000" stroke="#000000" points="3678.3569,-238.5001 3668.3568,-242 3678.3568,-245.5001 3678.3569,-238.5001"/>
</g>
<!-- MessageArchivedComponent -->
<g id="node18" class="node">
<title>MessageArchivedComponent</title>
<polygon fill="#ffffb3" stroke="#000000" points="4798.3974,-342 4615.6026,-342 4615.6026,-306 4798.3974,-306 4798.3974,-342"/>
<text text-anchor="middle" x="4707" y="-319.8" font-family="Times,serif" font-size="14.00" fill="#000000">MessageArchivedComponent</text>
</g>
<!-- MessageArchivedComponent&#45;&gt;SharedModule -->
<g id="edge17" class="edge">
<title>MessageArchivedComponent&#45;&gt;SharedModule</title>
<path fill="none" stroke="#000000" d="M4707,-305.9092C4707,-282.8672 4707,-246 4707,-246 4707,-246 3678.2189,-246 3678.2189,-246"/>
<polygon fill="#000000" stroke="#000000" points="3678.219,-242.5001 3668.2189,-246 3678.2189,-249.5001 3678.219,-242.5001"/>
</g>
<!-- MaterialModule -->
<g id="node19" class="node">
<title>MaterialModule</title>
<polygon fill="#8dd3c7" stroke="#000000" points="4456.4706,-342 4453.4706,-346 4432.4706,-346 4429.4706,-342 4349.5294,-342 4349.5294,-306 4456.4706,-306 4456.4706,-342"/>
<text text-anchor="middle" x="4403" y="-319.8" font-family="Times,serif" font-size="14.00" fill="#000000">MaterialModule</text>
</g>
<!-- MaterialModule&#45;&gt;SharedModule -->
<g id="edge18" class="edge">
<title>MaterialModule&#45;&gt;SharedModule</title>
<path fill="none" stroke="#000000" d="M4403,-305.9733C4403,-285.2328 4403,-254 4403,-254 4403,-254 3678.3397,-254 3678.3397,-254"/>
<polygon fill="#000000" stroke="#000000" points="3678.3397,-250.5001 3668.3397,-254 3678.3397,-257.5001 3678.3397,-250.5001"/>
</g>
<!-- SimulationService -->
<g id="node24" class="node">
<title>SimulationService</title>
<ellipse fill="#fdb462" stroke="#000000" cx="3684" cy="-180" rx="82.2584" ry="18"/>
<text text-anchor="middle" x="3684" y="-175.8" font-family="Times,serif" font-size="14.00" fill="#000000">SimulationService</text>
</g>
<!-- SimulationService&#45;&gt;SimulationModule -->
<g id="edge23" class="edge">
<title>SimulationService&#45;&gt;SimulationModule</title>
<path fill="none" stroke="#000000" d="M3601.4979,-180C3581.6894,-180 3566.1343,-180 3566.1343,-180 3566.1343,-180 3566.1343,-256 3566.1343,-256 3566.1343,-256 3561.6477,-256 3561.6477,-256"/>
<polygon fill="#000000" stroke="#000000" points="3561.6477,-252.5001 3551.6477,-256 3561.6476,-259.5001 3561.6477,-252.5001"/>
</g>
<!-- ChangeOfConditionsComponent -->
<g id="node25" class="node">
<title>ChangeOfConditionsComponent</title>
<polygon fill="#ffffb3" stroke="#000000" points="2181.3187,-274 1980.6813,-274 1980.6813,-238 2181.3187,-238 2181.3187,-274"/>
<text text-anchor="middle" x="2081" y="-251.8" font-family="Times,serif" font-size="14.00" fill="#000000">ChangeOfConditionsComponent</text>
</g>
<!-- ChangeOfConditionsComponent&#45;&gt;UiModule -->
<g id="edge24" class="edge">
<title>ChangeOfConditionsComponent&#45;&gt;UiModule</title>
<path fill="none" stroke="#000000" d="M2081,-274.1686C2081,-293.0898 2081,-320 2081,-320 2081,-320 1309.7369,-320 1309.7369,-320"/>
<polygon fill="#000000" stroke="#000000" points="1309.7369,-316.5001 1299.7369,-320 1309.7369,-323.5001 1309.7369,-316.5001"/>
</g>
<!-- EstimateOfDemandComponent -->
<g id="node26" class="node">
<title>EstimateOfDemandComponent</title>
<polygon fill="#ffffb3" stroke="#000000" points="1963.0154,-274 1770.9846,-274 1770.9846,-238 1963.0154,-238 1963.0154,-274"/>
<text text-anchor="middle" x="1867" y="-251.8" font-family="Times,serif" font-size="14.00" fill="#000000">EstimateOfDemandComponent</text>
</g>
<!-- EstimateOfDemandComponent&#45;&gt;UiModule -->
<g id="edge25" class="edge">
<title>EstimateOfDemandComponent&#45;&gt;UiModule</title>
<path fill="none" stroke="#000000" d="M1867,-274.002C1867,-291.6754 1867,-316 1867,-316 1867,-316 1309.8737,-316 1309.8737,-316"/>
<polygon fill="#000000" stroke="#000000" points="1309.8737,-312.5001 1299.8737,-316 1309.8737,-319.5001 1309.8737,-312.5001"/>
</g>
<!-- GoogleMapComponent -->
<g id="node27" class="node">
<title>GoogleMapComponent</title>
<polygon fill="#ffffb3" stroke="#000000" points="1753.2035,-274 1604.7965,-274 1604.7965,-238 1753.2035,-238 1753.2035,-274"/>
<text text-anchor="middle" x="1679" y="-251.8" font-family="Times,serif" font-size="14.00" fill="#000000">GoogleMapComponent</text>
</g>
<!-- GoogleMapComponent&#45;&gt;UiModule -->
<g id="edge26" class="edge">
<title>GoogleMapComponent&#45;&gt;UiModule</title>
<path fill="none" stroke="#000000" d="M1679,-274.0352C1679,-290.7344 1679,-313 1679,-313 1679,-313 1309.5526,-313 1309.5526,-313"/>
<polygon fill="#000000" stroke="#000000" points="1309.5527,-309.5001 1299.5526,-313 1309.5526,-316.5001 1309.5527,-309.5001"/>
</g>
<!-- MapComponent -->
<g id="node28" class="node">
<title>MapComponent</title>
<polygon fill="#ffffb3" stroke="#000000" points="1586.4916,-274 1479.5084,-274 1479.5084,-238 1586.4916,-238 1586.4916,-274"/>
<text text-anchor="middle" x="1533" y="-251.8" font-family="Times,serif" font-size="14.00" fill="#000000">MapComponent</text>
</g>
<!-- MapComponent&#45;&gt;UiModule -->
<g id="edge27" class="edge">
<title>MapComponent&#45;&gt;UiModule</title>
<path fill="none" stroke="#000000" d="M1533,-274.2819C1533,-289.9478 1533,-310 1533,-310 1533,-310 1309.6944,-310 1309.6944,-310"/>
<polygon fill="#000000" stroke="#000000" points="1309.6944,-306.5001 1299.6944,-310 1309.6944,-313.5001 1309.6944,-306.5001"/>
</g>
<!-- SearchForTheAreaComponent -->
<g id="node29" class="node">
<title>SearchForTheAreaComponent</title>
<polygon fill="#ffffb3" stroke="#000000" points="1461.8263,-274 1274.1737,-274 1274.1737,-238 1461.8263,-238 1461.8263,-274"/>
<text text-anchor="middle" x="1368" y="-251.8" font-family="Times,serif" font-size="14.00" fill="#000000">SearchForTheAreaComponent</text>
</g>
<!-- SearchForTheAreaComponent&#45;&gt;UiModule -->
<g id="edge28" class="edge">
<title>SearchForTheAreaComponent&#45;&gt;UiModule</title>
<path fill="none" stroke="#000000" d="M1282.6491,-274.2228C1282.6491,-274.2228 1282.6491,-295.7269 1282.6491,-295.7269"/>
<polygon fill="#000000" stroke="#000000" points="1279.1492,-295.7269 1282.6491,-305.7269 1286.1492,-295.727 1279.1492,-295.7269"/>
</g>
<!-- SelectionOfTheAreaComponent -->
<g id="node30" class="node">
<title>SelectionOfTheAreaComponent</title>
<polygon fill="#ffffb3" stroke="#000000" points="1256.6615,-274 1059.3385,-274 1059.3385,-238 1256.6615,-238 1256.6615,-274"/>
<text text-anchor="middle" x="1158" y="-251.8" font-family="Times,serif" font-size="14.00" fill="#000000">SelectionOfTheAreaComponent</text>
</g>
<!-- SelectionOfTheAreaComponent&#45;&gt;UiModule -->
<g id="edge29" class="edge">
<title>SelectionOfTheAreaComponent&#45;&gt;UiModule</title>
<path fill="none" stroke="#000000" d="M1241.4036,-274.2228C1241.4036,-274.2228 1241.4036,-295.7269 1241.4036,-295.7269"/>
<polygon fill="#000000" stroke="#000000" points="1237.9037,-295.7269 1241.4036,-305.7269 1244.9037,-295.727 1237.9037,-295.7269"/>
</g>
<!-- SimulationComponent -->
<g id="node31" class="node">
<title>SimulationComponent</title>
<polygon fill="#ffffb3" stroke="#000000" points="1041.2828,-274 898.7172,-274 898.7172,-238 1041.2828,-238 1041.2828,-274"/>
<text text-anchor="middle" x="970" y="-251.8" font-family="Times,serif" font-size="14.00" fill="#000000">SimulationComponent</text>
</g>
<!-- SimulationComponent&#45;&gt;UiModule -->
<g id="edge30" class="edge">
<title>SimulationComponent&#45;&gt;UiModule</title>
<path fill="none" stroke="#000000" d="M970,-274.0091C970,-290.0494 970,-311 970,-311 970,-311 1216.188,-311 1216.188,-311"/>
<polygon fill="#000000" stroke="#000000" points="1216.1881,-314.5001 1226.188,-311 1216.188,-307.5001 1216.1881,-314.5001"/>
</g>
<!-- StatisticsComponent -->
<g id="node32" class="node">
<title>StatisticsComponent</title>
<polygon fill="#ffffb3" stroke="#000000" points="880.8864,-274 749.1136,-274 749.1136,-238 880.8864,-238 880.8864,-274"/>
<text text-anchor="middle" x="815" y="-251.8" font-family="Times,serif" font-size="14.00" fill="#000000">StatisticsComponent</text>
</g>
<!-- StatisticsComponent&#45;&gt;UiModule -->
<g id="edge31" class="edge">
<title>StatisticsComponent&#45;&gt;UiModule</title>
<path fill="none" stroke="#000000" d="M815,-274.0225C815,-291.3734 815,-315 815,-315 815,-315 1216.3383,-315 1216.3383,-315"/>
<polygon fill="#000000" stroke="#000000" points="1216.3383,-318.5001 1226.3383,-315 1216.3382,-311.5001 1216.3383,-318.5001"/>
</g>
<!-- UiComponent -->
<g id="node33" class="node">
<title>UiComponent</title>
<polygon fill="#ffffb3" stroke="#000000" points="730.8302,-274 635.1698,-274 635.1698,-238 730.8302,-238 730.8302,-274"/>
<text text-anchor="middle" x="683" y="-251.8" font-family="Times,serif" font-size="14.00" fill="#000000">UiComponent</text>
</g>
<!-- UiComponent&#45;&gt;UiModule -->
<g id="edge32" class="edge">
<title>UiComponent&#45;&gt;UiModule</title>
<path fill="none" stroke="#000000" d="M683,-274.1686C683,-293.0898 683,-320 683,-320 683,-320 1216.2784,-320 1216.2784,-320"/>
<polygon fill="#000000" stroke="#000000" points="1216.2784,-323.5001 1226.2784,-320 1216.2784,-316.5001 1216.2784,-323.5001"/>
</g>
<!-- WeatherComponent -->
<g id="node34" class="node">
<title>WeatherComponent</title>
<polygon fill="#ffffb3" stroke="#000000" points="2468.2423,-274 2339.7577,-274 2339.7577,-238 2468.2423,-238 2468.2423,-274"/>
<text text-anchor="middle" x="2404" y="-251.8" font-family="Times,serif" font-size="14.00" fill="#000000">WeatherComponent</text>
</g>
<!-- WeatherComponent&#45;&gt;UiModule -->
<g id="edge33" class="edge">
<title>WeatherComponent&#45;&gt;UiModule</title>
<path fill="none" stroke="#000000" d="M2404,-274.0267C2404,-294.7672 2404,-326 2404,-326 2404,-326 1309.6708,-326 1309.6708,-326"/>
<polygon fill="#000000" stroke="#000000" points="1309.6709,-322.5001 1299.6708,-326 1309.6708,-329.5001 1309.6709,-322.5001"/>
</g>
<!-- WizardComponent -->
<g id="node35" class="node">
<title>WizardComponent</title>
<polygon fill="#ffffb3" stroke="#000000" points="2321.0283,-274 2198.9717,-274 2198.9717,-238 2321.0283,-238 2321.0283,-274"/>
<text text-anchor="middle" x="2260" y="-251.8" font-family="Times,serif" font-size="14.00" fill="#000000">WizardComponent</text>
</g>
<!-- WizardComponent&#45;&gt;UiModule -->
<g id="edge34" class="edge">
<title>WizardComponent&#45;&gt;UiModule</title>
<path fill="none" stroke="#000000" d="M2260,-274.308C2260,-294.1455 2260,-323 2260,-323 2260,-323 1309.6662,-323 1309.6662,-323"/>
<polygon fill="#000000" stroke="#000000" points="1309.6662,-319.5001 1299.6662,-323 1309.6661,-326.5001 1309.6662,-319.5001"/>
</g>
<!-- UiRoutingModule -->
<g id="node37" class="node">
<title>UiRoutingModule</title>
<polygon fill="#8dd3c7" stroke="#000000" points="611.1653,-274 608.1653,-278 587.1653,-278 584.1653,-274 492.8347,-274 492.8347,-238 611.1653,-238 611.1653,-274"/>
<text text-anchor="middle" x="552" y="-251.8" font-family="Times,serif" font-size="14.00" fill="#000000">UiRoutingModule</text>
</g>
<!-- UiRoutingModule&#45;&gt;UiModule -->
<g id="edge36" class="edge">
<title>UiRoutingModule&#45;&gt;UiModule</title>
<path fill="none" stroke="#000000" d="M552,-274.2228C552,-294.3652 552,-324 552,-324 552,-324 1216.2707,-324 1216.2707,-324"/>
<polygon fill="#000000" stroke="#000000" points="1216.2708,-327.5001 1226.2707,-324 1216.2707,-320.5001 1216.2708,-327.5001"/>
</g>
<!-- MapService -->
<g id="node38" class="node">
<title>MapService</title>
<ellipse fill="#fdb462" stroke="#000000" cx="411" cy="-256" rx="57.8829" ry="18"/>
<text text-anchor="middle" x="411" y="-251.8" font-family="Times,serif" font-size="14.00" fill="#000000">MapService</text>
</g>
<!-- MapService&#45;&gt;UiModule -->
<g id="edge37" class="edge">
<title>MapService&#45;&gt;UiModule</title>
<path fill="none" stroke="#000000" d="M411,-274.0449C411,-295.6623 411,-329 411,-329 411,-329 1216.3906,-329 1216.3906,-329"/>
<polygon fill="#000000" stroke="#000000" points="1216.3907,-332.5001 1226.3906,-329 1216.3906,-325.5001 1216.3907,-332.5001"/>
</g>
<!-- SchedulerService -->
<g id="node39" class="node">
<title>SchedulerService</title>
<ellipse fill="#fdb462" stroke="#000000" cx="257" cy="-256" rx="78.7086" ry="18"/>
<text text-anchor="middle" x="257" y="-251.8" font-family="Times,serif" font-size="14.00" fill="#000000">SchedulerService</text>
</g>
<!-- SchedulerService&#45;&gt;UiModule -->
<g id="edge38" class="edge">
<title>SchedulerService&#45;&gt;UiModule</title>
<path fill="none" stroke="#000000" d="M257,-274.2479C257,-297.0179 257,-333 257,-333 257,-333 1216.3028,-333 1216.3028,-333"/>
<polygon fill="#000000" stroke="#000000" points="1216.3028,-336.5001 1226.3028,-333 1216.3027,-329.5001 1216.3028,-336.5001"/>
</g>
<!-- WizardService -->
<g id="node40" class="node">
<title>WizardService</title>
<ellipse fill="#fdb462" stroke="#000000" cx="92" cy="-256" rx="68.315" ry="18"/>
<text text-anchor="middle" x="92" y="-251.8" font-family="Times,serif" font-size="14.00" fill="#000000">WizardService</text>
</g>
<!-- WizardService&#45;&gt;UiModule -->
<g id="edge39" class="edge">
<title>WizardService&#45;&gt;UiModule</title>
<path fill="none" stroke="#000000" d="M92,-274.1985C92,-298.3563 92,-338 92,-338 92,-338 1216.3459,-338 1216.3459,-338"/>
<polygon fill="#000000" stroke="#000000" points="1216.3459,-341.5001 1226.3459,-338 1216.3459,-334.5001 1216.3459,-341.5001"/>
</g>
<!-- WeatherService -->
<g id="node41" class="node">
<title>WeatherService</title>
<ellipse fill="#fdb462" stroke="#000000" cx="3509" cy="-104" rx="72.8889" ry="18"/>
<text text-anchor="middle" x="3509" y="-99.8" font-family="Times,serif" font-size="14.00" fill="#000000">WeatherService</text>
</g>
<!-- WeatherService&#45;&gt;WeatherModule -->
<g id="edge40" class="edge">
<title>WeatherService&#45;&gt;WeatherModule</title>
<path fill="none" stroke="#000000" d="M3509,-122.0109C3509,-122.0109 3509,-151.855 3509,-151.855"/>
<polygon fill="#000000" stroke="#000000" points="3505.5001,-151.8549 3509,-161.855 3512.5001,-151.855 3505.5001,-151.8549"/>
</g>
</g>
</svg>
