<?xml version="1.0" encoding="UTF-8" standalone="no"?>
<!DOCTYPE svg PUBLIC "-//W3C//DTD SVG 1.1//EN"
 "http://www.w3.org/Graphics/SVG/1.1/DTD/svg11.dtd">
<!-- Generated by graphviz version 2.40.1 (20161225.0304)
 -->
<!-- Title: dependencies Pages: 1 -->
<svg width="1216pt" height="284pt"
 viewBox="0.00 0.00 1216.00 284.00" xmlns="http://www.w3.org/2000/svg" xmlns:xlink="http://www.w3.org/1999/xlink">
<g id="graph0" class="graph" transform="scale(1 1) rotate(0) translate(4 280)">
<title>dependencies</title>
<polygon fill="#ffffff" stroke="transparent" points="-4,4 -4,-280 1212,-280 1212,4 -4,4"/>
<text text-anchor="start" x="583.0091" y="-42.4" font-family="sans-serif" font-weight="bold" font-size="14.00" fill="#000000">Legend</text>
<polygon fill="#ffffb3" stroke="transparent" points="370,-10 370,-30 390,-30 390,-10 370,-10"/>
<text text-anchor="start" x="393.629" y="-15.4" font-family="sans-serif" font-size="14.00" fill="#000000"> &#160;Declarations</text>
<polygon fill="#8dd3c7" stroke="transparent" points="483,-10 483,-30 503,-30 503,-10 483,-10"/>
<text text-anchor="start" x="506.7251" y="-15.4" font-family="sans-serif" font-size="14.00" fill="#000000"> &#160;Module</text>
<polygon fill="#80b1d3" stroke="transparent" points="569,-10 569,-30 589,-30 589,-10 569,-10"/>
<text text-anchor="start" x="592.7812" y="-15.4" font-family="sans-serif" font-size="14.00" fill="#000000"> &#160;Bootstrap</text>
<polygon fill="#fdb462" stroke="transparent" points="666,-10 666,-30 686,-30 686,-10 666,-10"/>
<text text-anchor="start" x="689.6732" y="-15.4" font-family="sans-serif" font-size="14.00" fill="#000000"> &#160;Providers</text>
<polygon fill="#fb8072" stroke="transparent" points="762,-10 762,-30 782,-30 782,-10 762,-10"/>
<text text-anchor="start" x="785.7258" y="-15.4" font-family="sans-serif" font-size="14.00" fill="#000000"> &#160;Exports</text>
<g id="clust1" class="cluster">
<title>cluster_AppModule</title>
<polygon fill="none" stroke="#000000" stroke-dasharray="1,5" points="8,-70 8,-268 1200,-268 1200,-70 8,-70"/>
</g>
<g id="clust2" class="cluster">
<title>cluster_AppModule_declarations</title>
<polygon fill="none" stroke="#000000" points="803,-78 803,-130 1192,-130 1192,-78 803,-78"/>
</g>
<g id="clust6" class="cluster">
<title>cluster_AppModule_imports</title>
<polygon fill="none" stroke="#000000" points="16,-78 16,-130 795,-130 795,-78 16,-78"/>
</g>
<g id="clust8" class="cluster">
<title>cluster_AppModule_bootstrap</title>
<polygon fill="none" stroke="#000000" points="525,-208 525,-260 649,-260 649,-208 525,-208"/>
</g>
<!-- AboutComponent -->
<g id="node1" class="node">
<title>AboutComponent</title>
<polygon fill="#ffffb3" stroke="#000000" points="1184.3301,-122 1067.6699,-122 1067.6699,-86 1184.3301,-86 1184.3301,-122"/>
<text text-anchor="middle" x="1126" y="-99.8" font-family="Times,serif" font-size="14.00" fill="#000000">AboutComponent</text>
</g>
<!-- AppModule -->
<g id="node4" class="node">
<title>AppModule</title>
<polygon fill="#8dd3c7" stroke="#000000" points="628.6571,-187 625.6571,-191 604.6571,-191 601.6571,-187 545.3429,-187 545.3429,-151 628.6571,-151 628.6571,-187"/>
<text text-anchor="middle" x="587" y="-164.8" font-family="Times,serif" font-size="14.00" fill="#000000">AppModule</text>
</g>
<!-- AboutComponent&#45;&gt;AppModule -->
<g id="edge1" class="edge">
<title>AboutComponent&#45;&gt;AppModule</title>
<path fill="none" stroke="#000000" d="M1126,-122.0109C1126,-144.4852 1126,-180 1126,-180 1126,-180 638.8459,-180 638.8459,-180"/>
<polygon fill="#000000" stroke="#000000" points="638.846,-176.5001 628.8459,-180 638.8459,-183.5001 638.846,-176.5001"/>
</g>
<!-- AppComponent -->
<g id="node2" class="node">
<title>AppComponent</title>
<polygon fill="#ffffb3" stroke="#000000" points="1049.9399,-122 944.0601,-122 944.0601,-86 1049.9399,-86 1049.9399,-122"/>
<text text-anchor="middle" x="997" y="-99.8" font-family="Times,serif" font-size="14.00" fill="#000000">AppComponent</text>
</g>
<!-- AppComponent&#45;&gt;AppModule -->
<g id="edge2" class="edge">
<title>AppComponent&#45;&gt;AppModule</title>
<path fill="none" stroke="#000000" d="M997,-122.1289C997,-142.5724 997,-173 997,-173 997,-173 638.9504,-173 638.9504,-173"/>
<polygon fill="#000000" stroke="#000000" points="638.9504,-169.5001 628.9504,-173 638.9504,-176.5001 638.9504,-169.5001"/>
</g>
<!-- HomeComponent -->
<g id="node3" class="node">
<title>HomeComponent</title>
<polygon fill="#ffffb3" stroke="#000000" points="926.5451,-122 811.4549,-122 811.4549,-86 926.5451,-86 926.5451,-122"/>
<text text-anchor="middle" x="869" y="-99.8" font-family="Times,serif" font-size="14.00" fill="#000000">HomeComponent</text>
</g>
<!-- HomeComponent&#45;&gt;AppModule -->
<g id="edge3" class="edge">
<title>HomeComponent&#45;&gt;AppModule</title>
<path fill="none" stroke="#000000" d="M869,-122.2667C869,-140.5552 869,-166 869,-166 869,-166 638.9137,-166 638.9137,-166"/>
<polygon fill="#000000" stroke="#000000" points="638.9138,-162.5001 628.9137,-166 638.9137,-169.5001 638.9138,-162.5001"/>
</g>
<!-- AppComponent  -->
<g id="node11" class="node">
<title>AppComponent </title>
<polygon fill="#80b1d3" stroke="#000000" points="641.439,-252 532.561,-252 532.561,-216 641.439,-216 641.439,-252"/>
<text text-anchor="middle" x="587" y="-229.8" font-family="Times,serif" font-size="14.00" fill="#000000">AppComponent </text>
</g>
<!-- AppModule&#45;&gt;AppComponent  -->
<g id="edge10" class="edge">
<title>AppModule&#45;&gt;AppComponent </title>
<path fill="none" stroke="#000000" stroke-dasharray="1,5" d="M587,-187.1061C587,-187.1061 587,-205.991 587,-205.991"/>
<polygon fill="#000000" stroke="#000000" points="583.5001,-205.9909 587,-215.991 590.5001,-205.991 583.5001,-205.9909"/>
</g>
<!-- AppRoutingModule -->
<g id="node5" class="node">
<title>AppRoutingModule</title>
<polygon fill="#8dd3c7" stroke="#000000" points="787.2744,-122 784.2744,-126 763.2744,-126 760.2744,-122 658.7256,-122 658.7256,-86 787.2744,-86 787.2744,-122"/>
<text text-anchor="middle" x="723" y="-99.8" font-family="Times,serif" font-size="14.00" fill="#000000">AppRoutingModule</text>
</g>
<!-- AppRoutingModule&#45;&gt;AppModule -->
<g id="edge4" class="edge">
<title>AppRoutingModule&#45;&gt;AppModule</title>
<path fill="none" stroke="#000000" d="M723,-122.0091C723,-138.0494 723,-159 723,-159 723,-159 638.9142,-159 638.9142,-159"/>
<polygon fill="#000000" stroke="#000000" points="638.9142,-155.5001 628.9142,-159 638.9142,-162.5001 638.9142,-155.5001"/>
</g>
<!-- DemandModule -->
<g id="node6" class="node">
<title>DemandModule</title>
<polygon fill="#8dd3c7" stroke="#000000" points="640.4762,-122 637.4762,-126 616.4762,-126 613.4762,-122 533.5238,-122 533.5238,-86 640.4762,-86 640.4762,-122"/>
<text text-anchor="middle" x="587" y="-99.8" font-family="Times,serif" font-size="14.00" fill="#000000">DemandModule</text>
</g>
<!-- DemandModule&#45;&gt;AppModule -->
<g id="edge5" class="edge">
<title>DemandModule&#45;&gt;AppModule</title>
<path fill="none" stroke="#000000" d="M587,-122.1061C587,-122.1061 587,-140.991 587,-140.991"/>
<polygon fill="#000000" stroke="#000000" points="583.5001,-140.9909 587,-150.991 590.5001,-140.991 583.5001,-140.9909"/>
</g>
<!-- LocationModule -->
<g id="node7" class="node">
<title>LocationModule</title>
<polygon fill="#8dd3c7" stroke="#000000" points="515.8132,-122 512.8132,-126 491.8132,-126 488.8132,-122 406.1868,-122 406.1868,-86 515.8132,-86 515.8132,-122"/>
<text text-anchor="middle" x="461" y="-99.8" font-family="Times,serif" font-size="14.00" fill="#000000">LocationModule</text>
</g>
<!-- LocationModule&#45;&gt;AppModule -->
<g id="edge6" class="edge">
<title>LocationModule&#45;&gt;AppModule</title>
<path fill="none" stroke="#000000" d="M461,-122.0091C461,-138.0494 461,-159 461,-159 461,-159 535.0438,-159 535.0438,-159"/>
<polygon fill="#000000" stroke="#000000" points="535.0439,-162.5001 545.0438,-159 535.0438,-155.5001 535.0439,-162.5001"/>
</g>
<!-- NetworkModule -->
<g id="node8" class="node">
<title>NetworkModule</title>
<polygon fill="#8dd3c7" stroke="#000000" points="388.0298,-122 385.0298,-126 364.0298,-126 361.0298,-122 279.9702,-122 279.9702,-86 388.0298,-86 388.0298,-122"/>
<text text-anchor="middle" x="334" y="-99.8" font-family="Times,serif" font-size="14.00" fill="#000000">NetworkModule</text>
</g>
<!-- NetworkModule&#45;&gt;AppModule -->
<g id="edge7" class="edge">
<title>NetworkModule&#45;&gt;AppModule</title>
<path fill="none" stroke="#000000" d="M334,-122.2667C334,-140.5552 334,-166 334,-166 334,-166 535.2222,-166 535.2222,-166"/>
<polygon fill="#000000" stroke="#000000" points="535.2222,-169.5001 545.2222,-166 535.2222,-162.5001 535.2222,-169.5001"/>
</g>
<!-- SharedModule -->
<g id="node9" class="node">
<title>SharedModule</title>
<polygon fill="#8dd3c7" stroke="#000000" points="262.4231,-122 259.4231,-126 238.4231,-126 235.4231,-122 163.5769,-122 163.5769,-86 262.4231,-86 262.4231,-122"/>
<text text-anchor="middle" x="213" y="-99.8" font-family="Times,serif" font-size="14.00" fill="#000000">SharedModule</text>
</g>
<!-- SharedModule&#45;&gt;AppModule -->
<g id="edge8" class="edge">
<title>SharedModule&#45;&gt;AppModule</title>
<path fill="none" stroke="#000000" d="M213,-122.1289C213,-142.5724 213,-173 213,-173 213,-173 535.1861,-173 535.1861,-173"/>
<polygon fill="#000000" stroke="#000000" points="535.1861,-176.5001 545.1861,-173 535.1861,-169.5001 535.1861,-176.5001"/>
</g>
<!-- SimulationModule -->
<g id="node10" class="node">
<title>SimulationModule</title>
<polygon fill="#8dd3c7" stroke="#000000" points="145.5,-122 142.5,-126 121.5,-126 118.5,-122 24.5,-122 24.5,-86 145.5,-86 145.5,-122"/>
<text text-anchor="middle" x="85" y="-99.8" font-family="Times,serif" font-size="14.00" fill="#000000">SimulationModule</text>
</g>
<!-- SimulationModule&#45;&gt;AppModule -->
<g id="edge9" class="edge">
<title>SimulationModule&#45;&gt;AppModule</title>
<path fill="none" stroke="#000000" d="M85,-122.0109C85,-144.4852 85,-180 85,-180 85,-180 535.0632,-180 535.0632,-180"/>
<polygon fill="#000000" stroke="#000000" points="535.0632,-183.5001 545.0632,-180 535.0632,-176.5001 535.0632,-183.5001"/>
</g>
</g>
</svg>
