<?xml version="1.0" encoding="UTF-8" standalone="no"?>
<!DOCTYPE svg PUBLIC "-//W3C//DTD SVG 1.1//EN"
 "http://www.w3.org/Graphics/SVG/1.1/DTD/svg11.dtd">
<!-- Generated by graphviz version 2.40.1 (20161225.0304)
 -->
<!-- Title: dependencies Pages: 1 -->
<svg width="1082pt" height="284pt"
 viewBox="0.00 0.00 1082.00 284.00" xmlns="http://www.w3.org/2000/svg" xmlns:xlink="http://www.w3.org/1999/xlink">
<g id="graph0" class="graph" transform="scale(1 1) rotate(0) translate(4 280)">
<title>dependencies</title>
<polygon fill="#ffffff" stroke="transparent" points="-4,4 -4,-280 1078,-280 1078,4 -4,4"/>
<text text-anchor="start" x="516.0091" y="-42.4" font-family="sans-serif" font-weight="bold" font-size="14.00" fill="#000000">Legend</text>
<polygon fill="#ffffb3" stroke="transparent" points="303,-10 303,-30 323,-30 323,-10 303,-10"/>
<text text-anchor="start" x="326.629" y="-15.4" font-family="sans-serif" font-size="14.00" fill="#000000"> &#160;Declarations</text>
<polygon fill="#8dd3c7" stroke="transparent" points="416,-10 416,-30 436,-30 436,-10 416,-10"/>
<text text-anchor="start" x="439.7251" y="-15.4" font-family="sans-serif" font-size="14.00" fill="#000000"> &#160;Module</text>
<polygon fill="#80b1d3" stroke="transparent" points="502,-10 502,-30 522,-30 522,-10 502,-10"/>
<text text-anchor="start" x="525.7812" y="-15.4" font-family="sans-serif" font-size="14.00" fill="#000000"> &#160;Bootstrap</text>
<polygon fill="#fdb462" stroke="transparent" points="599,-10 599,-30 619,-30 619,-10 599,-10"/>
<text text-anchor="start" x="622.6732" y="-15.4" font-family="sans-serif" font-size="14.00" fill="#000000"> &#160;Providers</text>
<polygon fill="#fb8072" stroke="transparent" points="695,-10 695,-30 715,-30 715,-10 695,-10"/>
<text text-anchor="start" x="718.7258" y="-15.4" font-family="sans-serif" font-size="14.00" fill="#000000"> &#160;Exports</text>
<g id="clust1" class="cluster">
<title>cluster_AppModule</title>
<polygon fill="none" stroke="#000000" stroke-dasharray="1,5" points="8,-70 8,-268 1066,-268 1066,-70 8,-70"/>
</g>
<g id="clust2" class="cluster">
<title>cluster_AppModule_declarations</title>
<polygon fill="none" stroke="#000000" points="803,-78 803,-130 1058,-130 1058,-78 803,-78"/>
</g>
<g id="clust5" class="cluster">
<title>cluster_AppModule_imports</title>
<polygon fill="none" stroke="#000000" points="16,-78 16,-130 795,-130 795,-78 16,-78"/>
</g>
<g id="clust7" class="cluster">
<title>cluster_AppModule_bootstrap</title>
<polygon fill="none" stroke="#000000" points="462,-208 462,-260 586,-260 586,-208 462,-208"/>
</g>
<!-- AppComponent -->
<g id="node1" class="node">
<title>AppComponent</title>
<polygon fill="#ffffb3" stroke="#000000" points="1049.9399,-122 944.0601,-122 944.0601,-86 1049.9399,-86 1049.9399,-122"/>
<text text-anchor="middle" x="997" y="-99.8" font-family="Times,serif" font-size="14.00" fill="#000000">AppComponent</text>
</g>
<!-- AppModule -->
<g id="node3" class="node">
<title>AppModule</title>
<polygon fill="#8dd3c7" stroke="#000000" points="565.6571,-187 562.6571,-191 541.6571,-191 538.6571,-187 482.3429,-187 482.3429,-151 565.6571,-151 565.6571,-187"/>
<text text-anchor="middle" x="524" y="-164.8" font-family="Times,serif" font-size="14.00" fill="#000000">AppModule</text>
</g>
<!-- AppComponent&#45;&gt;AppModule -->
<g id="edge1" class="edge">
<title>AppComponent&#45;&gt;AppModule</title>
<path fill="none" stroke="#000000" d="M997,-122.2921C997,-144.2057 997,-178 997,-178 997,-178 575.9756,-178 575.9756,-178"/>
<polygon fill="#000000" stroke="#000000" points="575.9756,-174.5001 565.9756,-178 575.9756,-181.5001 575.9756,-174.5001"/>
</g>
<!-- HomeComponent -->
<g id="node2" class="node">
<title>HomeComponent</title>
<polygon fill="#ffffb3" stroke="#000000" points="926.5451,-122 811.4549,-122 811.4549,-86 926.5451,-86 926.5451,-122"/>
<text text-anchor="middle" x="869" y="-99.8" font-family="Times,serif" font-size="14.00" fill="#000000">HomeComponent</text>
</g>
<!-- HomeComponent&#45;&gt;AppModule -->
<g id="edge2" class="edge">
<title>HomeComponent&#45;&gt;AppModule</title>
<path fill="none" stroke="#000000" d="M869,-122.1061C869,-141.3391 869,-169 869,-169 869,-169 575.9589,-169 575.9589,-169"/>
<polygon fill="#000000" stroke="#000000" points="575.9589,-165.5001 565.9589,-169 575.9588,-172.5001 575.9589,-165.5001"/>
</g>
<!-- AppComponent  -->
<g id="node10" class="node">
<title>AppComponent </title>
<polygon fill="#80b1d3" stroke="#000000" points="578.439,-252 469.561,-252 469.561,-216 578.439,-216 578.439,-252"/>
<text text-anchor="middle" x="524" y="-229.8" font-family="Times,serif" font-size="14.00" fill="#000000">AppComponent </text>
</g>
<!-- AppModule&#45;&gt;AppComponent  -->
<g id="edge9" class="edge">
<title>AppModule&#45;&gt;AppComponent </title>
<path fill="none" stroke="#000000" stroke-dasharray="1,5" d="M524,-187.1061C524,-187.1061 524,-205.991 524,-205.991"/>
<polygon fill="#000000" stroke="#000000" points="520.5001,-205.9909 524,-215.991 527.5001,-205.991 520.5001,-205.9909"/>
</g>
<!-- AppRoutingModule -->
<g id="node4" class="node">
<title>AppRoutingModule</title>
<polygon fill="#8dd3c7" stroke="#000000" points="787.2744,-122 784.2744,-126 763.2744,-126 760.2744,-122 658.7256,-122 658.7256,-86 787.2744,-86 787.2744,-122"/>
<text text-anchor="middle" x="723" y="-99.8" font-family="Times,serif" font-size="14.00" fill="#000000">AppRoutingModule</text>
</g>
<!-- AppRoutingModule&#45;&gt;AppModule -->
<g id="edge3" class="edge">
<title>AppRoutingModule&#45;&gt;AppModule</title>
<path fill="none" stroke="#000000" d="M723,-122.027C723,-138.3976 723,-160 723,-160 723,-160 575.7169,-160 575.7169,-160"/>
<polygon fill="#000000" stroke="#000000" points="575.717,-156.5001 565.7169,-160 575.7169,-163.5001 575.717,-156.5001"/>
</g>
<!-- DemandModule -->
<g id="node5" class="node">
<title>DemandModule</title>
<polygon fill="#8dd3c7" stroke="#000000" points="640.4762,-122 637.4762,-126 616.4762,-126 613.4762,-122 533.5238,-122 533.5238,-86 640.4762,-86 640.4762,-122"/>
<text text-anchor="middle" x="587" y="-99.8" font-family="Times,serif" font-size="14.00" fill="#000000">DemandModule</text>
</g>
<!-- DemandModule&#45;&gt;AppModule -->
<g id="edge4" class="edge">
<title>DemandModule&#45;&gt;AppModule</title>
<path fill="none" stroke="#000000" d="M549.67,-122.1061C549.67,-122.1061 549.67,-140.991 549.67,-140.991"/>
<polygon fill="#000000" stroke="#000000" points="546.1701,-140.9909 549.67,-150.991 553.1701,-140.991 546.1701,-140.9909"/>
</g>
<!-- LocationModule -->
<g id="node6" class="node">
<title>LocationModule</title>
<polygon fill="#8dd3c7" stroke="#000000" points="515.8132,-122 512.8132,-126 491.8132,-126 488.8132,-122 406.1868,-122 406.1868,-86 515.8132,-86 515.8132,-122"/>
<text text-anchor="middle" x="461" y="-99.8" font-family="Times,serif" font-size="14.00" fill="#000000">LocationModule</text>
</g>
<!-- LocationModule&#45;&gt;AppModule -->
<g id="edge5" class="edge">
<title>LocationModule&#45;&gt;AppModule</title>
<path fill="none" stroke="#000000" d="M498.9141,-122.1061C498.9141,-122.1061 498.9141,-140.991 498.9141,-140.991"/>
<polygon fill="#000000" stroke="#000000" points="495.4142,-140.9909 498.9141,-150.991 502.4142,-140.991 495.4142,-140.9909"/>
</g>
<!-- NetworkModule -->
<g id="node7" class="node">
<title>NetworkModule</title>
<polygon fill="#8dd3c7" stroke="#000000" points="388.0298,-122 385.0298,-126 364.0298,-126 361.0298,-122 279.9702,-122 279.9702,-86 388.0298,-86 388.0298,-122"/>
<text text-anchor="middle" x="334" y="-99.8" font-family="Times,serif" font-size="14.00" fill="#000000">NetworkModule</text>
</g>
<!-- NetworkModule&#45;&gt;AppModule -->
<g id="edge6" class="edge">
<title>NetworkModule&#45;&gt;AppModule</title>
<path fill="none" stroke="#000000" d="M334,-122.027C334,-138.3976 334,-160 334,-160 334,-160 472.3037,-160 472.3037,-160"/>
<polygon fill="#000000" stroke="#000000" points="472.3037,-163.5001 482.3037,-160 472.3037,-156.5001 472.3037,-163.5001"/>
</g>
<!-- SharedModule -->
<g id="node8" class="node">
<title>SharedModule</title>
<polygon fill="#8dd3c7" stroke="#000000" points="262.4231,-122 259.4231,-126 238.4231,-126 235.4231,-122 163.5769,-122 163.5769,-86 262.4231,-86 262.4231,-122"/>
<text text-anchor="middle" x="213" y="-99.8" font-family="Times,serif" font-size="14.00" fill="#000000">SharedModule</text>
</g>
<!-- SharedModule&#45;&gt;AppModule -->
<g id="edge7" class="edge">
<title>SharedModule&#45;&gt;AppModule</title>
<path fill="none" stroke="#000000" d="M213,-122.1061C213,-141.3391 213,-169 213,-169 213,-169 472.0572,-169 472.0572,-169"/>
<polygon fill="#000000" stroke="#000000" points="472.0572,-172.5001 482.0572,-169 472.0571,-165.5001 472.0572,-172.5001"/>
</g>
<!-- SimulationModule -->
<g id="node9" class="node">
<title>SimulationModule</title>
<polygon fill="#8dd3c7" stroke="#000000" points="145.5,-122 142.5,-126 121.5,-126 118.5,-122 24.5,-122 24.5,-86 145.5,-86 145.5,-122"/>
<text text-anchor="middle" x="85" y="-99.8" font-family="Times,serif" font-size="14.00" fill="#000000">SimulationModule</text>
</g>
<!-- SimulationModule&#45;&gt;AppModule -->
<g id="edge8" class="edge">
<title>SimulationModule&#45;&gt;AppModule</title>
<path fill="none" stroke="#000000" d="M85,-122.2921C85,-144.2057 85,-178 85,-178 85,-178 472.3042,-178 472.3042,-178"/>
<polygon fill="#000000" stroke="#000000" points="472.3042,-181.5001 482.3042,-178 472.3041,-174.5001 472.3042,-181.5001"/>
</g>
</g>
</svg>
