<?xml version="1.0" encoding="UTF-8" standalone="no"?>
<!DOCTYPE svg PUBLIC "-//W3C//DTD SVG 1.1//EN"
 "http://www.w3.org/Graphics/SVG/1.1/DTD/svg11.dtd">
<!-- Generated by graphviz version 2.40.1 (20161225.0304)
 -->
<!-- Title: dependencies Pages: 1 -->
<svg width="504pt" height="211pt"
 viewBox="0.00 0.00 504.00 211.00" xmlns="http://www.w3.org/2000/svg" xmlns:xlink="http://www.w3.org/1999/xlink">
<g id="graph0" class="graph" transform="scale(1 1) rotate(0) translate(4 207)">
<title>dependencies</title>
<polygon fill="#ffffff" stroke="transparent" points="-4,4 -4,-207 500,-207 500,4 -4,4"/>
<text text-anchor="start" x="227.0091" y="-42.4" font-family="sans-serif" font-weight="bold" font-size="14.00" fill="#000000">Legend</text>
<polygon fill="#ffffb3" stroke="transparent" points="14,-10 14,-30 34,-30 34,-10 14,-10"/>
<text text-anchor="start" x="37.629" y="-15.4" font-family="sans-serif" font-size="14.00" fill="#000000"> &#160;Declarations</text>
<polygon fill="#8dd3c7" stroke="transparent" points="127,-10 127,-30 147,-30 147,-10 127,-10"/>
<text text-anchor="start" x="150.7251" y="-15.4" font-family="sans-serif" font-size="14.00" fill="#000000"> &#160;Module</text>
<polygon fill="#80b1d3" stroke="transparent" points="213,-10 213,-30 233,-30 233,-10 213,-10"/>
<text text-anchor="start" x="236.7812" y="-15.4" font-family="sans-serif" font-size="14.00" fill="#000000"> &#160;Bootstrap</text>
<polygon fill="#fdb462" stroke="transparent" points="310,-10 310,-30 330,-30 330,-10 310,-10"/>
<text text-anchor="start" x="333.6732" y="-15.4" font-family="sans-serif" font-size="14.00" fill="#000000"> &#160;Providers</text>
<polygon fill="#fb8072" stroke="transparent" points="406,-10 406,-30 426,-30 426,-10 406,-10"/>
<text text-anchor="start" x="429.7258" y="-15.4" font-family="sans-serif" font-size="14.00" fill="#000000"> &#160;Exports</text>
<g id="clust1" class="cluster">
<title>cluster_SimulationModule</title>
<polygon fill="none" stroke="#000000" stroke-dasharray="1,5" points="78,-70 78,-195 418,-195 418,-70 78,-70"/>
</g>
<g id="clust6" class="cluster">
<title>cluster_SimulationModule_providers</title>
<polygon fill="none" stroke="#000000" points="86,-78 86,-130 410,-130 410,-78 86,-78"/>
</g>
<!-- ClockService -->
<g id="node1" class="node">
<title>ClockService</title>
<ellipse fill="#fdb462" stroke="#000000" cx="339" cy="-104" rx="63.1189" ry="18"/>
<text text-anchor="middle" x="339" y="-99.8" font-family="Times,serif" font-size="14.00" fill="#000000">ClockService</text>
</g>
<!-- SimulationModule -->
<g id="node3" class="node">
<title>SimulationModule</title>
<polygon fill="#8dd3c7" stroke="#000000" points="317.5,-187 314.5,-191 293.5,-191 290.5,-187 196.5,-187 196.5,-151 317.5,-151 317.5,-187"/>
<text text-anchor="middle" x="257" y="-164.8" font-family="Times,serif" font-size="14.00" fill="#000000">SimulationModule</text>
</g>
<!-- ClockService&#45;&gt;SimulationModule -->
<g id="edge1" class="edge">
<title>ClockService&#45;&gt;SimulationModule</title>
<path fill="none" stroke="#000000" d="M296.7203,-117.468C296.7203,-117.468 296.7203,-140.8642 296.7203,-140.8642"/>
<polygon fill="#000000" stroke="#000000" points="293.2204,-140.8641 296.7203,-150.8642 300.2204,-140.8642 293.2204,-140.8641"/>
</g>
<!-- SimulationService -->
<g id="node2" class="node">
<title>SimulationService</title>
<ellipse fill="#fdb462" stroke="#000000" cx="176" cy="-104" rx="82.2584" ry="18"/>
<text text-anchor="middle" x="176" y="-99.8" font-family="Times,serif" font-size="14.00" fill="#000000">SimulationService</text>
</g>
<!-- SimulationService&#45;&gt;SimulationModule -->
<g id="edge2" class="edge">
<title>SimulationService&#45;&gt;SimulationModule</title>
<path fill="none" stroke="#000000" d="M227.4396,-118.104C227.4396,-118.104 227.4396,-140.7209 227.4396,-140.7209"/>
<polygon fill="#000000" stroke="#000000" points="223.9397,-140.7209 227.4396,-150.7209 230.9397,-140.7209 223.9397,-140.7209"/>
</g>
</g>
</svg>
