<?xml version="1.0" encoding="UTF-8" standalone="no"?>
<!DOCTYPE svg PUBLIC "-//W3C//DTD SVG 1.1//EN"
 "http://www.w3.org/Graphics/SVG/1.1/DTD/svg11.dtd">
<!-- Generated by graphviz version 2.40.1 (20161225.0304)
 -->
<!-- Title: dependencies Pages: 1 -->
<svg width="504pt" height="211pt"
 viewBox="0.00 0.00 504.00 211.00" xmlns="http://www.w3.org/2000/svg" xmlns:xlink="http://www.w3.org/1999/xlink">
<g id="graph0" class="graph" transform="scale(1 1) rotate(0) translate(4 207)">
<title>dependencies</title>
<polygon fill="#ffffff" stroke="transparent" points="-4,4 -4,-207 500,-207 500,4 -4,4"/>
<text text-anchor="start" x="227.0091" y="-42.4" font-family="sans-serif" font-weight="bold" font-size="14.00" fill="#000000">Legend</text>
<polygon fill="#ffffb3" stroke="transparent" points="14,-10 14,-30 34,-30 34,-10 14,-10"/>
<text text-anchor="start" x="37.629" y="-15.4" font-family="sans-serif" font-size="14.00" fill="#000000"> &#160;Declarations</text>
<polygon fill="#8dd3c7" stroke="transparent" points="127,-10 127,-30 147,-30 147,-10 127,-10"/>
<text text-anchor="start" x="150.7251" y="-15.4" font-family="sans-serif" font-size="14.00" fill="#000000"> &#160;Module</text>
<polygon fill="#80b1d3" stroke="transparent" points="213,-10 213,-30 233,-30 233,-10 213,-10"/>
<text text-anchor="start" x="236.7812" y="-15.4" font-family="sans-serif" font-size="14.00" fill="#000000"> &#160;Bootstrap</text>
<polygon fill="#fdb462" stroke="transparent" points="310,-10 310,-30 330,-30 330,-10 310,-10"/>
<text text-anchor="start" x="333.6732" y="-15.4" font-family="sans-serif" font-size="14.00" fill="#000000"> &#160;Providers</text>
<polygon fill="#fb8072" stroke="transparent" points="406,-10 406,-30 426,-30 426,-10 406,-10"/>
<text text-anchor="start" x="429.7258" y="-15.4" font-family="sans-serif" font-size="14.00" fill="#000000"> &#160;Exports</text>
<g id="clust1" class="cluster">
<title>cluster_NetworkModule</title>
<polygon fill="none" stroke="#000000" stroke-dasharray="1,5" points="93,-70 93,-195 403,-195 403,-70 93,-70"/>
</g>
<g id="clust3" class="cluster">
<title>cluster_NetworkModule_imports</title>
<polygon fill="none" stroke="#000000" points="273,-78 273,-130 395,-130 395,-78 273,-78"/>
</g>
<g id="clust6" class="cluster">
<title>cluster_NetworkModule_providers</title>
<polygon fill="none" stroke="#000000" points="101,-78 101,-130 265,-130 265,-78 101,-78"/>
</g>
<!-- WeatherModule -->
<g id="node1" class="node">
<title>WeatherModule</title>
<polygon fill="#8dd3c7" stroke="#000000" points="387.4594,-122 384.4594,-126 363.4594,-126 360.4594,-122 280.5406,-122 280.5406,-86 387.4594,-86 387.4594,-122"/>
<text text-anchor="middle" x="334" y="-99.8" font-family="Times,serif" font-size="14.00" fill="#000000">WeatherModule</text>
</g>
<!-- NetworkModule -->
<g id="node2" class="node">
<title>NetworkModule</title>
<polygon fill="#8dd3c7" stroke="#000000" points="312.0298,-187 309.0298,-191 288.0298,-191 285.0298,-187 203.9702,-187 203.9702,-151 312.0298,-151 312.0298,-187"/>
<text text-anchor="middle" x="258" y="-164.8" font-family="Times,serif" font-size="14.00" fill="#000000">NetworkModule</text>
</g>
<!-- WeatherModule&#45;&gt;NetworkModule -->
<g id="edge1" class="edge">
<title>WeatherModule&#45;&gt;NetworkModule</title>
<path fill="none" stroke="#000000" d="M296.3924,-122.1061C296.3924,-122.1061 296.3924,-140.991 296.3924,-140.991"/>
<polygon fill="#000000" stroke="#000000" points="292.8924,-140.9909 296.3924,-150.991 299.8924,-140.991 292.8924,-140.9909"/>
</g>
<!-- NetworkService -->
<g id="node3" class="node">
<title>NetworkService</title>
<ellipse fill="#fdb462" stroke="#000000" cx="183" cy="-104" rx="73.5541" ry="18"/>
<text text-anchor="middle" x="183" y="-99.8" font-family="Times,serif" font-size="14.00" fill="#000000">NetworkService</text>
</g>
<!-- NetworkService&#45;&gt;NetworkModule -->
<g id="edge2" class="edge">
<title>NetworkService&#45;&gt;NetworkModule</title>
<path fill="none" stroke="#000000" d="M230.2562,-118.104C230.2562,-118.104 230.2562,-140.7209 230.2562,-140.7209"/>
<polygon fill="#000000" stroke="#000000" points="226.7563,-140.7209 230.2562,-150.7209 233.7563,-140.7209 226.7563,-140.7209"/>
</g>
</g>
</svg>
