<?xml version="1.0" encoding="UTF-8" standalone="no"?>
<!DOCTYPE svg PUBLIC "-//W3C//DTD SVG 1.1//EN"
 "http://www.w3.org/Graphics/SVG/1.1/DTD/svg11.dtd">
<!-- Generated by graphviz version 2.40.1 (20161225.0304)
 -->
<!-- Title: dependencies Pages: 1 -->
<svg width="2617pt" height="211pt"
 viewBox="0.00 0.00 2617.00 211.00" xmlns="http://www.w3.org/2000/svg" xmlns:xlink="http://www.w3.org/1999/xlink">
<g id="graph0" class="graph" transform="scale(1 1) rotate(0) translate(4 207)">
<title>dependencies</title>
<polygon fill="#ffffff" stroke="transparent" points="-4,4 -4,-207 2613,-207 2613,4 -4,4"/>
<text text-anchor="start" x="1283.5091" y="-42.4" font-family="sans-serif" font-weight="bold" font-size="14.00" fill="#000000">Legend</text>
<polygon fill="#ffffb3" stroke="transparent" points="1070.5,-10 1070.5,-30 1090.5,-30 1090.5,-10 1070.5,-10"/>
<text text-anchor="start" x="1094.129" y="-15.4" font-family="sans-serif" font-size="14.00" fill="#000000"> &#160;Declarations</text>
<polygon fill="#8dd3c7" stroke="transparent" points="1183.5,-10 1183.5,-30 1203.5,-30 1203.5,-10 1183.5,-10"/>
<text text-anchor="start" x="1207.2251" y="-15.4" font-family="sans-serif" font-size="14.00" fill="#000000"> &#160;Module</text>
<polygon fill="#80b1d3" stroke="transparent" points="1269.5,-10 1269.5,-30 1289.5,-30 1289.5,-10 1269.5,-10"/>
<text text-anchor="start" x="1293.2812" y="-15.4" font-family="sans-serif" font-size="14.00" fill="#000000"> &#160;Bootstrap</text>
<polygon fill="#fdb462" stroke="transparent" points="1366.5,-10 1366.5,-30 1386.5,-30 1386.5,-10 1366.5,-10"/>
<text text-anchor="start" x="1390.1732" y="-15.4" font-family="sans-serif" font-size="14.00" fill="#000000"> &#160;Providers</text>
<polygon fill="#fb8072" stroke="transparent" points="1462.5,-10 1462.5,-30 1482.5,-30 1482.5,-10 1462.5,-10"/>
<text text-anchor="start" x="1486.2258" y="-15.4" font-family="sans-serif" font-size="14.00" fill="#000000"> &#160;Exports</text>
<g id="clust1" class="cluster">
<title>cluster_UiModule</title>
<polygon fill="none" stroke="#000000" stroke-dasharray="1,5" points="8,-70 8,-195 2601,-195 2601,-70 8,-70"/>
</g>
<g id="clust2" class="cluster">
<title>cluster_UiModule_declarations</title>
<polygon fill="none" stroke="#000000" points="744,-78 744,-130 2593,-130 2593,-78 744,-78"/>
</g>
<g id="clust14" class="cluster">
<title>cluster_UiModule_imports</title>
<polygon fill="none" stroke="#000000" points="485,-78 485,-130 736,-130 736,-78 485,-78"/>
</g>
<g id="clust17" class="cluster">
<title>cluster_UiModule_providers</title>
<polygon fill="none" stroke="#000000" points="16,-78 16,-130 477,-130 477,-78 16,-78"/>
</g>
<!-- ChangeOfConditionsComponent -->
<g id="node1" class="node">
<title>ChangeOfConditionsComponent</title>
<polygon fill="#ffffb3" stroke="#000000" points="2585.3187,-122 2384.6813,-122 2384.6813,-86 2585.3187,-86 2585.3187,-122"/>
<text text-anchor="middle" x="2485" y="-99.8" font-family="Times,serif" font-size="14.00" fill="#000000">ChangeOfConditionsComponent</text>
</g>
<!-- UiModule -->
<g id="node12" class="node">
<title>UiModule</title>
<polygon fill="#8dd3c7" stroke="#000000" points="1189.5484,-187 1186.5484,-191 1165.5484,-191 1162.5484,-187 1116.4516,-187 1116.4516,-151 1189.5484,-151 1189.5484,-187"/>
<text text-anchor="middle" x="1153" y="-164.8" font-family="Times,serif" font-size="14.00" fill="#000000">UiModule</text>
</g>
<!-- ChangeOfConditionsComponent&#45;&gt;UiModule -->
<g id="edge1" class="edge">
<title>ChangeOfConditionsComponent&#45;&gt;UiModule</title>
<path fill="none" stroke="#000000" d="M2485,-122.3228C2485,-145.6602 2485,-183 2485,-183 2485,-183 1199.6663,-183 1199.6663,-183"/>
<polygon fill="#000000" stroke="#000000" points="1199.6663,-179.5001 1189.6663,-183 1199.6663,-186.5001 1199.6663,-179.5001"/>
</g>
<!-- EstimateOfDemandComponent -->
<g id="node2" class="node">
<title>EstimateOfDemandComponent</title>
<polygon fill="#ffffb3" stroke="#000000" points="2367.0154,-122 2174.9846,-122 2174.9846,-86 2367.0154,-86 2367.0154,-122"/>
<text text-anchor="middle" x="2271" y="-99.8" font-family="Times,serif" font-size="14.00" fill="#000000">EstimateOfDemandComponent</text>
</g>
<!-- EstimateOfDemandComponent&#45;&gt;UiModule -->
<g id="edge2" class="edge">
<title>EstimateOfDemandComponent&#45;&gt;UiModule</title>
<path fill="none" stroke="#000000" d="M2271,-122.2921C2271,-144.2057 2271,-178 2271,-178 2271,-178 1199.5622,-178 1199.5622,-178"/>
<polygon fill="#000000" stroke="#000000" points="1199.5623,-174.5001 1189.5622,-178 1199.5622,-181.5001 1199.5623,-174.5001"/>
</g>
<!-- GoogleMapComponent -->
<g id="node3" class="node">
<title>GoogleMapComponent</title>
<polygon fill="#ffffb3" stroke="#000000" points="2157.2035,-122 2008.7965,-122 2008.7965,-86 2157.2035,-86 2157.2035,-122"/>
<text text-anchor="middle" x="2083" y="-99.8" font-family="Times,serif" font-size="14.00" fill="#000000">GoogleMapComponent</text>
</g>
<!-- GoogleMapComponent&#45;&gt;UiModule -->
<g id="edge3" class="edge">
<title>GoogleMapComponent&#45;&gt;UiModule</title>
<path fill="none" stroke="#000000" d="M2083,-122.0267C2083,-142.7672 2083,-174 2083,-174 2083,-174 1199.7435,-174 1199.7435,-174"/>
<polygon fill="#000000" stroke="#000000" points="1199.7436,-170.5001 1189.7435,-174 1199.7435,-177.5001 1199.7436,-170.5001"/>
</g>
<!-- MapComponent -->
<g id="node4" class="node">
<title>MapComponent</title>
<polygon fill="#ffffb3" stroke="#000000" points="1990.4916,-122 1883.5084,-122 1883.5084,-86 1990.4916,-86 1990.4916,-122"/>
<text text-anchor="middle" x="1937" y="-99.8" font-family="Times,serif" font-size="14.00" fill="#000000">MapComponent</text>
</g>
<!-- MapComponent&#45;&gt;UiModule -->
<g id="edge4" class="edge">
<title>MapComponent&#45;&gt;UiModule</title>
<path fill="none" stroke="#000000" d="M1937,-122.1061C1937,-141.3391 1937,-169 1937,-169 1937,-169 1199.7624,-169 1199.7624,-169"/>
<polygon fill="#000000" stroke="#000000" points="1199.7624,-165.5001 1189.7624,-169 1199.7624,-172.5001 1199.7624,-165.5001"/>
</g>
<!-- SearchForTheAreaComponent -->
<g id="node5" class="node">
<title>SearchForTheAreaComponent</title>
<polygon fill="#ffffb3" stroke="#000000" points="1865.8263,-122 1678.1737,-122 1678.1737,-86 1865.8263,-86 1865.8263,-122"/>
<text text-anchor="middle" x="1772" y="-99.8" font-family="Times,serif" font-size="14.00" fill="#000000">SearchForTheAreaComponent</text>
</g>
<!-- SearchForTheAreaComponent&#45;&gt;UiModule -->
<g id="edge5" class="edge">
<title>SearchForTheAreaComponent&#45;&gt;UiModule</title>
<path fill="none" stroke="#000000" d="M1772,-122.302C1772,-140.2699 1772,-165 1772,-165 1772,-165 1199.8675,-165 1199.8675,-165"/>
<polygon fill="#000000" stroke="#000000" points="1199.8676,-161.5001 1189.8675,-165 1199.8675,-168.5001 1199.8676,-161.5001"/>
</g>
<!-- SelectionOfTheAreaComponent -->
<g id="node6" class="node">
<title>SelectionOfTheAreaComponent</title>
<polygon fill="#ffffb3" stroke="#000000" points="1660.6615,-122 1463.3385,-122 1463.3385,-86 1660.6615,-86 1660.6615,-122"/>
<text text-anchor="middle" x="1562" y="-99.8" font-family="Times,serif" font-size="14.00" fill="#000000">SelectionOfTheAreaComponent</text>
</g>
<!-- SelectionOfTheAreaComponent&#45;&gt;UiModule -->
<g id="edge6" class="edge">
<title>SelectionOfTheAreaComponent&#45;&gt;UiModule</title>
<path fill="none" stroke="#000000" d="M1562,-122.027C1562,-138.3976 1562,-160 1562,-160 1562,-160 1199.656,-160 1199.656,-160"/>
<polygon fill="#000000" stroke="#000000" points="1199.656,-156.5001 1189.656,-160 1199.6559,-163.5001 1199.656,-156.5001"/>
</g>
<!-- SimulationComponent -->
<g id="node7" class="node">
<title>SimulationComponent</title>
<polygon fill="#ffffb3" stroke="#000000" points="1445.2828,-122 1302.7172,-122 1302.7172,-86 1445.2828,-86 1445.2828,-122"/>
<text text-anchor="middle" x="1374" y="-99.8" font-family="Times,serif" font-size="14.00" fill="#000000">SimulationComponent</text>
</g>
<!-- SimulationComponent&#45;&gt;UiModule -->
<g id="edge7" class="edge">
<title>SimulationComponent&#45;&gt;UiModule</title>
<path fill="none" stroke="#000000" d="M1374,-122.1871C1374,-137.1824 1374,-156 1374,-156 1374,-156 1199.9904,-156 1199.9904,-156"/>
<polygon fill="#000000" stroke="#000000" points="1199.9905,-152.5001 1189.9904,-156 1199.9904,-159.5001 1199.9905,-152.5001"/>
</g>
<!-- StatisticsComponent -->
<g id="node8" class="node">
<title>StatisticsComponent</title>
<polygon fill="#ffffb3" stroke="#000000" points="1284.8864,-122 1153.1136,-122 1153.1136,-86 1284.8864,-86 1284.8864,-122"/>
<text text-anchor="middle" x="1219" y="-99.8" font-family="Times,serif" font-size="14.00" fill="#000000">StatisticsComponent</text>
</g>
<!-- StatisticsComponent&#45;&gt;UiModule -->
<g id="edge8" class="edge">
<title>StatisticsComponent&#45;&gt;UiModule</title>
<path fill="none" stroke="#000000" d="M1171.4152,-122.1061C1171.4152,-122.1061 1171.4152,-140.991 1171.4152,-140.991"/>
<polygon fill="#000000" stroke="#000000" points="1167.9152,-140.9909 1171.4152,-150.991 1174.9152,-140.991 1167.9152,-140.9909"/>
</g>
<!-- UiComponent -->
<g id="node9" class="node">
<title>UiComponent</title>
<polygon fill="#ffffb3" stroke="#000000" points="1134.8302,-122 1039.1698,-122 1039.1698,-86 1134.8302,-86 1134.8302,-122"/>
<text text-anchor="middle" x="1087" y="-99.8" font-family="Times,serif" font-size="14.00" fill="#000000">UiComponent</text>
</g>
<!-- UiComponent&#45;&gt;UiModule -->
<g id="edge9" class="edge">
<title>UiComponent&#45;&gt;UiModule</title>
<path fill="none" stroke="#000000" d="M1125.4457,-122.1061C1125.4457,-122.1061 1125.4457,-140.991 1125.4457,-140.991"/>
<polygon fill="#000000" stroke="#000000" points="1121.9457,-140.9909 1125.4457,-150.991 1128.9457,-140.991 1121.9457,-140.9909"/>
</g>
<!-- WeatherComponent -->
<g id="node10" class="node">
<title>WeatherComponent</title>
<polygon fill="#ffffb3" stroke="#000000" points="1021.2423,-122 892.7577,-122 892.7577,-86 1021.2423,-86 1021.2423,-122"/>
<text text-anchor="middle" x="957" y="-99.8" font-family="Times,serif" font-size="14.00" fill="#000000">WeatherComponent</text>
</g>
<!-- WeatherComponent&#45;&gt;UiModule -->
<g id="edge10" class="edge">
<title>WeatherComponent&#45;&gt;UiModule</title>
<path fill="none" stroke="#000000" d="M957,-122.1871C957,-137.1824 957,-156 957,-156 957,-156 1106.1339,-156 1106.1339,-156"/>
<polygon fill="#000000" stroke="#000000" points="1106.1339,-159.5001 1116.1339,-156 1106.1339,-152.5001 1106.1339,-159.5001"/>
</g>
<!-- WizardComponent -->
<g id="node11" class="node">
<title>WizardComponent</title>
<polygon fill="#ffffb3" stroke="#000000" points="874.0283,-122 751.9717,-122 751.9717,-86 874.0283,-86 874.0283,-122"/>
<text text-anchor="middle" x="813" y="-99.8" font-family="Times,serif" font-size="14.00" fill="#000000">WizardComponent</text>
</g>
<!-- WizardComponent&#45;&gt;UiModule -->
<g id="edge11" class="edge">
<title>WizardComponent&#45;&gt;UiModule</title>
<path fill="none" stroke="#000000" d="M813,-122.027C813,-138.3976 813,-160 813,-160 813,-160 1106.291,-160 1106.291,-160"/>
<polygon fill="#000000" stroke="#000000" points="1106.291,-163.5001 1116.291,-160 1106.291,-156.5001 1106.291,-163.5001"/>
</g>
<!-- SharedModule -->
<g id="node13" class="node">
<title>SharedModule</title>
<polygon fill="#8dd3c7" stroke="#000000" points="728.4231,-122 725.4231,-126 704.4231,-126 701.4231,-122 629.5769,-122 629.5769,-86 728.4231,-86 728.4231,-122"/>
<text text-anchor="middle" x="679" y="-99.8" font-family="Times,serif" font-size="14.00" fill="#000000">SharedModule</text>
</g>
<!-- SharedModule&#45;&gt;UiModule -->
<g id="edge12" class="edge">
<title>SharedModule&#45;&gt;UiModule</title>
<path fill="none" stroke="#000000" d="M679,-122.302C679,-140.2699 679,-165 679,-165 679,-165 1106.2004,-165 1106.2004,-165"/>
<polygon fill="#000000" stroke="#000000" points="1106.2005,-168.5001 1116.2004,-165 1106.2004,-161.5001 1106.2005,-168.5001"/>
</g>
<!-- UiRoutingModule -->
<g id="node14" class="node">
<title>UiRoutingModule</title>
<polygon fill="#8dd3c7" stroke="#000000" points="611.1653,-122 608.1653,-126 587.1653,-126 584.1653,-122 492.8347,-122 492.8347,-86 611.1653,-86 611.1653,-122"/>
<text text-anchor="middle" x="552" y="-99.8" font-family="Times,serif" font-size="14.00" fill="#000000">UiRoutingModule</text>
</g>
<!-- UiRoutingModule&#45;&gt;UiModule -->
<g id="edge13" class="edge">
<title>UiRoutingModule&#45;&gt;UiModule</title>
<path fill="none" stroke="#000000" d="M552,-122.1061C552,-141.3391 552,-169 552,-169 552,-169 1106.3095,-169 1106.3095,-169"/>
<polygon fill="#000000" stroke="#000000" points="1106.3095,-172.5001 1116.3095,-169 1106.3094,-165.5001 1106.3095,-172.5001"/>
</g>
<!-- MapService -->
<g id="node15" class="node">
<title>MapService</title>
<ellipse fill="#fdb462" stroke="#000000" cx="411" cy="-104" rx="57.8829" ry="18"/>
<text text-anchor="middle" x="411" y="-99.8" font-family="Times,serif" font-size="14.00" fill="#000000">MapService</text>
</g>
<!-- MapService&#45;&gt;UiModule -->
<g id="edge14" class="edge">
<title>MapService&#45;&gt;UiModule</title>
<path fill="none" stroke="#000000" d="M411,-122.0267C411,-142.7672 411,-174 411,-174 411,-174 1106.2041,-174 1106.2041,-174"/>
<polygon fill="#000000" stroke="#000000" points="1106.2041,-177.5001 1116.2041,-174 1106.2041,-170.5001 1106.2041,-177.5001"/>
</g>
<!-- SchedulerService -->
<g id="node16" class="node">
<title>SchedulerService</title>
<ellipse fill="#fdb462" stroke="#000000" cx="257" cy="-104" rx="78.7086" ry="18"/>
<text text-anchor="middle" x="257" y="-99.8" font-family="Times,serif" font-size="14.00" fill="#000000">SchedulerService</text>
</g>
<!-- SchedulerService&#45;&gt;UiModule -->
<g id="edge15" class="edge">
<title>SchedulerService&#45;&gt;UiModule</title>
<path fill="none" stroke="#000000" d="M257,-122.2921C257,-144.2057 257,-178 257,-178 257,-178 1106.2053,-178 1106.2053,-178"/>
<polygon fill="#000000" stroke="#000000" points="1106.2053,-181.5001 1116.2053,-178 1106.2053,-174.5001 1106.2053,-181.5001"/>
</g>
<!-- WizardService -->
<g id="node17" class="node">
<title>WizardService</title>
<ellipse fill="#fdb462" stroke="#000000" cx="92" cy="-104" rx="68.315" ry="18"/>
<text text-anchor="middle" x="92" y="-99.8" font-family="Times,serif" font-size="14.00" fill="#000000">WizardService</text>
</g>
<!-- WizardService&#45;&gt;UiModule -->
<g id="edge16" class="edge">
<title>WizardService&#45;&gt;UiModule</title>
<path fill="none" stroke="#000000" d="M92,-122.3228C92,-145.6602 92,-183 92,-183 92,-183 1106.1699,-183 1106.1699,-183"/>
<polygon fill="#000000" stroke="#000000" points="1106.1699,-186.5001 1116.1699,-183 1106.1698,-179.5001 1106.1699,-186.5001"/>
</g>
</g>
</svg>
