<?xml version="1.0" encoding="UTF-8" standalone="no"?>
<!DOCTYPE svg PUBLIC "-//W3C//DTD SVG 1.1//EN"
 "http://www.w3.org/Graphics/SVG/1.1/DTD/svg11.dtd">
<!-- Generated by graphviz version 2.40.1 (20161225.0304)
 -->
<!-- Title: dependencies Pages: 1 -->
<svg width="2502pt" height="211pt"
 viewBox="0.00 0.00 2502.00 211.00" xmlns="http://www.w3.org/2000/svg" xmlns:xlink="http://www.w3.org/1999/xlink">
<g id="graph0" class="graph" transform="scale(1 1) rotate(0) translate(4 207)">
<title>dependencies</title>
<polygon fill="#ffffff" stroke="transparent" points="-4,4 -4,-207 2498,-207 2498,4 -4,4"/>
<text text-anchor="start" x="1226.0091" y="-42.4" font-family="sans-serif" font-weight="bold" font-size="14.00" fill="#000000">Legend</text>
<polygon fill="#ffffb3" stroke="transparent" points="1013,-10 1013,-30 1033,-30 1033,-10 1013,-10"/>
<text text-anchor="start" x="1036.629" y="-15.4" font-family="sans-serif" font-size="14.00" fill="#000000"> &#160;Declarations</text>
<polygon fill="#8dd3c7" stroke="transparent" points="1126,-10 1126,-30 1146,-30 1146,-10 1126,-10"/>
<text text-anchor="start" x="1149.7251" y="-15.4" font-family="sans-serif" font-size="14.00" fill="#000000"> &#160;Module</text>
<polygon fill="#80b1d3" stroke="transparent" points="1212,-10 1212,-30 1232,-30 1232,-10 1212,-10"/>
<text text-anchor="start" x="1235.7812" y="-15.4" font-family="sans-serif" font-size="14.00" fill="#000000"> &#160;Bootstrap</text>
<polygon fill="#fdb462" stroke="transparent" points="1309,-10 1309,-30 1329,-30 1329,-10 1309,-10"/>
<text text-anchor="start" x="1332.6732" y="-15.4" font-family="sans-serif" font-size="14.00" fill="#000000"> &#160;Providers</text>
<polygon fill="#fb8072" stroke="transparent" points="1405,-10 1405,-30 1425,-30 1425,-10 1405,-10"/>
<text text-anchor="start" x="1428.7258" y="-15.4" font-family="sans-serif" font-size="14.00" fill="#000000"> &#160;Exports</text>
<g id="clust1" class="cluster">
<title>cluster_UiModule</title>
<polygon fill="none" stroke="#000000" stroke-dasharray="1,5" points="8,-70 8,-195 2486,-195 2486,-70 8,-70"/>
</g>
<g id="clust2" class="cluster">
<title>cluster_UiModule_declarations</title>
<polygon fill="none" stroke="#000000" points="569,-78 569,-130 2478,-130 2478,-78 569,-78"/>
</g>
<g id="clust14" class="cluster">
<title>cluster_UiModule_imports</title>
<polygon fill="none" stroke="#000000" points="310,-78 310,-130 561,-130 561,-78 310,-78"/>
</g>
<g id="clust17" class="cluster">
<title>cluster_UiModule_providers</title>
<polygon fill="none" stroke="#000000" points="16,-78 16,-130 302,-130 302,-78 16,-78"/>
</g>
<!-- ChangeOfDemandAndWeatherComponent -->
<g id="node1" class="node">
<title>ChangeOfDemandAndWeatherComponent</title>
<polygon fill="#ffffb3" stroke="#000000" points="2469.8081,-122 2212.1919,-122 2212.1919,-86 2469.8081,-86 2469.8081,-122"/>
<text text-anchor="middle" x="2341" y="-99.8" font-family="Times,serif" font-size="14.00" fill="#000000">ChangeOfDemandAndWeatherComponent</text>
</g>
<!-- UiModule -->
<g id="node12" class="node">
<title>UiModule</title>
<polygon fill="#8dd3c7" stroke="#000000" points="1080.5484,-187 1077.5484,-191 1056.5484,-191 1053.5484,-187 1007.4516,-187 1007.4516,-151 1080.5484,-151 1080.5484,-187"/>
<text text-anchor="middle" x="1044" y="-164.8" font-family="Times,serif" font-size="14.00" fill="#000000">UiModule</text>
</g>
<!-- ChangeOfDemandAndWeatherComponent&#45;&gt;UiModule -->
<g id="edge1" class="edge">
<title>ChangeOfDemandAndWeatherComponent&#45;&gt;UiModule</title>
<path fill="none" stroke="#000000" d="M2341,-122.3228C2341,-145.6602 2341,-183 2341,-183 2341,-183 1090.7274,-183 1090.7274,-183"/>
<polygon fill="#000000" stroke="#000000" points="1090.7275,-179.5001 1080.7274,-183 1090.7274,-186.5001 1090.7275,-179.5001"/>
</g>
<!-- GoogleMapComponent -->
<g id="node2" class="node">
<title>GoogleMapComponent</title>
<polygon fill="#ffffb3" stroke="#000000" points="2194.2035,-122 2045.7965,-122 2045.7965,-86 2194.2035,-86 2194.2035,-122"/>
<text text-anchor="middle" x="2120" y="-99.8" font-family="Times,serif" font-size="14.00" fill="#000000">GoogleMapComponent</text>
</g>
<!-- GoogleMapComponent&#45;&gt;UiModule -->
<g id="edge2" class="edge">
<title>GoogleMapComponent&#45;&gt;UiModule</title>
<path fill="none" stroke="#000000" d="M2120,-122.2921C2120,-144.2057 2120,-178 2120,-178 2120,-178 1090.7271,-178 1090.7271,-178"/>
<polygon fill="#000000" stroke="#000000" points="1090.7271,-174.5001 1080.7271,-178 1090.727,-181.5001 1090.7271,-174.5001"/>
</g>
<!-- MapComponent -->
<g id="node3" class="node">
<title>MapComponent</title>
<polygon fill="#ffffb3" stroke="#000000" points="2027.4916,-122 1920.5084,-122 1920.5084,-86 2027.4916,-86 2027.4916,-122"/>
<text text-anchor="middle" x="1974" y="-99.8" font-family="Times,serif" font-size="14.00" fill="#000000">MapComponent</text>
</g>
<!-- MapComponent&#45;&gt;UiModule -->
<g id="edge3" class="edge">
<title>MapComponent&#45;&gt;UiModule</title>
<path fill="none" stroke="#000000" d="M1974,-122.0267C1974,-142.7672 1974,-174 1974,-174 1974,-174 1090.7435,-174 1090.7435,-174"/>
<polygon fill="#000000" stroke="#000000" points="1090.7436,-170.5001 1080.7435,-174 1090.7435,-177.5001 1090.7436,-170.5001"/>
</g>
<!-- SearchForTheAreaComponent -->
<g id="node4" class="node">
<title>SearchForTheAreaComponent</title>
<polygon fill="#ffffb3" stroke="#000000" points="1902.8263,-122 1715.1737,-122 1715.1737,-86 1902.8263,-86 1902.8263,-122"/>
<text text-anchor="middle" x="1809" y="-99.8" font-family="Times,serif" font-size="14.00" fill="#000000">SearchForTheAreaComponent</text>
</g>
<!-- SearchForTheAreaComponent&#45;&gt;UiModule -->
<g id="edge4" class="edge">
<title>SearchForTheAreaComponent&#45;&gt;UiModule</title>
<path fill="none" stroke="#000000" d="M1809,-122.1061C1809,-141.3391 1809,-169 1809,-169 1809,-169 1090.6398,-169 1090.6398,-169"/>
<polygon fill="#000000" stroke="#000000" points="1090.6398,-165.5001 1080.6398,-169 1090.6398,-172.5001 1090.6398,-165.5001"/>
</g>
<!-- SelectionOfOdPairsComponent -->
<g id="node5" class="node">
<title>SelectionOfOdPairsComponent</title>
<polygon fill="#ffffb3" stroke="#000000" points="1696.7976,-122 1503.2024,-122 1503.2024,-86 1696.7976,-86 1696.7976,-122"/>
<text text-anchor="middle" x="1600" y="-99.8" font-family="Times,serif" font-size="14.00" fill="#000000">SelectionOfOdPairsComponent</text>
</g>
<!-- SelectionOfOdPairsComponent&#45;&gt;UiModule -->
<g id="edge5" class="edge">
<title>SelectionOfOdPairsComponent&#45;&gt;UiModule</title>
<path fill="none" stroke="#000000" d="M1600,-122.302C1600,-140.2699 1600,-165 1600,-165 1600,-165 1090.9113,-165 1090.9113,-165"/>
<polygon fill="#000000" stroke="#000000" points="1090.9113,-161.5001 1080.9113,-165 1090.9113,-168.5001 1090.9113,-161.5001"/>
</g>
<!-- SelectionOfTheAreaComponent -->
<g id="node6" class="node">
<title>SelectionOfTheAreaComponent</title>
<polygon fill="#ffffb3" stroke="#000000" points="1485.6615,-122 1288.3385,-122 1288.3385,-86 1485.6615,-86 1485.6615,-122"/>
<text text-anchor="middle" x="1387" y="-99.8" font-family="Times,serif" font-size="14.00" fill="#000000">SelectionOfTheAreaComponent</text>
</g>
<!-- SelectionOfTheAreaComponent&#45;&gt;UiModule -->
<g id="edge6" class="edge">
<title>SelectionOfTheAreaComponent&#45;&gt;UiModule</title>
<path fill="none" stroke="#000000" d="M1387,-122.027C1387,-138.3976 1387,-160 1387,-160 1387,-160 1090.707,-160 1090.707,-160"/>
<polygon fill="#000000" stroke="#000000" points="1090.707,-156.5001 1080.707,-160 1090.707,-163.5001 1090.707,-156.5001"/>
</g>
<!-- SimulationComponent -->
<g id="node7" class="node">
<title>SimulationComponent</title>
<polygon fill="#ffffb3" stroke="#000000" points="1270.2828,-122 1127.7172,-122 1127.7172,-86 1270.2828,-86 1270.2828,-122"/>
<text text-anchor="middle" x="1199" y="-99.8" font-family="Times,serif" font-size="14.00" fill="#000000">SimulationComponent</text>
</g>
<!-- SimulationComponent&#45;&gt;UiModule -->
<g id="edge7" class="edge">
<title>SimulationComponent&#45;&gt;UiModule</title>
<path fill="none" stroke="#000000" d="M1199,-122.1871C1199,-137.1824 1199,-156 1199,-156 1199,-156 1090.7328,-156 1090.7328,-156"/>
<polygon fill="#000000" stroke="#000000" points="1090.7329,-152.5001 1080.7328,-156 1090.7328,-159.5001 1090.7329,-152.5001"/>
</g>
<!-- StatisticsComponent -->
<g id="node8" class="node">
<title>StatisticsComponent</title>
<polygon fill="#ffffb3" stroke="#000000" points="1109.8864,-122 978.1136,-122 978.1136,-86 1109.8864,-86 1109.8864,-122"/>
<text text-anchor="middle" x="1044" y="-99.8" font-family="Times,serif" font-size="14.00" fill="#000000">StatisticsComponent</text>
</g>
<!-- StatisticsComponent&#45;&gt;UiModule -->
<g id="edge8" class="edge">
<title>StatisticsComponent&#45;&gt;UiModule</title>
<path fill="none" stroke="#000000" d="M1044,-122.1061C1044,-122.1061 1044,-140.991 1044,-140.991"/>
<polygon fill="#000000" stroke="#000000" points="1040.5001,-140.9909 1044,-150.991 1047.5001,-140.991 1040.5001,-140.9909"/>
</g>
<!-- UiComponent -->
<g id="node9" class="node">
<title>UiComponent</title>
<polygon fill="#ffffb3" stroke="#000000" points="959.8302,-122 864.1698,-122 864.1698,-86 959.8302,-86 959.8302,-122"/>
<text text-anchor="middle" x="912" y="-99.8" font-family="Times,serif" font-size="14.00" fill="#000000">UiComponent</text>
</g>
<!-- UiComponent&#45;&gt;UiModule -->
<g id="edge9" class="edge">
<title>UiComponent&#45;&gt;UiModule</title>
<path fill="none" stroke="#000000" d="M912,-122.1871C912,-137.1824 912,-156 912,-156 912,-156 997.2306,-156 997.2306,-156"/>
<polygon fill="#000000" stroke="#000000" points="997.2307,-159.5001 1007.2306,-156 997.2306,-152.5001 997.2307,-159.5001"/>
</g>
<!-- WeatherComponent -->
<g id="node10" class="node">
<title>WeatherComponent</title>
<polygon fill="#ffffb3" stroke="#000000" points="846.2423,-122 717.7577,-122 717.7577,-86 846.2423,-86 846.2423,-122"/>
<text text-anchor="middle" x="782" y="-99.8" font-family="Times,serif" font-size="14.00" fill="#000000">WeatherComponent</text>
</g>
<!-- WeatherComponent&#45;&gt;UiModule -->
<g id="edge10" class="edge">
<title>WeatherComponent&#45;&gt;UiModule</title>
<path fill="none" stroke="#000000" d="M782,-122.027C782,-138.3976 782,-160 782,-160 782,-160 997.2942,-160 997.2942,-160"/>
<polygon fill="#000000" stroke="#000000" points="997.2942,-163.5001 1007.2942,-160 997.2941,-156.5001 997.2942,-163.5001"/>
</g>
<!-- WizardComponent -->
<g id="node11" class="node">
<title>WizardComponent</title>
<polygon fill="#ffffb3" stroke="#000000" points="699.0283,-122 576.9717,-122 576.9717,-86 699.0283,-86 699.0283,-122"/>
<text text-anchor="middle" x="638" y="-99.8" font-family="Times,serif" font-size="14.00" fill="#000000">WizardComponent</text>
</g>
<!-- WizardComponent&#45;&gt;UiModule -->
<g id="edge11" class="edge">
<title>WizardComponent&#45;&gt;UiModule</title>
<path fill="none" stroke="#000000" d="M638,-122.302C638,-140.2699 638,-165 638,-165 638,-165 997.2541,-165 997.2541,-165"/>
<polygon fill="#000000" stroke="#000000" points="997.2542,-168.5001 1007.2541,-165 997.2541,-161.5001 997.2542,-168.5001"/>
</g>
<!-- SharedModule -->
<g id="node13" class="node">
<title>SharedModule</title>
<polygon fill="#8dd3c7" stroke="#000000" points="553.4231,-122 550.4231,-126 529.4231,-126 526.4231,-122 454.5769,-122 454.5769,-86 553.4231,-86 553.4231,-122"/>
<text text-anchor="middle" x="504" y="-99.8" font-family="Times,serif" font-size="14.00" fill="#000000">SharedModule</text>
</g>
<!-- SharedModule&#45;&gt;UiModule -->
<g id="edge12" class="edge">
<title>SharedModule&#45;&gt;UiModule</title>
<path fill="none" stroke="#000000" d="M504,-122.1061C504,-141.3391 504,-169 504,-169 504,-169 997.3081,-169 997.3081,-169"/>
<polygon fill="#000000" stroke="#000000" points="997.3082,-172.5001 1007.3081,-169 997.3081,-165.5001 997.3082,-172.5001"/>
</g>
<!-- UiRoutingModule -->
<g id="node14" class="node">
<title>UiRoutingModule</title>
<polygon fill="#8dd3c7" stroke="#000000" points="436.1653,-122 433.1653,-126 412.1653,-126 409.1653,-122 317.8347,-122 317.8347,-86 436.1653,-86 436.1653,-122"/>
<text text-anchor="middle" x="377" y="-99.8" font-family="Times,serif" font-size="14.00" fill="#000000">UiRoutingModule</text>
</g>
<!-- UiRoutingModule&#45;&gt;UiModule -->
<g id="edge13" class="edge">
<title>UiRoutingModule&#45;&gt;UiModule</title>
<path fill="none" stroke="#000000" d="M377,-122.0267C377,-142.7672 377,-174 377,-174 377,-174 997.1891,-174 997.1891,-174"/>
<polygon fill="#000000" stroke="#000000" points="997.1891,-177.5001 1007.1891,-174 997.1891,-170.5001 997.1891,-177.5001"/>
</g>
<!-- MapService -->
<g id="node15" class="node">
<title>MapService</title>
<ellipse fill="#fdb462" stroke="#000000" cx="236" cy="-104" rx="57.8829" ry="18"/>
<text text-anchor="middle" x="236" y="-99.8" font-family="Times,serif" font-size="14.00" fill="#000000">MapService</text>
</g>
<!-- MapService&#45;&gt;UiModule -->
<g id="edge14" class="edge">
<title>MapService&#45;&gt;UiModule</title>
<path fill="none" stroke="#000000" d="M236,-122.2921C236,-144.2057 236,-178 236,-178 236,-178 997.4477,-178 997.4477,-178"/>
<polygon fill="#000000" stroke="#000000" points="997.4477,-181.5001 1007.4477,-178 997.4477,-174.5001 997.4477,-181.5001"/>
</g>
<!-- WizardService -->
<g id="node16" class="node">
<title>WizardService</title>
<ellipse fill="#fdb462" stroke="#000000" cx="92" cy="-104" rx="68.315" ry="18"/>
<text text-anchor="middle" x="92" y="-99.8" font-family="Times,serif" font-size="14.00" fill="#000000">WizardService</text>
</g>
<!-- WizardService&#45;&gt;UiModule -->
<g id="edge15" class="edge">
<title>WizardService&#45;&gt;UiModule</title>
<path fill="none" stroke="#000000" d="M92,-122.3228C92,-145.6602 92,-183 92,-183 92,-183 997.2638,-183 997.2638,-183"/>
<polygon fill="#000000" stroke="#000000" points="997.2638,-186.5001 1007.2638,-183 997.2638,-179.5001 997.2638,-186.5001"/>
</g>
</g>
</svg>
